<svg width="139" height="35" viewBox="0 0 139 35" fill="none" xmlns="http://www.w3.org/2000/svg">
<path d="M12.3789 0.511133C11.92 0.746415 10.7936 1.36922 9.87582 1.89515L8.20707 2.85012L8.16535 2.04739C8.13754 1.61835 8.0541 1.17546 7.97066 1.07858C7.78988 0.857137 6.58004 0.843297 6.35754 1.06474C6.24629 1.17546 6.19066 1.71523 6.19066 2.57332C6.19066 4.12341 6.30191 3.95733 4.45238 4.99535C3.06176 5.75655 1.85191 6.42088 1.51816 6.58696C0.739414 6.98833 0.808945 7.9433 1.62941 7.97098C1.87973 7.97098 2.65848 7.98482 3.33988 7.99866L4.59145 8.02634L4.63316 12.3306C4.66098 16.026 4.68879 16.6626 4.86957 16.7318C4.99473 16.7733 6.13504 16.4688 7.41441 16.0675C8.69379 15.6523 10.8354 14.9741 12.1704 14.5589C13.5054 14.1437 15.7304 13.4517 17.1071 13.0088C18.4838 12.5798 20.0552 12.0953 20.5836 11.9431C21.126 11.777 21.6405 11.5833 21.7379 11.5141C21.8491 11.4172 21.9047 10.8913 21.9047 9.74252C21.9047 8.52459 21.9464 8.09554 22.0855 8.0817C22.1689 8.06786 22.9755 8.02634 23.8516 7.97098L25.4508 7.88794L25.4925 7.38969L25.5343 6.89145L23.4761 5.74271C22.3497 5.11991 20.9591 4.33102 20.4029 3.99885C19.8466 3.66669 19.3599 3.38989 19.3182 3.38989C19.2764 3.38989 18.5533 2.98852 17.7189 2.49028C16.8846 1.99203 16.1754 1.59067 16.1336 1.59067C16.1058 1.59067 15.5496 1.28618 14.9238 0.912498C14.2841 0.552652 13.6444 0.20665 13.4914 0.151289C13.3107 0.0959282 12.9074 0.234329 12.3789 0.511133ZM10.4182 9.5626C10.5433 9.9086 10.5155 11.5971 10.3625 11.8324C10.2652 11.9985 9.93145 12.0261 8.66598 11.9985C7.80379 11.9708 7.05285 11.9154 6.99723 11.8877C6.85816 11.8047 6.84426 9.5626 6.98332 9.43804C7.02504 9.38268 7.80379 9.34116 8.7077 9.34116C10.0566 9.34116 10.3486 9.38268 10.4182 9.5626Z" fill="#082640"/>
<path d="M84.8999 16.109V23.5965L85.2197 23.6657C85.3866 23.7072 86.0958 23.7349 86.7772 23.7072L88.0288 23.6657V16.192V8.71836L86.4713 8.67684L84.8999 8.63532V16.109Z" fill="#082640"/>
<path d="M93.0909 9.39648C91.1023 10.1992 90.1845 11.4725 90.1845 13.4101C90.1845 14.5589 90.4904 15.4031 91.1718 16.0951C91.8811 16.8425 92.6598 17.2162 94.857 17.9359C96.79 18.5587 97.2767 18.8908 97.2767 19.569C97.2767 20.0811 96.9986 20.3579 96.3311 20.5516C95.6357 20.7454 95.2325 20.7316 94.412 20.4824C93.7028 20.2748 92.6876 19.4444 92.6876 19.0707C92.6876 18.6417 92.2148 18.7663 90.9493 19.5275C89.7117 20.261 89.6143 20.344 89.6978 20.6762C89.8229 21.2021 90.8798 22.5031 91.5195 22.9183C93.2578 24.0532 95.8443 24.2608 98.0554 23.4442C98.862 23.1398 99.8772 22.254 100.253 21.5481C100.628 20.8284 100.781 19.5275 100.6 18.6002C100.28 16.967 99.2375 16.0813 96.6926 15.237C94.6345 14.5589 93.9948 14.2544 93.7167 13.8392C92.9379 12.6489 95.0378 11.7908 96.4562 12.732C96.7761 12.9396 97.0959 13.2856 97.1793 13.507C97.2628 13.7284 97.4018 13.9084 97.4853 13.9084C97.8051 13.9084 100.127 12.4275 100.169 12.206C100.239 11.8739 99.1679 10.5175 98.4587 10.0331C97.0125 9.03663 94.6345 8.75983 93.0909 9.39648Z" fill="#082640"/>
<path d="M41.9575 16.4965L41.9992 23.6657L43.1812 23.7072C43.8209 23.7349 44.558 23.7211 44.8083 23.6657L45.2672 23.5827V16.4688V9.34115H43.5984H41.9297L41.9575 16.4965Z" fill="#082640"/>
<path d="M55.0015 11.7632V14.1852L54.4174 13.77C52.9295 12.732 50.4542 12.9534 48.8967 14.2682C47.0471 15.8322 46.5465 19.0016 47.7703 21.3821C48.3821 22.5862 49.7867 23.5827 51.2051 23.8456C52.4428 24.0671 54.4314 23.6103 54.8207 23.0152C54.8903 22.8907 54.9459 22.9737 55.0015 23.2505L55.071 23.6657L56.3226 23.7072C57.0179 23.7349 57.7132 23.7072 57.894 23.6657L58.2 23.5965V16.4688V9.34114H56.6007H55.0015V11.7632ZM53.6665 16.3166C53.9168 16.4273 54.3062 16.7456 54.5287 17.0224C54.8624 17.4653 54.9181 17.6591 54.9181 18.4618C54.932 19.6244 54.6121 20.2195 53.7499 20.6485C52.3037 21.3821 50.621 20.6347 50.3429 19.1261C50.1065 17.9082 50.6349 16.7318 51.5945 16.3166C52.1507 16.0813 53.0824 16.0813 53.6665 16.3166Z" fill="#082640"/>
<path d="M104.855 10.7944C104.55 10.8912 103.938 11.085 103.507 11.2096L102.7 11.431V12.386V13.3548H101.866H101.031V14.8772V16.3996H101.866H102.7V18.7248C102.7 21.3544 102.867 22.1987 103.493 22.7938C104.271 23.5135 104.73 23.6519 106.385 23.6519L107.915 23.6657L107.957 22.2679L107.998 20.8562L107.164 20.8008C105.898 20.7178 105.898 20.7039 105.898 18.3926V16.3996H106.941H107.998L107.957 14.9049L107.915 13.424L106.914 13.3825L105.898 13.341V11.9708C105.898 10.4207 105.912 10.4345 104.855 10.7944Z" fill="#082640"/>
<path d="M63.832 13.2717C62.3023 13.6454 61.2176 14.4896 60.4806 15.8875L59.9382 16.884V18.5448C59.9382 20.1641 59.9521 20.2195 60.411 21.0776C61.301 22.7107 62.7334 23.6518 64.6803 23.8594C66.6689 24.0947 68.2959 23.6242 69.4362 22.5031C69.7561 22.1848 70.0203 21.8803 70.0203 21.8249C70.0203 21.7696 69.6031 21.4789 69.0886 21.2021C68.5601 20.9115 68.0456 20.607 67.9204 20.524C67.7396 20.3994 67.5311 20.4548 66.947 20.7316C65.6676 21.3682 64.1657 21.1468 63.5121 20.2333L63.2062 19.7904L66.8079 19.7489L70.4236 19.7212L70.5209 19.2368C70.6739 18.4064 70.4375 16.9532 70.0203 16.0397C68.9217 13.7561 66.4185 12.6351 63.832 13.2717ZM66.3768 16.1781C66.794 16.3996 67.1556 16.7733 67.2807 17.1193C67.3642 17.3546 67.2112 17.3684 65.2921 17.3684C64.1101 17.3684 63.2062 17.313 63.2062 17.2438C63.2062 17.0224 63.9293 16.2473 64.2353 16.1228C64.6942 15.929 65.9735 15.9705 66.3768 16.1781Z" fill="#082640"/>
<path d="M75.1378 13.3409C72.1201 14.3236 70.7295 17.9359 72.1618 21.036C73.0935 23.0706 75.249 24.247 77.3488 23.8594C78.1971 23.7072 79.101 23.3058 79.2957 23.0152C79.3653 22.8906 79.4209 22.9737 79.4765 23.2505L79.546 23.6657H81.0757H82.6054L82.6471 18.5033L82.6749 13.3409L81.1174 13.3824L79.546 13.424L79.4626 13.8392C79.407 14.0606 79.3653 14.1852 79.3513 14.0883C79.3513 14.0052 79.0037 13.77 78.5865 13.5624C77.5713 13.078 76.2224 12.9811 75.1378 13.3409ZM78.1276 16.3166C78.3779 16.4134 78.7673 16.7041 78.9898 16.9394C79.3792 17.3546 79.407 17.4514 79.407 18.4756C79.407 19.7212 79.1984 20.1226 78.2806 20.6624C77.2376 21.2713 75.7079 20.8561 75.0821 19.7904C74.9013 19.4998 74.8318 19.0984 74.8457 18.4479C74.8457 17.6729 74.9013 17.4376 75.2073 17.0501C75.8609 16.192 77.0985 15.8737 78.1276 16.3166Z" fill="#082640"/>
<path d="M120.416 13.3271C118.901 13.7838 117.719 14.7665 117.093 16.1505C115.535 19.5413 117.496 23.292 121.126 23.8733C122.057 24.0255 123.337 23.8733 124.199 23.5135C127.995 21.9357 128.607 16.5795 125.27 14.1437C123.949 13.1887 122.002 12.8565 120.416 13.3271ZM123.17 16.4827C124.63 17.2162 124.616 19.8043 123.142 20.5517C122.127 21.0638 120.806 20.8008 120.18 19.9704C119.791 19.4583 119.638 18.5587 119.805 17.9082C120.194 16.455 121.793 15.7906 123.17 16.4827Z" fill="#082640"/>
<path d="M114.604 13.424C114.312 13.5209 113.825 13.8392 113.533 14.1298L113.005 14.6419L112.963 14.033L112.921 13.424L111.35 13.3825L109.792 13.341L109.82 18.5033L109.862 23.6657H111.392H112.921L112.991 20.87C113.06 18.3096 113.088 18.0466 113.352 17.6868C113.784 17.1193 114.409 16.801 115.285 16.718L116.05 16.6349V14.9326V13.2164H115.605C115.355 13.2302 114.91 13.3133 114.604 13.424Z" fill="#082640"/>
<path d="M127.703 13.4239C127.634 13.507 128.009 14.4758 129.15 17.1608C129.372 17.6867 129.887 18.9323 130.304 19.9288C130.707 20.9115 131.18 22.0325 131.347 22.4201C131.5 22.7937 131.611 23.2366 131.569 23.3889C131.444 23.8733 130.665 24.5514 130.123 24.6483C129.052 24.8144 129.122 24.7175 129.122 26.323V27.79L130.179 27.707C132.64 27.5271 134.086 26.1015 135.254 22.7245C135.755 21.2852 136.144 20.1779 137.813 15.5277C138.161 14.5588 138.439 13.6731 138.439 13.5624C138.439 13.3963 138.147 13.3547 136.798 13.3547H135.171L134.378 15.9429C133.947 17.3822 133.544 18.7109 133.488 18.9185C133.447 19.1399 133.363 19.306 133.308 19.306C133.224 19.306 132.71 17.9774 131.416 14.3236L131.11 13.4239L129.442 13.3824C128.538 13.3686 127.745 13.3824 127.703 13.4239Z" fill="#082640"/>
<path d="M19.0538 14.2129C17.4407 14.7388 12.6431 16.2751 9.94524 17.1331C6.45477 18.2265 6.46868 18.2265 6.19055 18.877C6.05149 19.223 6.12102 19.5275 6.7468 21.4236C7.48383 23.6657 7.78977 24.1501 8.45727 24.1501C8.76321 24.1501 10.0982 23.7487 14.4648 22.3509C15.8415 21.908 18.3585 21.0914 20.069 20.5517C21.8351 19.9842 23.2952 19.4444 23.4482 19.2922C23.7681 18.9739 23.7959 18.1158 23.5177 17.3269C23.2952 16.7179 23.3787 16.6349 24.2965 16.6211L24.8388 16.6072L25.4646 18.4756C25.8123 19.4998 26.1043 20.5932 26.1182 20.8838L26.146 21.4236L24.5468 22.3786C23.6707 22.9045 22.6416 23.5135 22.2662 23.7072C21.8907 23.9148 21.4874 24.1363 21.3623 24.2193C21.2371 24.2885 20.4584 24.7591 19.6379 25.2435C17.552 26.4752 17.3712 26.7659 17.7606 28.2191C17.8996 28.7727 17.8996 28.8696 17.6771 29.1187C17.3016 29.5339 17.3712 30.129 18.0804 32.2881C18.734 34.2811 19.0121 34.7378 19.6379 34.8901C20.4027 35.0838 21.3623 34.461 21.3762 33.769C21.3762 33.5337 21.0841 32.4265 20.7226 31.2916C20.0551 29.1879 19.6935 28.5789 19.1373 28.5789C18.9426 28.5789 18.8174 28.4129 18.6506 27.9561C18.5393 27.6101 18.4698 27.2365 18.5115 27.1257C18.581 26.9596 19.2624 26.5168 21.1676 25.4372C21.4179 25.2988 22.447 24.6899 23.4621 24.0947C24.4773 23.4858 25.6593 22.7938 26.0904 22.5446C26.8552 22.0879 27.189 21.645 27.189 21.0637C27.189 20.8977 26.8413 19.6936 26.4242 18.4064C25.8818 16.7456 25.562 15.9844 25.3395 15.8183C24.9918 15.5415 24.227 15.5 23.5734 15.7214C23.0449 15.9152 23.0032 15.8598 22.6556 14.7665C22.2384 13.4517 21.6682 13.3548 19.0538 14.2129Z" fill="#47C819"/>
</svg>
