<svg width="32" height="42" viewBox="0 0 32 42" fill="none" xmlns="http://www.w3.org/2000/svg">
<path d="M15.9994 4.70215C12.7211 4.70215 9.65004 5.99815 7.35082 8.35259L7.31637 8.38804C7.09074 8.62044 7.09496 8.99285 7.32582 9.21997C7.55668 9.44702 7.92684 9.44277 8.15254 9.21046L8.18582 9.17618C10.2624 7.04974 13.0373 5.87874 15.9994 5.87874C22.0396 5.87874 26.9536 10.8237 26.9536 16.902C26.9536 22.9803 22.0396 27.9252 15.9994 27.9252C9.95926 27.9252 5.0452 22.9802 5.0452 16.902C5.0452 14.9163 5.57551 12.9699 6.57879 11.2734C6.74387 10.9941 6.65285 10.6331 6.37535 10.467C6.09777 10.3009 5.7391 10.3925 5.57402 10.6717C4.46316 12.5502 3.87598 14.7046 3.87598 16.9021C3.87598 23.629 9.31449 29.1019 15.9993 29.1019C22.6842 29.1019 28.1227 23.629 28.1227 16.9021C28.1227 10.1751 22.6843 4.70215 15.9994 4.70215Z" fill="#47C819"/>
<path d="M30.8073 14.4537C30.4902 13.9784 30.1906 13.5295 30.0781 13.1059C29.958 12.6537 29.9938 12.0967 30.0319 11.507C30.0886 10.6274 30.1473 9.71769 29.7007 8.9411C29.2473 8.15242 28.4281 7.74762 27.6359 7.3561C27.1151 7.09871 26.623 6.85554 26.3033 6.53376C25.9835 6.2119 25.7419 5.71685 25.486 5.19263C25.097 4.39553 24.6948 3.57123 23.9109 3.11493C23.1392 2.66563 22.2353 2.72468 21.3611 2.78167C20.7751 2.81996 20.2216 2.85612 19.7722 2.73521C19.3512 2.62192 18.9051 2.3205 18.4328 2.00132C17.7274 1.5245 16.9277 0.984009 16 0.984009C15.0723 0.984009 14.2726 1.5245 13.567 2.0014C13.0947 2.32058 12.6487 2.622 12.2277 2.73521C11.7784 2.85612 11.2248 2.81996 10.6388 2.78167C9.76461 2.72468 8.86078 2.66563 8.08898 3.11493C7.30523 3.57123 6.90297 4.39553 6.51391 5.19263C6.25813 5.71685 6.01648 6.21198 5.69664 6.53376C5.37687 6.85554 4.88492 7.09871 4.36398 7.3561C3.5718 7.74754 2.75273 8.15242 2.29922 8.9411C1.85266 9.71769 1.91133 10.6274 1.96805 11.5071C2.00609 12.0967 2.04195 12.6537 1.92188 13.1059C1.8093 13.5295 1.50977 13.9784 1.19258 14.4537C0.71875 15.1637 0.181641 15.9685 0.181641 16.902C0.181641 17.8355 0.718672 18.6403 1.19258 19.3504C1.50969 19.8256 1.8093 20.2745 1.9218 20.6982C2.04188 21.1503 2.00602 21.7073 1.96797 22.297C1.91125 23.1767 1.85258 24.0863 2.29914 24.8629C2.75258 25.6516 3.57172 26.0565 4.36391 26.4479C4.88477 26.7053 5.3768 26.9485 5.69656 27.2703C5.99305 27.5686 6.22242 28.0164 6.45813 28.4977L2.21195 36.3587C2.02977 36.6959 2.035 37.0957 2.22602 37.4279C2.41703 37.7603 2.75867 37.9641 3.14 37.9734L6.39633 38.0527L8.23344 40.7594C8.43789 41.0607 8.76945 41.2361 9.12883 41.2361C9.14758 41.2361 9.16648 41.2356 9.18539 41.2347C9.56633 41.2152 9.9025 41.0023 10.0847 40.665L14.5433 32.4109C14.992 32.6472 15.4755 32.82 15.9999 32.82C16.5243 32.82 17.0078 32.6472 17.4566 32.4109L21.9152 40.6651C22.0973 41.0024 22.4335 41.2153 22.8145 41.2347C22.8334 41.2357 22.8523 41.2362 22.871 41.2362C23.2304 41.2362 23.562 41.0608 23.7664 40.7595L25.6035 38.0528L28.8598 37.9735C29.2411 37.9642 29.5828 37.7603 29.7738 37.428C29.9648 37.0957 29.97 36.696 29.7878 36.3587L28.2351 33.4841C28.0809 33.1986 27.7259 33.0928 27.4423 33.2482C27.1586 33.4034 27.0537 33.7605 27.2078 34.046L28.6957 36.8005L25.5326 36.8775C25.184 36.886 24.8585 37.0641 24.662 37.3538L22.8774 39.983L18.4518 31.7898C18.917 31.4754 19.3569 31.1805 19.7722 31.0687C20.2215 30.9479 20.775 30.984 21.361 31.0223C22.2353 31.0794 23.1391 31.1384 23.9109 30.689C24.3194 30.4512 24.6238 30.113 24.8771 29.7311L25.9216 31.6648C26.0757 31.9503 26.4305 32.0559 26.7144 31.9007C26.9981 31.7456 27.103 31.3884 26.9488 31.1029L25.5416 28.4976C25.7773 28.0163 26.0066 27.5686 26.3031 27.2703C26.6229 26.9485 27.1148 26.7053 27.6358 26.4479C28.428 26.0565 29.247 25.6516 29.7006 24.8629C30.1471 24.0863 30.0884 23.1767 30.0317 22.2969C29.9937 21.7073 29.9578 21.1503 30.0779 20.6981C30.1905 20.2744 30.49 19.8256 30.8071 19.3504C31.2809 18.6403 31.8181 17.8355 31.8181 16.902C31.8183 15.9685 31.2812 15.1637 30.8073 14.4537ZM9.12242 39.983L7.33797 37.3539C7.14133 37.0642 6.81586 36.8861 6.46727 36.8776L3.30422 36.8006L7.12274 29.7313C7.37609 30.1131 7.68047 30.4513 8.08898 30.6891C8.86078 31.1384 9.76484 31.0794 10.6388 31.0224C11.2248 30.9841 11.7784 30.948 12.2277 31.0688C12.643 31.1805 13.0829 31.4756 13.548 31.7899L9.12242 39.983ZM29.8366 18.6944C29.4801 19.2287 29.1113 19.7813 28.9485 20.3943C28.7788 21.0333 28.8227 21.7145 28.8652 22.3731C28.9127 23.1101 28.9575 23.8061 28.6887 24.2737C28.4131 24.753 27.7852 25.0633 27.1205 25.3919C26.537 25.6802 25.9335 25.9784 25.4766 26.4383C25.0195 26.8982 24.7232 27.5055 24.4366 28.0928C24.1102 28.7616 23.8018 29.3933 23.3256 29.6707C22.8609 29.9412 22.1693 29.896 21.4369 29.8483C20.7823 29.8055 20.1055 29.7614 19.4705 29.9322C18.8613 30.0961 18.3123 30.4671 17.7813 30.826C17.1591 31.2464 16.5716 31.6435 16 31.6435C15.4285 31.6435 14.8409 31.2464 14.2188 30.826C13.6878 30.4672 13.1388 30.0961 12.5295 29.9322C12.1809 29.8384 11.8198 29.8094 11.4566 29.8094C11.1582 29.8094 10.8584 29.829 10.5631 29.8484C9.8307 29.8961 9.13906 29.9414 8.67445 29.6708C8.19813 29.3934 7.88977 28.7616 7.56336 28.0928C7.2768 27.5055 6.98039 26.8982 6.52336 26.4383C6.06641 25.9785 5.46297 25.6802 4.87937 25.3919C4.21469 25.0634 3.58688 24.7531 3.31125 24.2737C3.04242 23.8061 3.08727 23.1101 3.13477 22.3732C3.17727 21.7145 3.22117 21.0334 3.05141 20.3944C2.88859 19.7813 2.51984 19.2287 2.1632 18.6945C1.74547 18.0684 1.35086 17.4771 1.35086 16.9021C1.35086 16.327 1.74547 15.7357 2.1632 15.1097C2.51984 14.5753 2.88852 14.0228 3.05141 13.4097C3.22117 12.7707 3.17727 12.0896 3.13477 11.4309C3.08727 10.694 3.04242 9.99788 3.31125 9.53034C3.58688 9.05101 4.21469 8.74071 4.87937 8.41217C5.46297 8.1238 6.06641 7.82553 6.52336 7.36569C6.98031 6.90586 7.27672 6.29854 7.56336 5.71127C7.88977 5.04247 8.19813 4.4107 8.67445 4.13334C9.13906 3.8629 9.8307 3.90802 10.5631 3.95574C11.2177 3.99851 11.8945 4.0427 12.5295 3.87186C13.1387 3.70794 13.6877 3.33695 14.2188 2.97806C14.8409 2.55761 15.4284 2.16052 16 2.16052C16.5715 2.16052 17.1591 2.55761 17.7812 2.97798C18.3122 3.33687 18.8613 3.70794 19.4705 3.87178C20.1055 4.04262 20.7824 3.99843 21.437 3.95567C22.1693 3.90794 22.861 3.86274 23.3256 4.13326C23.8019 4.41062 24.1102 5.04239 24.4366 5.71119C24.7232 6.29846 25.0196 6.9057 25.4766 7.36561C25.9336 7.82545 26.5371 8.12372 27.1206 8.41209C27.7853 8.74055 28.4131 9.05085 28.6887 9.53018C28.9575 9.99772 28.9127 10.6938 28.8652 11.4307C28.8227 12.0893 28.7788 12.7705 28.9485 13.4095C29.1113 14.0225 29.4801 14.5751 29.8367 15.1094C30.2545 15.7355 30.6491 16.3267 30.6491 16.9018C30.6491 17.4771 30.2545 18.0683 29.8366 18.6944Z" fill="#47C819"/>
<path d="M24.0277 16.3508C24.4227 15.9632 24.5622 15.3946 24.3917 14.8667C24.2212 14.3388 23.7762 13.9612 23.2304 13.8814L19.2657 13.3017C19.1779 13.2888 19.102 13.2333 19.0628 13.1533L17.2897 9.53809C17.0456 9.04028 16.5512 8.73108 15.9997 8.73108C15.4481 8.73108 14.9537 9.04028 14.7096 9.53809L12.9365 13.1533C12.8973 13.2333 12.8215 13.2888 12.7336 13.3017L8.76903 13.8814C8.22317 13.9612 7.7781 14.3387 7.60763 14.8667C7.43716 15.3946 7.57661 15.9632 7.97169 16.3508L10.8405 19.1648C10.9041 19.2271 10.933 19.3168 10.918 19.4048L10.2408 23.3784C10.1475 23.9255 10.3668 24.4681 10.8131 24.7943C11.0653 24.9787 11.3603 25.0723 11.6573 25.0723C11.8859 25.0723 12.1158 25.0168 12.3282 24.9045L15.8742 23.0284C15.9528 22.9869 16.0465 22.9869 16.125 23.0284L19.6711 24.9045C20.1593 25.1627 20.7398 25.1205 21.1861 24.7943C21.6325 24.4681 21.8518 23.9255 21.7585 23.3784L21.0812 19.4048C21.0662 19.3168 21.0952 19.2271 21.1586 19.1649L24.0277 16.3508ZM19.929 19.6037L20.6062 23.5773C20.6318 23.7272 20.5397 23.8126 20.499 23.8424C20.4583 23.8722 20.3491 23.9338 20.2153 23.863L16.6691 21.987C16.2499 21.7652 15.7494 21.7653 15.3302 21.987L11.7841 23.8631C11.6504 23.9339 11.5411 23.8722 11.5004 23.8424C11.4597 23.8126 11.3676 23.7272 11.3932 23.5773L12.0704 19.6038C12.1505 19.1341 11.9959 18.6551 11.6567 18.3223L8.78786 15.5083C8.67958 15.4021 8.70411 15.2785 8.71966 15.2304C8.73521 15.1822 8.78755 15.0677 8.93716 15.0459L12.9018 14.4661C13.3705 14.3976 13.7754 14.1016 13.985 13.6742L15.7581 10.059C15.825 9.9226 15.9493 9.9079 15.9997 9.9079C16.0501 9.9079 16.1744 9.9226 16.2414 10.059L18.0144 13.6742C18.224 14.1016 18.629 14.3977 19.0976 14.4661L23.0623 15.0459C23.2119 15.0677 23.2642 15.1822 23.2798 15.2304C23.2954 15.2786 23.3199 15.4022 23.2117 15.5083L20.3427 18.3224C20.0035 18.6551 19.8489 19.1341 19.929 19.6037Z" fill="#47C819"/>
</svg>
