<svg width="42" height="36" viewBox="0 0 42 36" fill="none" xmlns="http://www.w3.org/2000/svg">
<path d="M40.1108 16.111H36.872C36.6322 14.1332 35.0594 12.5603 33.0816 12.3204V10.3557C33.0816 8.5876 34.5201 7.1491 36.2882 7.1491C36.8321 7.1491 37.2628 6.72336 36.7228 6.09836L32.901 2.28473C32.7857 2.16964 32.6293 2.105 32.4664 2.105H29.9414C29.6016 2.105 29.3262 2.38046 29.3262 2.72023C29.3262 3.06 29.6016 3.33547 29.9414 3.33547H32.2119L34.9936 6.11116C33.3665 6.60835 32.1337 8.01764 31.8937 9.74038H28.9737L26.6076 6.19245C26.4935 6.02133 26.3014 5.91855 26.0958 5.91855H22.8892L22.8893 3.33538H27.2597C27.5996 3.33538 27.875 3.05992 27.875 2.72015C27.875 2.38038 27.5996 2.10491 27.2597 2.10491H22.2739C21.9374 2.10491 21.664 2.37513 21.6588 2.71047H19.7259C19.386 2.71047 19.1107 2.98593 19.1107 3.3257V5.87376C19.1107 6.21353 19.386 6.48899 19.7259 6.48899H21.6587C21.6895 6.8158 21.8917 7.14893 22.2739 7.14893H23.9906L22.9597 10.5198C22.5254 11.9379 24.3359 12.9038 25.4837 11.873L27.6683 10.0005L28.029 10.5413V12.2886H27.3702C27.0304 12.2886 26.755 12.5641 26.755 12.9038V16.1109L19.0665 16.1108V14.8748C19.0665 12.9845 17.9759 11.3421 16.4027 10.3803L17.369 8.70671C17.526 8.36439 17.4509 8.08425 17.1438 7.8663L16.4565 7.46943L17.769 2.88085C17.8466 2.60941 17.7297 2.32 17.4851 2.17882L15.2785 0.904797C15.0341 0.763703 14.7249 0.807015 14.5286 1.00996L11.211 4.441L10.5237 4.04413C10.2292 3.87416 9.8531 3.97506 9.6833 4.26931L8.57924 6.18154C5.92454 6.36832 3.82184 8.58743 3.82184 11.2883V12.1874C3.82184 12.5271 4.09721 12.8026 4.43707 12.8026C4.77693 12.8026 5.0523 12.5271 5.0523 12.1874V11.2883C5.0523 9.19717 6.71155 7.48616 8.783 7.40241L15.892 11.5061C17.0911 12.1985 17.8361 13.4893 17.8361 14.8747V16.1107L5.0523 16.1108V14.8689C5.0523 14.5291 4.77693 14.2537 4.43707 14.2537C4.09721 14.2537 3.82184 14.5291 3.82184 14.8689V16.1108H1.88918C0.737871 16.2191 0.108199 16.8489 0 18.0002C0 19.0419 0.847465 19.8894 1.88918 19.8894H2.54781V32.0193C2.54781 33.7608 3.96457 35.1775 5.70601 35.1775H26.0293C26.3691 35.1775 26.6445 34.9021 26.6445 34.5623C26.6445 34.2225 26.3691 33.9471 26.0293 33.9471H5.70609C4.64313 33.9471 3.77836 33.0823 3.77836 32.0193V19.8894H12.7406V25.6444C12.7406 26.8694 14.1752 27.8306 15.2887 27.4151V28.1924C15.2887 29.4175 16.7231 30.3787 17.8367 29.9632V30.7406C17.8367 31.7823 18.6843 32.6298 19.726 32.6298C20.7677 32.6298 21.6152 31.7823 21.6152 30.7406V28.6892C22.7287 29.1047 24.1633 28.1434 24.1633 26.9184V21.8499L25.4101 23.0496C26.4735 23.9268 27.5362 23.9252 28.5982 23.0451C29.4675 21.9981 29.4796 20.9462 28.6343 19.8894H38.2216V32.0193C38.2216 33.0823 37.3569 33.9471 36.2939 33.9471H28.7109C28.3711 33.9471 28.0957 34.2225 28.0957 34.5623C28.0957 34.9021 28.3711 35.1775 28.7109 35.1775H36.2939C38.0353 35.1775 39.4521 33.7608 39.4521 32.0193V19.8894C40.643 20.0087 42 19.4357 42 18.0002C42 16.9585 41.1525 16.111 40.1108 16.111ZM20.3412 5.25861V3.94102H21.6588V5.25861H20.3412ZM24.6829 10.9389C24.4798 11.0806 24.3091 11.0235 24.1707 10.7677L25.2773 7.14902H25.7666L26.9806 8.96937L24.6829 10.9389ZM29.2595 10.9711H31.8512V12.2887H29.2595V10.9711ZM27.9854 13.5192H32.5548C34.0948 13.5192 35.3776 14.6413 35.6287 16.1108H27.9854V13.5192ZM12.3095 5.0751L15.0793 2.21057L16.454 3.00422L15.3581 6.83516L12.3095 5.0751ZM10.4413 5.41734L15.9958 8.62418L15.3371 9.76508L9.78247 6.55839L10.4413 5.41734ZM1.88918 18.6589C1.52595 18.6589 1.23047 18.3634 1.23047 18.0002C1.26829 17.5989 1.48788 17.3793 1.88918 17.3415H12.7405V18.6589H1.88918ZM27.7283 22.1749C27.3491 22.5542 26.6484 22.5267 26.2672 22.1666L23.9747 19.9606C23.7969 19.7896 23.5342 19.7411 23.3072 19.8378C23.0801 19.9344 22.9329 20.1572 22.9329 20.4039V26.9182C22.9329 27.2815 22.6373 27.577 22.2741 27.577C21.9109 27.577 21.6153 27.2815 21.6153 26.9182V21.822C21.6153 21.4823 21.3399 21.2068 21.0001 21.2068C20.6602 21.2068 20.3848 21.4823 20.3848 21.822V30.7403C20.3848 31.1035 20.0893 31.3991 19.7261 31.3991C19.3628 31.3991 19.0673 31.1035 19.0673 30.7403V21.8222C19.0673 21.4824 18.7919 21.207 18.452 21.207C18.1122 21.207 17.8368 21.4824 17.8368 21.8222V28.1924C17.8368 28.5556 17.5412 28.8512 17.178 28.8512C16.8148 28.8512 16.5193 28.5556 16.5193 28.1924V21.8222C16.5193 21.4824 16.2439 21.207 15.9041 21.207C15.5642 21.207 15.2888 21.4824 15.2888 21.8222V25.6444C15.2888 26.0076 14.9933 26.3032 14.63 26.3032C14.2668 26.3032 13.9712 26.0076 13.9712 25.6444V17.3415H24.2653L27.7309 20.7249C28.1293 21.2086 28.1284 21.6919 27.7283 22.1749ZM40.1108 18.6589H27.3758L26.0264 17.3415H40.1108C40.4741 17.3415 40.7695 17.637 40.7695 18.0002C40.7695 18.3718 40.4619 18.6589 40.1108 18.6589Z" fill="#47C819"/>
</svg>
