<svg width="40" height="32" viewBox="0 0 40 32" fill="none" xmlns="http://www.w3.org/2000/svg">
<path d="M40 1.8778C40 1.05655 39.3318 0.388428 38.5106 0.388428H36.6356C36.312 0.388428 36.0497 0.650693 36.0497 0.974365C36.0497 1.29804 36.312 1.5603 36.6356 1.5603H38.5106C38.6857 1.5603 38.8281 1.70272 38.8281 1.8778V5.49163C38.8281 5.66671 38.6857 5.80913 38.5106 5.80913H15.568C15.393 5.80913 15.2505 5.66671 15.2505 5.49163V1.8778C15.2505 1.70272 15.393 1.5603 15.568 1.5603H33.9012C34.2249 1.5603 34.4872 1.29804 34.4872 0.974365C34.4872 0.650693 34.2249 0.388428 33.9012 0.388428H15.568C14.7468 0.388428 14.0787 1.05663 14.0787 1.8778V5.49163C14.0787 5.57663 14.0875 5.65944 14.1012 5.74062C13.7241 5.70796 13.3438 5.69046 12.9609 5.69046C10.7177 5.69046 8.50703 6.27272 6.56789 7.37436C6.56766 7.37452 6.56734 7.37468 6.56711 7.37491C2.51625 9.67632 0 13.997 0 18.6512C7.8125e-05 22.3189 1.56437 25.8307 4.29203 28.2862C4.53258 28.5027 4.90297 28.4833 5.11953 28.2427C5.33602 28.0023 5.31656 27.6318 5.07602 27.4152C2.595 25.1816 1.17195 21.9873 1.17188 18.6512C1.17188 12.1712 6.42383 6.86241 12.9607 6.86241C19.257 6.86241 24.5591 11.8827 24.7446 18.3159C24.7446 18.3169 24.7446 18.3179 24.7447 18.3189C24.933 24.9326 19.603 30.44 12.9607 30.44C10.9365 30.44 8.94 29.9185 7.18727 28.9319C6.90531 28.7733 6.54789 28.8732 6.38922 29.1551C6.23055 29.4371 6.33047 29.7944 6.61242 29.9532C8.54031 31.0383 10.7355 31.6118 12.9607 31.6118C16.0784 31.6118 18.9422 30.5051 21.1806 28.6642H38.5105C39.3318 28.6642 39.9999 27.996 39.9999 27.1748V23.5609C39.9999 23.221 39.8842 22.9083 39.6918 22.6575C39.8842 22.4066 39.9999 22.0939 39.9999 21.7541V18.1401C39.9999 17.8003 39.8842 17.4876 39.6919 17.2367C39.8842 16.9858 39.9999 16.6731 39.9999 16.3333V12.7194C39.9999 12.3794 39.8842 12.0668 39.6918 11.8159C39.8842 11.565 39.9999 11.2523 39.9999 10.9125V7.29866C39.9999 6.95874 39.8842 6.64608 39.6918 6.39515C39.8842 6.14421 39.9999 5.83155 39.9999 5.49163V1.8778H40ZM38.8281 10.9125C38.8281 11.0876 38.6857 11.23 38.5106 11.23H23.5898C22.3217 9.42171 20.6036 7.94757 18.6117 6.98108H38.5105C38.6856 6.98108 38.828 7.12351 38.828 7.29858V10.9125H38.8281ZM38.8281 12.7194V16.3334C38.8281 16.5084 38.6857 16.6509 38.5106 16.6509H25.7685C25.5376 15.1519 25.0473 13.718 24.3209 12.4019H38.5106C38.6857 12.4019 38.8281 12.5444 38.8281 12.7194ZM38.8281 18.1402V21.7541C38.8281 21.9292 38.6857 22.0716 38.5106 22.0716H25.4648C25.8405 20.695 25.985 19.2676 25.8947 17.8227H38.5105C38.6857 17.8227 38.8281 17.9651 38.8281 18.1402ZM38.8281 27.1749C38.8281 27.35 38.6857 27.4924 38.5106 27.4924H22.4366C23.5862 26.2611 24.4869 24.8178 25.0837 23.2434H38.5105C38.6856 23.2434 38.828 23.3859 38.828 23.5609V27.1749H38.8281Z" fill="#47C819"/>
<path d="M23.0989 18.6511C23.0989 13.0609 18.551 8.51294 12.9608 8.51294C7.37064 8.51294 2.82275 13.0609 2.82275 18.6511C2.82275 24.2413 7.37072 28.7893 12.9609 28.7893C18.551 28.7893 23.0989 24.2412 23.0989 18.6511ZM3.99463 18.6511C3.99463 13.7072 8.01681 9.68481 12.9609 9.68481C17.9049 9.68481 21.9271 13.7071 21.9271 18.6511C21.9271 23.5952 17.9049 27.6174 12.9609 27.6174C8.01681 27.6174 3.99463 23.5951 3.99463 18.6511Z" fill="#47C819"/>
<path d="M13.705 25.4092V24.5878H13.7422C15.573 24.5878 17.0625 23.0984 17.0625 21.2675C17.0625 19.4367 15.573 17.9472 13.7422 17.9472H13.705V13.6661C14.9327 13.8032 15.8906 14.847 15.8906 16.1107C15.8906 16.4344 16.1529 16.6967 16.4766 16.6967C16.8002 16.6967 17.0625 16.4344 17.0625 16.1107C17.0625 14.2004 15.5798 12.631 13.705 12.49V11.8936C13.705 11.5699 13.4427 11.3076 13.1191 11.3076C12.7954 11.3076 12.5331 11.5699 12.5331 11.8936V12.4785H12.1797C10.3488 12.4785 8.85938 13.9679 8.85938 15.7988C8.85938 17.6296 10.3488 19.1191 12.1797 19.1191H12.5331V23.416C11.1534 23.4151 10.0312 22.2925 10.0312 20.9125C10.0312 20.5889 9.76898 20.3266 9.44531 20.3266C9.12164 20.3266 8.85938 20.5889 8.85938 20.9125C8.85938 22.9386 10.5073 24.587 12.5331 24.5878V25.4092C12.5331 25.7328 12.7954 25.9951 13.1191 25.9951C13.4427 25.9951 13.705 25.7328 13.705 25.4092ZM12.1796 17.9472C10.995 17.9472 10.0312 16.9834 10.0312 15.7988C10.0312 14.6142 10.995 13.6504 12.1796 13.6504H12.533V17.9472H12.1796ZM13.7421 19.1191C14.9267 19.1191 15.8905 20.0829 15.8905 21.2675C15.8905 22.4521 14.9267 23.416 13.7421 23.416H13.7049V19.1191H13.7421Z" fill="#47C819"/>
</svg>
