<svg width="13" height="13" viewBox="0 0 13 13" fill="none" xmlns="http://www.w3.org/2000/svg">
<path d="M11.2012 9.04801C10.4159 8.37632 9.61892 7.96946 8.84323 8.64013L8.38005 9.04548C8.04116 9.33972 7.41108 10.7145 4.97494 7.91213C2.53931 5.11326 3.98872 4.67748 4.32811 4.38577L4.79383 3.97992C5.56546 3.30772 5.27426 2.46152 4.71773 1.59045L4.38189 1.06284C3.82282 0.193808 3.21404 -0.376924 2.44038 0.294257L2.02235 0.659525C1.68042 0.908618 0.724638 1.7183 0.492794 3.25648C0.213769 5.1021 1.09396 7.21558 3.11055 9.53453C5.1246 11.8545 7.09654 13.0198 8.96448 12.9995C10.5169 12.9828 11.4544 12.1497 11.7476 11.8469L12.1672 11.4811C12.9388 10.8104 12.4594 10.1276 11.6736 9.45437L11.2012 9.04801Z" fill="white"/>
</svg>
