<svg width="12" height="13" viewBox="0 0 12 13" fill="none" xmlns="http://www.w3.org/2000/svg">
<path d="M8.75169 0H3.24828C1.45715 0 0 1.57858 0 3.51898V9.4811C0 11.4214 1.45715 13 3.24828 13H8.75178C10.5428 13 12 11.4214 12 9.4811V3.51898C12 1.57858 10.5428 0 8.75169 0V0ZM5.99999 10.0546C4.19073 10.0546 2.71884 8.46002 2.71884 6.49999C2.71884 4.53995 4.19073 2.94541 5.99999 2.94541C7.80925 2.94541 9.28114 4.53995 9.28114 6.49999C9.28114 8.46002 7.80925 10.0546 5.99999 10.0546ZM9.3596 3.78369C8.82493 3.78369 8.39006 3.31258 8.39006 2.73336C8.39006 2.15413 8.82493 1.68292 9.3596 1.68292C9.89427 1.68292 10.3292 2.15413 10.3292 2.73336C10.3292 3.31258 9.89427 3.78369 9.3596 3.78369Z" fill="white"/>
<path d="M6.00003 3.70752C4.57876 3.70752 3.42236 4.96019 3.42236 6.49999C3.42236 8.03969 4.57876 9.29246 6.00003 9.29246C7.42138 9.29246 8.57769 8.03969 8.57769 6.49999C8.57769 4.96019 7.42138 3.70752 6.00003 3.70752Z" fill="white"/>
<path d="M9.3598 2.44513C9.21313 2.44513 9.09375 2.57446 9.09375 2.73335C9.09375 2.89224 9.21313 3.02157 9.3598 3.02157C9.50656 3.02157 9.62594 2.89234 9.62594 2.73335C9.62594 2.57436 9.50656 2.44513 9.3598 2.44513Z" fill="white"/>
</svg>
