<svg width="139" height="35" viewBox="0 0 139 35" fill="none" xmlns="http://www.w3.org/2000/svg">
<path d="M12.3789 0.510889C11.92 0.746171 10.7936 1.36898 9.87582 1.89491L8.20707 2.84988L8.16535 2.04715C8.13754 1.6181 8.0541 1.17522 7.97066 1.07833C7.78988 0.856893 6.58004 0.843053 6.35754 1.0645C6.24629 1.17522 6.19066 1.71498 6.19066 2.57307C6.19066 4.12317 6.30191 3.95709 4.45238 4.9951C3.06176 5.75631 1.85191 6.42064 1.51816 6.58672C0.739414 6.98808 0.808945 7.94306 1.62941 7.97074C1.87973 7.97074 2.65848 7.98458 3.33988 7.99842L4.59145 8.0261L4.63316 12.3304C4.66098 16.0257 4.68879 16.6624 4.86957 16.7316C4.99473 16.7731 6.13504 16.4686 7.41441 16.0672C8.69379 15.652 10.8354 14.9739 12.1704 14.5587C13.5054 14.1434 15.7304 13.4514 17.1071 13.0086C18.4838 12.5795 20.0552 12.0951 20.5836 11.9429C21.126 11.7768 21.6405 11.583 21.7379 11.5138C21.8491 11.4169 21.9047 10.891 21.9047 9.74228C21.9047 8.52434 21.9464 8.0953 22.0855 8.08146C22.1689 8.06762 22.9755 8.0261 23.8516 7.97074L25.4508 7.8877L25.4925 7.38945L25.5343 6.8912L23.4761 5.74247C22.3497 5.11966 20.9591 4.33077 20.4029 3.99861C19.8466 3.66645 19.3599 3.38964 19.3182 3.38964C19.2764 3.38964 18.5533 2.98828 17.7189 2.49003C16.8846 1.99179 16.1754 1.59042 16.1336 1.59042C16.1058 1.59042 15.5496 1.28594 14.9238 0.912253C14.2841 0.552408 13.6444 0.206406 13.4914 0.151045C13.3107 0.0956841 12.9074 0.234085 12.3789 0.510889ZM10.4182 9.56235C10.5433 9.90836 10.5155 11.5969 10.3625 11.8321C10.2652 11.9982 9.93145 12.0259 8.66598 11.9982C7.80379 11.9705 7.05285 11.9152 6.99723 11.8875C6.85816 11.8045 6.84426 9.56235 6.98332 9.43779C7.02504 9.38243 7.80379 9.34091 8.7077 9.34091C10.0566 9.34091 10.3486 9.38243 10.4182 9.56235Z" fill="white"/>
<path d="M84.8999 16.1084V23.5959L85.2197 23.6651C85.3866 23.7066 86.0958 23.7343 86.7772 23.7066L88.0288 23.6651V16.1914V8.71775L86.4713 8.67623L84.8999 8.63471V16.1084Z" fill="white"/>
<path d="M93.0909 9.39611C91.1023 10.1988 90.1845 11.4721 90.1845 13.4098C90.1845 14.5585 90.4904 15.4027 91.1718 16.0947C91.8811 16.8421 92.6598 17.2158 94.857 17.9355C96.79 18.5583 97.2767 18.8905 97.2767 19.5686C97.2767 20.0807 96.9986 20.3575 96.3311 20.5513C95.6357 20.745 95.2325 20.7312 94.412 20.4821C93.7028 20.2745 92.6876 19.4441 92.6876 19.0704C92.6876 18.6413 92.2148 18.7659 90.9493 19.5271C89.7117 20.2606 89.6143 20.3437 89.6978 20.6758C89.8229 21.2018 90.8798 22.5027 91.5195 22.9179C93.2578 24.0528 95.8443 24.2604 98.0554 23.4439C98.862 23.1394 99.8772 22.2536 100.253 21.5478C100.628 20.8281 100.781 19.5271 100.6 18.5998C100.28 16.9667 99.2375 16.0809 96.6926 15.2367C94.6345 14.5585 93.9948 14.254 93.7167 13.8388C92.9379 12.6486 95.0378 11.7905 96.4562 12.7316C96.7761 12.9392 97.0959 13.2852 97.1793 13.5066C97.2628 13.7281 97.4018 13.908 97.4853 13.908C97.8051 13.908 100.127 12.4271 100.169 12.2057C100.239 11.8735 99.1679 10.5172 98.4587 10.0328C97.0125 9.03627 94.6345 8.75947 93.0909 9.39611Z" fill="white"/>
<path d="M41.9575 16.4961L41.9992 23.6653L43.1812 23.7069C43.8209 23.7345 44.558 23.7207 44.8083 23.6653L45.2672 23.5823V16.4685V9.34078H43.5984H41.9297L41.9575 16.4961Z" fill="white"/>
<path d="M55.0015 11.763V14.1851L54.4174 13.7699C52.9295 12.7319 50.4542 12.9533 48.8967 14.2681C47.0471 15.832 46.5465 19.0014 47.7703 21.382C48.3821 22.586 49.7867 23.5825 51.2051 23.8455C52.4428 24.0669 54.4314 23.6102 54.8207 23.0151C54.8903 22.8905 54.9459 22.9736 55.0015 23.2504L55.071 23.6656L56.3226 23.7071C57.0179 23.7348 57.7132 23.7071 57.894 23.6656L58.2 23.5964V16.4687V9.34102H56.6007H55.0015V11.763ZM53.6665 16.3165C53.9168 16.4272 54.3062 16.7455 54.5287 17.0223C54.8624 17.4652 54.9181 17.659 54.9181 18.4617C54.932 19.6243 54.6121 20.2194 53.7499 20.6484C52.3037 21.382 50.621 20.6346 50.3429 19.126C50.1065 17.9081 50.6349 16.7317 51.5945 16.3165C52.1507 16.0812 53.0824 16.0812 53.6665 16.3165Z" fill="white"/>
<path d="M104.855 10.7947C104.55 10.8915 103.938 11.0853 103.507 11.2099L102.7 11.4313V12.3863V13.3551H101.866H101.031V14.8775V16.3999H101.866H102.7V18.7251C102.7 21.3547 102.867 22.199 103.493 22.7941C104.271 23.5138 104.73 23.6522 106.385 23.6522L107.915 23.666L107.957 22.2682L107.998 20.8565L107.164 20.8011C105.898 20.7181 105.898 20.7042 105.898 18.3929V16.3999H106.941H107.998L107.957 14.9052L107.915 13.4243L106.914 13.3828L105.898 13.3413V11.9711C105.898 10.421 105.912 10.4348 104.855 10.7947Z" fill="white"/>
<path d="M63.832 13.2712C62.3023 13.6448 61.2176 14.4891 60.4806 15.887L59.9382 16.8834V18.5443C59.9382 20.1636 59.9521 20.2189 60.411 21.077C61.301 22.7102 62.7334 23.6513 64.6803 23.8589C66.6689 24.0942 68.2959 23.6236 69.4362 22.5026C69.7561 22.1842 70.0203 21.8797 70.0203 21.8244C70.0203 21.769 69.6031 21.4784 69.0886 21.2016C68.5601 20.9109 68.0456 20.6065 67.9204 20.5234C67.7396 20.3988 67.5311 20.4542 66.947 20.731C65.6676 21.3677 64.1657 21.1462 63.5121 20.2328L63.2062 19.7899L66.8079 19.7484L70.4236 19.7207L70.5209 19.2363C70.6739 18.4059 70.4375 16.9526 70.0203 16.0392C68.9217 13.7556 66.4185 12.6345 63.832 13.2712ZM66.3768 16.1776C66.794 16.399 67.1556 16.7727 67.2807 17.1187C67.3642 17.354 67.2112 17.3679 65.2921 17.3679C64.1101 17.3679 63.2062 17.3125 63.2062 17.2433C63.2062 17.0218 63.9293 16.2468 64.2353 16.1222C64.6942 15.9285 65.9735 15.97 66.3768 16.1776Z" fill="white"/>
<path d="M75.1378 13.3407C72.1201 14.3233 70.7295 17.9356 72.1618 21.0358C73.0935 23.0703 75.249 24.2467 77.3488 23.8592C78.1971 23.707 79.101 23.3056 79.2957 23.0149C79.3653 22.8904 79.4209 22.9734 79.4765 23.2502L79.546 23.6654H81.0757H82.6054L82.6471 18.5031L82.6749 13.3407L81.1174 13.3822L79.546 13.4237L79.4626 13.8389C79.407 14.0604 79.3653 14.1849 79.3513 14.088C79.3513 14.005 79.0037 13.7697 78.5865 13.5621C77.5713 13.0777 76.2224 12.9808 75.1378 13.3407ZM78.1276 16.3163C78.3779 16.4132 78.7673 16.7038 78.9898 16.9391C79.3792 17.3543 79.407 17.4512 79.407 18.4754C79.407 19.721 79.1984 20.1224 78.2806 20.6621C77.2376 21.2711 75.7079 20.8559 75.0821 19.7902C74.9013 19.4995 74.8318 19.0982 74.8457 18.4477C74.8457 17.6726 74.9013 17.4374 75.2073 17.0498C75.8609 16.1918 77.0985 15.8734 78.1276 16.3163Z" fill="white"/>
<path d="M120.416 13.3267C118.901 13.7835 117.719 14.7661 117.093 16.1501C115.535 19.541 117.496 23.2917 121.126 23.8729C122.057 24.0252 123.337 23.8729 124.199 23.5131C127.995 21.9353 128.607 16.5792 125.27 14.1433C123.949 13.1883 122.002 12.8562 120.416 13.3267ZM123.17 16.4823C124.63 17.2158 124.616 19.8039 123.142 20.5513C122.127 21.0634 120.806 20.8004 120.18 19.97C119.791 19.4579 119.638 18.5583 119.805 17.9078C120.194 16.4546 121.793 15.7903 123.17 16.4823Z" fill="white"/>
<path d="M114.604 13.4243C114.312 13.5212 113.825 13.8395 113.533 14.1302L113.005 14.6422L112.963 14.0333L112.921 13.4243L111.35 13.3828L109.792 13.3413L109.82 18.5036L109.862 23.666H111.392H112.921L112.991 20.8703C113.06 18.3099 113.088 18.0469 113.352 17.6871C113.784 17.1196 114.409 16.8013 115.285 16.7183L116.05 16.6352V14.9329V13.2167H115.605C115.355 13.2305 114.91 13.3136 114.604 13.4243Z" fill="white"/>
<path d="M127.703 13.4239C127.634 13.507 128.009 14.4758 129.15 17.1608C129.372 17.6867 129.887 18.9323 130.304 19.9288C130.707 20.9115 131.18 22.0325 131.347 22.4201C131.5 22.7937 131.611 23.2366 131.569 23.3889C131.444 23.8733 130.665 24.5514 130.123 24.6483C129.052 24.8144 129.122 24.7175 129.122 26.323V27.79L130.179 27.707C132.64 27.5271 134.086 26.1015 135.254 22.7245C135.755 21.2852 136.144 20.1779 137.813 15.5277C138.161 14.5588 138.439 13.6731 138.439 13.5624C138.439 13.3963 138.147 13.3547 136.798 13.3547H135.171L134.378 15.9429C133.947 17.3822 133.544 18.7109 133.488 18.9185C133.447 19.1399 133.363 19.306 133.308 19.306C133.224 19.306 132.71 17.9774 131.416 14.3236L131.11 13.4239L129.442 13.3824C128.538 13.3686 127.745 13.3824 127.703 13.4239Z" fill="white"/>
<path d="M19.0538 14.2127C17.4407 14.7387 12.6431 16.2749 9.94524 17.133C6.45477 18.2264 6.46868 18.2264 6.19055 18.8769C6.05149 19.2229 6.12102 19.5274 6.7468 21.4235C7.48383 23.6656 7.78977 24.15 8.45727 24.15C8.76321 24.15 10.0982 23.7486 14.4648 22.3508C15.8415 21.9079 18.3585 21.0913 20.069 20.5515C21.8351 19.9841 23.2952 19.4443 23.4482 19.2921C23.7681 18.9738 23.7959 18.1157 23.5177 17.3268C23.2952 16.7178 23.3787 16.6348 24.2965 16.6209L24.8388 16.6071L25.4646 18.4755C25.8123 19.4997 26.1043 20.5931 26.1182 20.8837L26.146 21.4235L24.5468 22.3784C23.6707 22.9044 22.6416 23.5133 22.2662 23.7071C21.8907 23.9147 21.4874 24.1361 21.3623 24.2192C21.2371 24.2884 20.4584 24.7589 19.6379 25.2433C17.552 26.4751 17.3712 26.7658 17.7606 28.219C17.8996 28.7726 17.8996 28.8695 17.6771 29.1186C17.3016 29.5338 17.3712 30.1289 18.0804 32.288C18.734 34.281 19.0121 34.7377 19.6379 34.8899C20.4027 35.0837 21.3623 34.4609 21.3762 33.7689C21.3762 33.5336 21.0841 32.4264 20.7226 31.2915C20.0551 29.1878 19.6935 28.5788 19.1373 28.5788C18.9426 28.5788 18.8174 28.4127 18.6506 27.956C18.5393 27.61 18.4698 27.2363 18.5115 27.1256C18.581 26.9595 19.2624 26.5166 21.1676 25.4371C21.4179 25.2987 22.447 24.6897 23.4621 24.0946C24.4773 23.4856 25.6593 22.7936 26.0904 22.5445C26.8552 22.0878 27.189 21.6449 27.189 21.0636C27.189 20.8975 26.8413 19.6934 26.4242 18.4063C25.8818 16.7455 25.562 15.9843 25.3395 15.8182C24.9918 15.5414 24.227 15.4999 23.5734 15.7213C23.0449 15.9151 23.0032 15.8597 22.6556 14.7664C22.2384 13.4515 21.6682 13.3547 19.0538 14.2127Z" fill="#47C819"/>
</svg>
