<svg width="39" height="39" viewBox="0 0 39 39" fill="none" xmlns="http://www.w3.org/2000/svg">
<path d="M38.9864 38.2954L33.6977 16.266C33.7707 16.1531 33.8324 16.0321 33.8783 15.9021L35.6754 10.8112C35.9212 10.1146 34.8439 9.73424 34.5979 10.4308L32.8008 15.5218C32.5511 16.2289 31.4573 15.8429 31.707 15.1357L34.8256 6.30062C34.9307 6.00309 34.7746 5.67677 34.4771 5.57172L31.8759 4.65354C31.1688 4.40377 31.5549 3.31009 32.2621 3.55971C33.491 3.99351 34.7199 4.42724 35.9488 4.86104C36.2504 4.96753 36.4091 5.29948 36.3027 5.60105L35.5754 7.66151C35.3295 8.35811 36.407 8.73836 36.6529 8.04184L37.3802 5.98138C37.7145 5.03433 37.1367 4.04538 36.2137 3.7429L36.6727 2.44249C37.0033 1.50603 36.4813 0.431616 35.5548 0.104608C34.6019 -0.231693 33.5533 0.269826 33.2169 1.22259L32.7579 2.52308C30.907 1.68039 29.4517 4.37079 31.0784 5.51551L30.4972 7.16205H7.94253C7.67836 7.16205 7.4487 7.34311 7.387 7.59997L2.24963 28.9987C2.08198 29.6972 3.18602 29.9928 3.36068 29.2654L8.39286 8.30456H30.094L23.3847 27.3117C23.3709 27.3522 23.3603 27.396 23.3556 27.4387L22.9357 31.2115C22.9063 31.4755 23.0628 31.725 23.3133 31.8134L23.7071 31.9524L23.3105 33.0759C23.0713 33.7537 24.1407 34.1565 24.388 33.4562L24.7845 32.3327L25.1783 32.4717C25.4291 32.5554 25.6531 32.4782 25.8501 32.2402L27.8917 29.0398C27.9148 29.0035 27.9341 28.9632 27.9487 28.9227L32.1406 17.0473C32.3276 17.0619 32.5131 17.044 32.6972 16.9932L37.7062 37.8574H1.29794L2.4729 32.9634C2.64527 32.2452 1.53422 31.9784 1.36185 32.6967L0.0177086 38.2954C-0.0249479 38.7099 0.160227 38.9447 0.573233 39H38.4309C38.8439 38.9447 39.0291 38.7099 38.9864 38.2954ZM34.2943 1.60292C34.4209 1.24422 34.8157 1.05547 35.1745 1.18207C35.5578 1.35924 35.6981 1.65258 35.5954 2.06216L35.1364 3.36257L33.8353 2.90333L34.2943 1.60292ZM30.6296 14.7554C30.4101 15.3772 30.6024 16.1502 31.0879 16.5968L27.0615 28.0037L24.6523 27.1533L32.1345 5.95647L33.5581 6.45898L30.6296 14.7554ZM25.1308 31.2432L24.1215 30.887L24.4117 28.28L26.5415 29.0318L25.1308 31.2432Z" fill="#47C819"/>
<path d="M25.6731 14.1294C26.4295 14.1032 26.4289 13.0128 25.6731 12.9868H11.989C11.2325 13.013 11.2331 14.1034 11.989 14.1294H25.6731Z" fill="#47C819"/>
<path d="M10.6562 18.292C10.6562 18.6075 10.912 18.8633 11.2275 18.8633H23.8611C24.6176 18.8371 24.617 17.7467 23.8611 17.7207H11.2275C10.912 17.7207 10.6562 17.9765 10.6562 18.292Z" fill="#47C819"/>
<path d="M9.74219 23.0264C9.74219 23.3419 9.99797 23.5977 10.3135 23.5977H22.2682C23.0247 23.5715 23.024 22.4811 22.2682 22.4551H10.3135C9.99797 22.4551 9.74219 22.7109 9.74219 23.0264Z" fill="#47C819"/>
<path d="M8.99376 33.6829C9.49345 32.8352 10.0055 31.9944 10.5278 31.1606C11.0235 30.3692 11.598 29.0088 12.4097 28.4788C12.9249 28.1425 12.5308 30.616 12.5188 30.8036C12.4706 31.559 12.2965 32.6376 13.1409 33.0487C14.0036 33.4686 15.182 32.4062 15.9256 32.1006C16.0696 32.5186 16.2154 33.0378 16.4345 33.4188C17.1777 34.7108 19.2733 34.2563 20.4238 33.8778C21.1191 33.649 20.8213 32.5453 20.12 32.776C19.4408 32.9995 17.6498 33.5683 17.3131 32.5896C17.102 31.9758 16.9498 30.9635 16.1202 30.9245C15.2036 30.8813 14.4778 31.6275 13.6906 31.9575C13.6197 31.9872 13.7696 29.7286 13.7865 29.5462C13.8639 28.7123 13.8758 27.5776 12.8618 27.3137C12.0758 27.1092 11.4967 27.7127 11.0733 28.2786C9.93494 29.7999 8.97053 31.4715 8.00695 33.1063C7.63302 33.7411 8.62029 34.3166 8.99376 33.6829Z" fill="#47C819"/>
</svg>
