<svg width="36" height="36" viewBox="0 0 36 36" fill="none" xmlns="http://www.w3.org/2000/svg">
<path d="M35.4731 22.7742C35.7644 22.7742 36.0005 22.5381 36.0005 22.2469C36.0005 20.2718 35.0919 18.1732 33.082 17.598C33.8599 16.7664 34.3522 15.4722 34.4449 14.0408H35.4731C35.7644 14.0408 36.0005 13.8047 36.0005 13.5135C36.0005 11.3478 34.9083 9.03247 32.4684 8.74208C32.4477 8.73962 32.4269 8.73836 32.406 8.73836L29.799 8.73829C30.5101 7.90503 30.9579 6.6686 31.046 5.30934H32.0742C32.3655 5.30934 32.6015 5.07324 32.6015 4.78201C32.6015 2.76463 31.4032 0.00610352 29.0071 0.00610352H6.91095C4.49667 0.00610352 3.39067 2.88479 3.39067 4.90533C3.39067 6.43903 3.93776 7.83394 4.77236 8.73765C4.34543 8.73765 3.91512 8.72001 3.48861 8.73878C1.09254 8.7681 0.00102506 11.6257 0.00102506 13.6369C0.00102506 15.4967 0.805036 17.1527 1.9516 17.9754C-0.759955 19.867 -0.509928 25.0293 1.96335 26.717C0.583274 27.6229 -0.0291385 29.448 0.00158755 31.0352C0.0150873 31.7239 1.06948 31.7038 1.05612 31.0148C1.00831 28.5468 2.47838 27.3357 3.54409 27.2589C4.56592 27.2581 5.48602 27.9044 6.02516 28.741C5.38027 28.741 4.73319 28.741 4.0897 28.741C2.46579 28.741 2.21281 30.7444 2.35864 31.9772C2.39014 32.2425 2.61506 32.4424 2.88232 32.4424H5.19289C5.04566 34.4027 4.02382 34.7184 3.72001 34.7827C2.93076 34.9497 2.34584 34.5269 1.87208 33.8606C1.48952 33.3229 0.612734 33.9096 1.01252 34.4718C1.62255 35.3296 2.50882 35.9912 3.82386 35.9912H31.11C31.8004 35.9912 32.4556 35.6996 33.0047 35.1479C33.8278 34.321 34.3492 32.9864 34.4449 31.5075H35.4731C35.7644 31.5075 36.0005 31.2714 36.0005 30.9802C36.0005 29.0051 35.0919 26.9065 33.082 26.3314C33.8598 25.4998 34.3522 24.2055 34.4449 22.7742H35.4731ZM34.9241 21.7195H14.5743C14.3118 20.5235 13.7701 19.3468 12.8378 18.5256H32.3732C33.4793 18.6707 34.7445 19.5953 34.9241 21.7195ZM10.8782 21.0623C11.5505 21.0623 11.8944 22.1536 11.9623 22.6544H10.1704C10.1705 22.2031 10.1948 21.0623 10.8782 21.0623ZM10.8782 20.0076C9.29127 19.9944 9.00292 22.025 9.14713 23.2438C9.17863 23.5092 9.40356 23.7091 9.67081 23.7091H11.9812C11.493 28.1244 7.86416 26.0335 7.84426 22.3701C7.84426 20.2866 8.9729 18.5263 10.309 18.5256C10.4059 18.5273 11.767 18.5775 12.7493 20.0077H10.8782V20.0076ZM7.72937 27.7669C7.53306 28.0637 7.36579 28.389 7.22869 28.7349C6.9712 28.2004 6.62492 27.6869 6.15819 27.2589H8.12059C7.98249 27.4127 7.85164 27.582 7.72937 27.7669ZM4.08963 21.0623C4.76195 21.0623 5.10584 22.1536 5.17376 22.6544H3.38195C3.38202 22.2031 3.40628 21.0623 4.08963 21.0623ZM6.26528 23.2219C6.26528 22.4777 6.12669 21.6983 5.72015 21.0623H6.52522C6.66915 21.4844 6.78959 21.9236 6.78959 22.3702C6.78959 23.9044 7.33696 25.2996 8.17198 26.2033H5.43328C5.89101 25.606 6.26528 24.674 6.26528 23.2219ZM4.08963 12.329C4.7604 12.329 5.10507 13.4213 5.17341 13.9211H3.38195C3.38202 13.4698 3.40628 12.329 4.08963 12.329ZM6.26528 14.4886C6.26528 13.7443 6.12662 12.9649 5.72015 12.329H6.52522C6.66915 12.751 6.78959 13.1903 6.78959 13.6368C6.78959 15.1709 7.33696 16.5662 8.17198 17.4699H5.43328C5.89101 16.8726 6.26528 15.9407 6.26528 14.4886ZM12.7494 11.2743C12.126 11.2743 11.5002 11.2743 10.8782 11.2743C9.25429 11.2743 9.00131 13.2777 9.14713 14.5105C9.17863 14.7759 9.40356 14.9758 9.67081 14.9758H11.9812C11.493 19.3911 7.86416 17.3001 7.84426 13.6368C7.84426 11.5625 8.96306 9.8092 10.2914 9.79303C11.2898 9.83233 12.1977 10.471 12.7494 11.2743ZM10.8782 12.329C11.5505 12.329 11.8944 13.4203 11.9623 13.9211H10.1704C10.1705 13.4698 10.1948 12.329 10.8782 12.329ZM8.11995 9.79303C7.73542 10.2214 7.44032 10.7342 7.22869 11.2682C6.9712 10.7337 6.62492 10.2202 6.15819 9.79226L8.11995 9.79303ZM8.12059 18.5256C7.7357 18.9542 7.44046 19.4672 7.22869 20.0015C6.9712 19.467 6.62492 18.9535 6.15826 18.5256H8.12059ZM32.2572 16.9372C31.9054 17.2906 31.5194 17.4698 31.11 17.4698H12.2222C13.0425 16.5597 13.4566 13.7195 12.5086 12.329H13.2876C13.4244 12.697 13.5382 13.1181 13.6192 13.6007C13.6618 13.8548 13.8817 14.0408 14.1392 14.0408H33.3884C33.2973 15.2302 32.8822 16.3092 32.2572 16.9372ZM34.9241 12.9862H14.5743C14.3119 11.7906 13.7705 10.6142 12.8386 9.79303H32.3732C33.4792 9.93815 34.7443 10.8627 34.9241 12.9862ZM28.9742 1.0607C30.0804 1.20583 31.3456 2.13035 31.5252 4.2546H27.983C27.323 4.2546 27.293 5.30927 27.983 5.30927H29.9895C29.8984 6.49866 29.4833 7.57759 28.8582 8.20561C28.5081 8.55738 28.1241 8.73639 27.7168 8.73808L8.82391 8.73744C9.82571 7.42909 10.0127 5.01003 9.1098 3.59733H9.8899C10.0314 3.9813 10.1423 4.40464 10.2203 4.86912C10.2629 5.12316 10.4828 5.3092 10.7403 5.3092H25.1847C25.8447 5.3092 25.8747 4.25453 25.1847 4.25453H11.1755C10.9076 3.03428 10.4 1.90718 9.43899 1.06063H28.9742V1.0607ZM7.47927 3.5974C8.15166 3.5974 8.49556 4.68877 8.56348 5.18953H6.77159C6.77166 4.73827 6.79592 3.5974 7.47927 3.5974ZM4.44534 4.90526C4.44534 3.48279 5.13123 1.08637 6.91158 1.0607C7.88202 1.0607 8.83031 1.78069 9.35399 2.54273C8.72941 2.54273 8.10252 2.54273 7.47934 2.54273C5.85543 2.54273 5.60245 4.54618 5.74828 5.77895C5.77978 6.04431 6.0047 6.2442 6.27196 6.2442H8.58246C8.51728 7.11163 8.07495 8.72697 6.93422 8.73759C5.50852 8.72134 4.44534 6.70734 4.44534 4.90526ZM1.0557 13.6368C1.0557 12.1667 1.78771 9.73059 3.64512 9.79226C3.98445 9.8066 5.17447 9.95425 6.02509 11.2743C5.3802 11.2743 4.73312 11.2743 4.08963 11.2743C2.46572 11.2743 2.21274 13.2777 2.35857 14.5105C2.39007 14.7759 2.61499 14.9758 2.88225 14.9758H5.19282C5.03546 17.0708 3.87251 17.424 3.66875 17.4699C1.85985 17.5258 1.0557 15.0849 1.0557 13.6368ZM1.0557 22.3701C1.0557 20.2862 2.18483 18.5256 3.52131 18.5256C4.55144 18.5155 5.4818 19.1646 6.02509 20.0076C5.3802 20.0076 4.73312 20.0076 4.08963 20.0076C3.62776 20.0076 3.22677 20.1841 2.93006 20.5181C2.16289 21.3816 2.33635 23.0557 2.35857 23.2438C2.39007 23.5092 2.61499 23.7091 2.88225 23.7091H5.19282C5.12623 24.5956 4.69375 26.1491 3.56173 26.2032C2.12738 26.2032 1.0557 24.1795 1.0557 22.3701ZM3.71853 29.952C3.85121 29.8027 3.99858 29.8167 4.17415 29.7883C4.31097 29.8392 5.0053 30.1586 5.17334 31.3878H3.38195C3.38202 30.8898 3.45606 30.2475 3.71853 29.952ZM7.57251 34.9394C6.86616 34.9438 6.14737 34.9482 5.42611 34.9458C6.25164 34.04 6.67062 31.1894 5.72008 29.7956H6.52515C6.66908 30.2177 6.78952 30.657 6.78952 31.1035C6.78952 32.6372 7.33661 34.0321 8.17121 34.9358C7.97068 34.937 7.77065 34.9381 7.57251 34.9394ZM10.4333 34.9415C8.65228 35.131 7.84426 32.4162 7.84426 31.1035C7.84426 29.02 8.9729 27.2597 10.309 27.259C10.4056 27.2606 11.7669 27.3107 12.7494 28.741C12.126 28.741 11.5002 28.741 10.8782 28.741C10.4163 28.741 10.0153 28.9176 9.71862 29.2516C8.95146 30.1151 9.12491 31.7892 9.14713 31.9773C9.17863 32.2426 9.40356 32.4425 9.67081 32.4425H11.9812C11.8154 34.6485 10.5347 34.9233 10.4333 34.9415ZM10.8782 29.7956C11.5505 29.7956 11.8944 30.887 11.9623 31.3878H10.1704C10.1705 30.9365 10.1948 29.7956 10.8782 29.7956ZM32.2572 34.4039C31.9054 34.7574 31.5194 34.9366 31.11 34.9366H12.2222C13.0425 34.0265 13.4566 31.1863 12.5086 29.7957H13.2876C13.4244 30.1638 13.5382 30.5848 13.6192 31.0675C13.6618 31.3215 13.8817 31.5076 14.1392 31.5076H33.3884C33.2973 32.6969 32.8822 33.7759 32.2572 34.4039ZM34.9241 30.4528H14.5743C14.3118 29.2569 13.7701 28.0801 12.8378 27.2589H32.3732C33.4793 27.4041 34.7445 28.3286 34.9241 30.4528ZM32.2572 25.6705C31.9054 26.024 31.5194 26.2032 31.11 26.2032H12.2222C13.0424 25.2931 13.4567 22.4528 12.5086 21.0623H13.2876C13.4243 21.4303 13.5381 21.8514 13.6192 22.3341C13.6618 22.5881 13.8817 22.7741 14.1392 22.7741H33.3884C33.2973 23.9636 32.8822 25.0426 32.2572 25.6705Z" fill="#47C819"/>
</svg>
