<svg width="33" height="39" viewBox="0 0 33 39" fill="none" xmlns="http://www.w3.org/2000/svg">
<path d="M4.35561 11.8944H20.9286C21.2437 11.8944 21.4991 11.6391 21.4991 11.324C21.4991 11.0089 21.2438 10.7535 20.9286 10.7535H4.35561C4.04056 10.7535 3.78516 11.0089 3.78516 11.324C3.78516 11.639 4.04048 11.8944 4.35561 11.8944Z" fill="#47C819"/>
<path d="M4.35561 15.2063H15.5161C15.8311 15.2063 16.0865 14.951 16.0865 14.6359C16.0865 14.3208 15.8312 14.0654 15.5161 14.0654H4.35561C4.04056 14.0654 3.78516 14.3208 3.78516 14.6359C3.78516 14.951 4.04048 15.2063 4.35561 15.2063Z" fill="#47C819"/>
<path d="M4.35561 18.5182H13.2761C13.5911 18.5182 13.8465 18.2628 13.8465 17.9478C13.8465 17.6327 13.5911 17.3773 13.2761 17.3773H4.35561C4.04056 17.3773 3.78516 17.6327 3.78516 17.9478C3.78516 18.2628 4.04048 18.5182 4.35561 18.5182Z" fill="#47C819"/>
<path d="M4.35561 21.8301H13.2761C13.5911 21.8301 13.8465 21.5748 13.8465 21.2597C13.8465 20.9446 13.5911 20.6892 13.2761 20.6892H4.35561C4.04056 20.6892 3.78516 20.9445 3.78516 21.2597C3.78516 21.5748 4.04048 21.8301 4.35561 21.8301Z" fill="#47C819"/>
<path d="M4.35561 25.1419H13.2761C13.5911 25.1419 13.8465 24.8866 13.8465 24.5714C13.8465 24.2564 13.5911 24.001 13.2761 24.001H4.35561C4.04056 24.001 3.78516 24.2563 3.78516 24.5714C3.78516 24.8866 4.04048 25.1419 4.35561 25.1419Z" fill="#47C819"/>
<path d="M4.35561 28.4539H15.5161C15.8311 28.4539 16.0865 28.1985 16.0865 27.8834C16.0865 27.5684 15.8312 27.313 15.5161 27.313H4.35561C4.04056 27.313 3.78516 27.5684 3.78516 27.8834C3.78516 28.1985 4.04048 28.4539 4.35561 28.4539Z" fill="#47C819"/>
<path d="M4.35561 31.7657H16.6976C17.0126 31.7657 17.268 31.5103 17.268 31.1952C17.268 30.8801 17.0127 30.6248 16.6976 30.6248H4.35561C4.04056 30.6248 3.78516 30.8801 3.78516 31.1952C3.78516 31.5103 4.04048 31.7657 4.35561 31.7657Z" fill="#47C819"/>
<path d="M4.35561 35.0776H16.6976C17.0126 35.0776 17.268 34.8222 17.268 34.5071C17.268 34.192 17.0127 33.9366 16.6976 33.9366H4.35561C4.04056 33.9366 3.78516 34.192 3.78516 34.5071C3.78516 34.8222 4.04048 35.0776 4.35561 35.0776Z" fill="#47C819"/>
<path d="M32.1416 21.9815C32.4034 21.5915 32.7003 21.1496 32.7003 20.5961C32.7003 20.0427 32.4034 19.6008 32.1416 19.2108C31.994 18.9911 31.8547 18.7835 31.8095 18.6145C31.7603 18.4305 31.7771 18.1719 31.7948 17.8983C31.8248 17.4373 31.8587 16.9146 31.5908 16.4515C31.3194 15.9825 30.8461 15.7501 30.4285 15.545C30.1856 15.4257 29.9563 15.3131 29.8265 15.1832C29.6967 15.0535 29.584 14.824 29.4647 14.5812C29.2597 14.1636 29.0273 13.6904 28.5581 13.4189C28.0951 13.1512 27.5724 13.185 27.1114 13.2148C26.8377 13.2327 26.5793 13.2493 26.3952 13.2002C26.2262 13.155 26.0186 13.0157 25.799 12.8681C25.5531 12.703 25.2864 12.5241 24.9842 12.4143V6.75058C24.9842 5.80056 24.2114 5.02765 23.2614 5.02765H18.8652V4.15738C18.8652 3.58869 18.4043 3.12602 17.838 3.12602H15.4859V2.86505C15.486 1.28525 14.2102 0 12.642 0C11.0739 0 9.79806 1.28525 9.79806 2.86505V3.12602H7.44595C6.87961 3.12602 6.41877 3.58869 6.41877 4.15738V5.02765H2.02266C1.07264 5.02765 0.299805 5.80056 0.299805 6.75058V37.2771C0.299805 38.2271 1.07264 39 2.02266 39H6.17243C6.48748 39 6.74288 38.7447 6.74288 38.4295C6.74288 38.1145 6.48755 37.8591 6.17243 37.8591H2.02266C1.70182 37.8591 1.44071 37.5981 1.44071 37.2771V6.75058C1.44071 6.42959 1.70175 6.16855 2.02266 6.16855H6.41884V7.03881C6.41884 7.60751 6.87968 8.07026 7.44602 8.07026H17.8381C18.4044 8.07026 18.8653 7.60751 18.8653 7.03881V6.16855H23.2614C23.5823 6.16855 23.8434 6.42959 23.8434 6.75058V12.4143C23.5411 12.524 23.2743 12.7029 23.0283 12.8681C22.8086 13.0157 22.601 13.155 22.432 13.2002C22.248 13.2494 21.9895 13.2327 21.7158 13.2148C21.2546 13.185 20.732 13.1511 20.2691 13.4189C19.8 13.6904 19.5675 14.1637 19.3624 14.5813C19.2432 14.8241 19.1306 15.0535 19.0008 15.1832C18.871 15.3131 18.6416 15.4256 18.3989 15.5449C17.9812 15.75 17.5078 15.9825 17.2365 16.4515C16.9685 16.9146 17.0024 17.4373 17.0323 17.8983C17.0501 18.172 17.0668 18.4305 17.0176 18.6145C16.9725 18.7835 16.8331 18.9911 16.6855 19.2108C16.4237 19.6007 16.1269 20.0427 16.1269 20.5961C16.1269 21.1496 16.4236 21.5915 16.6855 21.9815C16.8331 22.2011 16.9725 22.4087 17.0176 22.5778C17.0668 22.7618 17.0501 23.0203 17.0323 23.294C17.0024 23.755 16.9684 24.2777 17.2364 24.7408C17.5078 25.2098 17.9811 25.4422 18.3988 25.6473C18.6416 25.7666 18.871 25.8792 19.0007 26.009C19.1305 26.1388 19.2432 26.3682 19.3624 26.611C19.5676 27.0286 19.8 27.5019 20.2691 27.7733C20.4158 27.8582 20.5685 27.9127 20.7235 27.9466V34.1047C20.7235 34.4461 20.8974 34.7562 21.1886 34.9341C21.345 35.0296 21.5197 35.0777 21.695 35.0777C21.8463 35.0777 21.9981 35.0418 22.1389 34.9696L23.8434 34.0959V37.2769C23.8434 37.5979 23.5823 37.8589 23.2614 37.8589H8.81255C8.4975 37.8589 8.24209 38.1143 8.24209 38.4294C8.24209 38.7444 8.4975 38.9998 8.81255 38.9998H23.2614C24.2114 38.9998 24.9842 38.2269 24.9842 37.2769V34.0961L26.6883 34.9695C26.992 35.1252 27.3472 35.112 27.6386 34.934C27.9299 34.7561 28.1038 34.446 28.1038 34.1046V27.9465C28.2586 27.9126 28.4114 27.8581 28.5582 27.7733C29.0273 27.5018 29.2598 27.0284 29.4649 26.6109C29.5841 26.368 29.6967 26.1387 29.8265 26.009C29.9563 25.8792 30.1857 25.7665 30.4284 25.6473C30.846 25.4422 31.3194 25.2098 31.5908 24.7407C31.8588 24.2777 31.8249 23.755 31.7949 23.2938C31.7771 23.0202 31.7605 22.7617 31.8096 22.5777C31.8547 22.4087 31.994 22.2012 32.1416 21.9815ZM17.7243 6.92943H7.55967V4.26684H10.3685C10.6836 4.26684 10.939 4.01144 10.939 3.69639V2.86505C10.939 1.91435 11.703 1.1409 12.642 1.1409C13.5811 1.1409 14.3451 1.91435 14.3451 2.86505V3.69639C14.3451 4.01144 14.6004 4.26684 14.9155 4.26684H17.7243V6.92943ZM26.9629 33.8285L24.857 32.749C24.5793 32.6066 24.2476 32.6066 23.9702 32.749L21.8643 33.8285V27.9683C22.0815 27.9559 22.2817 27.952 22.432 27.9922C22.601 28.0373 22.8086 28.1767 23.0283 28.3243C23.4182 28.5861 23.8601 28.8829 24.4136 28.8829C24.9672 28.8829 25.409 28.5861 25.799 28.3242C26.0187 28.1767 26.2263 28.0373 26.3953 27.9922C26.5456 27.952 26.7457 27.9561 26.9629 27.9684V33.8285H26.9629ZM31.1944 21.3455C31.0013 21.6331 30.8016 21.9305 30.7072 22.2833C30.6097 22.6486 30.6344 23.0307 30.6564 23.3679C30.6767 23.6817 30.6977 24.0062 30.6032 24.1695C30.5054 24.3386 30.2105 24.4835 29.9254 24.6235C29.6245 24.7712 29.2834 24.9387 29.0196 25.2025C28.756 25.4662 28.5885 25.8072 28.4407 26.1082C28.3007 26.3933 28.1559 26.6882 27.9868 26.786C27.8234 26.8805 27.4989 26.8595 27.1852 26.8391C26.8479 26.8172 26.4658 26.7926 26.1006 26.89C25.7478 26.9844 25.4505 27.1841 25.1628 27.3772C24.8957 27.5566 24.6194 27.7422 24.4135 27.7422C24.2076 27.7422 23.9314 27.5566 23.6642 27.3772C23.3765 27.1841 23.0792 26.9844 22.7264 26.89C22.5224 26.8356 22.3133 26.8193 22.1096 26.8193C21.9485 26.8193 21.7907 26.8295 21.6419 26.8391C21.3281 26.8596 21.0037 26.8806 20.8403 26.786C20.6712 26.6882 20.5264 26.3934 20.3863 26.1083C20.2386 25.8073 20.0711 25.4661 19.8073 25.2025C19.5436 24.9388 19.2025 24.7712 18.9016 24.6235C18.6164 24.4835 18.3216 24.3387 18.2238 24.1696C18.1294 24.0063 18.1504 23.6818 18.1707 23.368C18.1927 23.0308 18.2174 22.6486 18.1198 22.2834C18.0255 21.9306 17.8258 21.6332 17.6326 21.3456C17.4532 21.0784 17.2677 20.8022 17.2677 20.5963C17.2677 20.3904 17.4533 20.1142 17.6326 19.847C17.8257 19.5593 18.0255 19.262 18.1198 18.9092C18.2174 18.544 18.1927 18.1617 18.1707 17.8246C18.1504 17.5108 18.1294 17.1864 18.2239 17.023C18.3217 16.8539 18.6165 16.7091 18.9017 16.5691C19.2026 16.4213 19.5438 16.2538 19.8074 15.99C20.0711 15.7263 20.2385 15.3853 20.3863 15.0842C20.5263 14.7991 20.6712 14.5043 20.8403 14.4065C21.0036 14.3121 21.3279 14.333 21.6418 14.3534C21.9792 14.3753 22.3613 14.4 22.7265 14.3025C23.0792 14.2081 23.3767 14.0085 23.6643 13.8152C23.9314 13.6358 24.2076 13.4503 24.4135 13.4503C24.6194 13.4503 24.8957 13.6358 25.1628 13.8152C25.4505 14.0084 25.7479 14.2081 26.1007 14.3025C26.4659 14.4 26.8481 14.3753 27.1854 14.3534C27.4991 14.3331 27.8235 14.312 27.9868 14.4064C28.1559 14.5043 28.3007 14.7991 28.4407 15.0842C28.5887 15.3852 28.7561 15.7264 29.0198 15.9899C29.2835 16.2537 29.6246 16.4211 29.9256 16.5691C30.2107 16.7091 30.5055 16.8539 30.6033 17.023C30.6978 17.1862 30.6768 17.5108 30.6564 17.8244C30.6345 18.1617 30.6097 18.5438 30.7073 18.9091C30.8016 19.2619 31.0013 19.5593 31.1945 19.8469C31.3739 20.1141 31.5595 20.3903 31.5595 20.5962C31.5595 20.8021 31.3739 21.0783 31.1944 21.3455Z" fill="#47C819"/>
<path d="M24.4142 15.6731C23.4698 15.6731 22.5521 15.9414 21.7604 16.4491C21.4951 16.6191 21.418 16.9719 21.5881 17.2371C21.7581 17.5024 22.111 17.5794 22.3761 17.4094C22.9838 17.0199 23.6885 16.8139 24.4142 16.8139C26.4997 16.8139 28.1964 18.5106 28.1964 20.5961C28.1964 22.6816 26.4998 24.3782 24.4142 24.3782C22.3288 24.3782 20.6321 22.6816 20.6321 20.5961C20.6321 20.1206 20.719 19.6574 20.8904 19.219C21.0052 18.9256 20.8604 18.5948 20.5669 18.4801C20.2736 18.3652 19.9426 18.5102 19.828 18.8036C19.6045 19.3749 19.4912 19.978 19.4912 20.5962C19.4912 23.3107 21.6997 25.5192 24.4142 25.5192C27.1287 25.5192 29.3373 23.3107 29.3373 20.5962C29.3373 17.8816 27.1287 15.6731 24.4142 15.6731Z" fill="#47C819"/>
</svg>
