<svg width="14" height="16" viewBox="0 0 14 16" fill="none" xmlns="http://www.w3.org/2000/svg">
<path d="M13.5192 8.10034C13.3539 7.38201 12.7663 6.85213 12.0591 6.77326C10.3847 6.58622 8.68921 6.58534 7.00199 6.58622C5.31406 6.58534 3.6189 6.58622 1.94404 6.77326C1.23718 6.85231 0.649948 7.38219 0.48479 8.10034C0.249405 9.12323 0.246582 10.2398 0.246582 11.293C0.246582 12.3463 0.246582 13.4627 0.481967 14.4856C0.647125 15.2037 1.23435 15.7336 1.94157 15.8126C3.61608 15.9999 5.31124 16.0006 6.99899 15.9999C8.68691 16.0007 10.3817 15.9999 12.0568 15.8126C12.7636 15.7336 13.3512 15.2037 13.5164 14.4856C13.7516 13.4627 13.7528 12.3463 13.7528 11.293C13.7526 10.2396 13.7544 9.12323 13.5192 8.10034ZM4.09903 8.89313H3.12149V14.0875H2.21348V8.89313H1.25376V8.04229H4.09903V8.89313ZM6.56527 14.0877H5.74849V13.5962C5.42399 13.9682 5.11591 14.1496 4.81577 14.1496C4.55268 14.1496 4.37164 14.043 4.28995 13.8149C4.24548 13.6786 4.21795 13.463 4.21795 13.1451V9.58323H5.03404V12.8996C5.03404 13.0909 5.03404 13.1902 5.04145 13.2171C5.06103 13.3437 5.12297 13.408 5.23237 13.408C5.39611 13.408 5.56727 13.2818 5.74831 13.0258V9.58323H6.5651L6.56527 14.0877ZM9.66604 12.7357C9.66604 13.1523 9.63798 13.4524 9.58346 13.6434C9.47441 13.9784 9.25614 14.1496 8.93147 14.1496C8.64104 14.1496 8.36083 13.9883 8.08787 13.6513V14.0878H7.27178V8.04229H8.08787V10.0166C8.35148 9.6921 8.63133 9.528 8.93147 9.528C9.25614 9.528 9.47459 9.69898 9.58346 10.0362C9.63834 10.2174 9.66604 10.5152 9.66604 10.9417V12.7357ZM12.7463 11.9842H11.114V12.7826C11.114 13.1996 11.2504 13.4078 11.5309 13.4078C11.7319 13.4078 11.8489 13.2986 11.8955 13.0805C11.9031 13.0362 11.9138 12.8548 11.9138 12.5275H12.7465V12.6466C12.7465 12.9097 12.7365 13.0909 12.729 13.1724C12.7017 13.3531 12.6375 13.517 12.5385 13.6614C12.3124 13.9885 11.9775 14.1498 11.5512 14.1498C11.1242 14.1498 10.7992 13.9961 10.5633 13.6885C10.3902 13.463 10.3013 13.108 10.3013 12.6293V11.0517C10.3013 10.5701 10.3801 10.2179 10.5536 9.9903C10.7893 9.68204 11.1142 9.52853 11.5311 9.52853C11.9407 9.52853 12.2653 9.68204 12.494 9.9903C12.665 10.2179 12.7467 10.5701 12.7467 11.0517V11.9842H12.7463Z" fill="white"/>
<path d="M11.5238 10.2629C11.251 10.2629 11.1143 10.4713 11.1143 10.8877V11.3045H11.9303V10.8877C11.9302 10.4713 11.7938 10.2629 11.5238 10.2629Z" fill="white"/>
<path d="M8.49496 10.2629C8.36051 10.2629 8.22429 10.3264 8.08789 10.4614V13.2068C8.22411 13.3434 8.36051 13.4079 8.49496 13.4079C8.73035 13.4079 8.84998 13.2068 8.84998 12.8001V10.8775C8.84998 10.4713 8.73035 10.2629 8.49496 10.2629Z" fill="white"/>
<path d="M8.95071 6.17104C9.25156 6.17104 9.56458 5.98824 9.89296 5.61205V6.10858H10.7179V1.55634H9.89296V5.03559C9.71015 5.29391 9.53688 5.42166 9.3719 5.42166C9.26144 5.42166 9.19651 5.35637 9.17851 5.22845C9.16845 5.20145 9.16845 5.10105 9.16845 4.90784V1.55634H8.34619V5.15592C8.34619 5.47742 8.37372 5.69498 8.41924 5.83279C8.50217 6.06341 8.68515 6.17104 8.95071 6.17104Z" fill="white"/>
<path d="M3.20837 3.63453V6.10854H4.12309V3.63453L5.22343 0H4.29848L3.67438 2.39884L3.02504 0H2.0625C2.25536 0.56623 2.45598 1.13528 2.64885 1.70204C2.94228 2.55394 3.12544 3.19622 3.20837 3.63453Z" fill="white"/>
<path d="M6.44904 6.17098C6.86228 6.17098 7.18342 6.01553 7.41122 5.70498C7.58432 5.47718 7.66725 5.11828 7.66725 4.63445V3.0404C7.66725 2.55375 7.58449 2.19802 7.41122 1.96811C7.18342 1.65667 6.86246 1.50122 6.44904 1.50122C6.03791 1.50122 5.71694 1.65667 5.48862 1.96811C5.3134 2.19802 5.23047 2.55375 5.23047 3.0404V4.63445C5.23047 5.11828 5.3134 5.47718 5.48862 5.70498C5.71677 6.01553 6.03791 6.17098 6.44904 6.17098ZM6.05537 2.87506C6.05537 2.45388 6.18313 2.2439 6.44904 2.2439C6.71495 2.2439 6.84234 2.4537 6.84234 2.87506V4.7899C6.84234 5.21109 6.71495 5.42177 6.44904 5.42177C6.18313 5.42177 6.05537 5.21109 6.05537 4.7899V2.87506Z" fill="white"/>
</svg>
