<svg width="34" height="38" viewBox="0 0 34 38" fill="none" xmlns="http://www.w3.org/2000/svg">
<path d="M29.5054 0H4.36488C2.49516 7.42188e-05 0.974121 1.52913 0.974121 3.40857C0.974121 3.71598 1.22327 3.96521 1.53076 3.96521H6.42994V34.0348H1.53076C1.22327 34.0348 0.974121 34.284 0.974121 34.5914C0.974121 36.4709 2.49516 37.9999 4.36488 38H25.0173C25.737 38 25.737 36.8867 25.0173 36.8867H6.77825C7.25488 36.3302 7.54322 35.6076 7.54322 34.8188V3.18116C7.54322 2.39244 7.25488 1.66977 6.77825 1.11328H29.5054C30.8325 1.11328 31.9122 2.20125 31.9122 3.5386V34.4614C31.9122 35.7987 30.8325 36.8867 29.5054 36.8867H27.985C27.2653 36.8867 27.2653 38 27.985 38H29.5054C31.4463 38 33.0255 36.4126 33.0255 34.4614V3.5386C33.0255 1.58739 31.4463 0 29.5054 0ZM4.36495 1.11328C5.3917 1.11328 6.24543 1.86764 6.40345 2.85193H2.15509C2.40261 1.85436 3.29954 1.11328 4.36495 1.11328ZM4.36495 36.8867C3.29954 36.8867 2.40261 36.1456 2.15509 35.1481H6.40345C6.24551 36.1324 5.3917 36.8867 4.36495 36.8867Z" fill="#47C819"/>
<path d="M14.1388 12.867C14.2842 13.3141 14.6378 13.6048 14.9219 13.8383C15.2192 14.0335 15.4147 14.3029 15.5085 14.6463C15.7581 15.2787 16.1139 15.8143 16.8373 15.9502V21.6824C16.8373 22.1025 17.3634 22.428 17.7473 22.1124L19.4943 20.6767L21.2413 22.1124C21.6028 22.4095 22.1514 22.1411 22.1514 21.6824V15.9502C22.8749 15.8142 23.2305 15.2787 23.4802 14.6463C23.5739 14.3029 23.7695 14.0335 24.0667 13.8384C24.8217 13.2176 25.0311 12.5942 24.7901 11.6478C24.6621 11.2993 24.6621 10.9509 24.7901 10.6023C25.0311 9.65603 24.8218 9.03245 24.0667 8.41175C23.7695 8.21656 23.574 7.94729 23.4802 7.60388C23.1211 6.69403 22.5916 6.30587 21.6154 6.24263C21.2616 6.25933 20.9468 6.15751 20.6711 5.937C19.8347 5.40085 19.1539 5.40092 18.3176 5.937C18.0418 6.15751 17.7271 6.25941 17.3732 6.24271C16.3969 6.30602 15.8676 6.69418 15.5084 7.60403C15.4147 7.94752 15.2192 8.21678 14.9218 8.4119C14.1668 9.03267 13.9575 9.65611 14.1985 10.6025C14.3267 10.951 14.3267 11.2995 14.1985 11.6481C14.1046 12.0167 13.9982 12.4347 14.1388 12.867ZM19.8477 19.5262C19.6423 19.3574 19.3463 19.3574 19.141 19.5262L17.9506 20.5044V16.1004C18.0592 16.1479 18.1852 16.2283 18.3176 16.3132C19.1539 16.8494 19.8347 16.8493 20.6711 16.3132C20.8035 16.2283 20.9296 16.1479 21.0381 16.1004V20.5044L19.8477 19.5262ZM15.2774 10.3274C15.141 9.79208 15.2008 9.62367 15.6289 9.27173C16.067 8.91154 16.3357 8.54015 16.544 8.01268C16.7478 7.49671 16.8921 7.38939 17.4454 7.35347C18.0668 7.31317 18.4255 7.19011 18.9185 6.87409C19.3957 6.56808 19.5932 6.56823 20.0704 6.87416C20.5634 7.19011 20.922 7.31317 21.5435 7.35347C22.0966 7.38932 22.2411 7.49671 22.4449 8.01268C22.6531 8.54015 22.9219 8.91154 23.3599 9.27165C23.8072 9.63948 23.8535 9.76996 23.7114 10.3276C23.5685 10.8887 23.5685 11.3614 23.7114 11.9225C23.8478 12.4579 23.788 12.6264 23.3599 12.9784C22.9218 13.3385 22.6531 13.71 22.4448 14.2375C22.2412 14.7535 22.0966 14.8608 21.5434 14.8966C20.9221 14.9369 20.5634 15.06 20.0704 15.3759C19.5931 15.6819 19.3957 15.6819 18.9184 15.3759C18.4255 15.0599 18.0669 14.9368 17.4454 14.8966C16.8922 14.8608 16.7478 14.7534 16.544 14.2374C16.3358 13.71 16.067 13.3384 15.6289 12.9784C15.2008 12.6263 15.141 12.458 15.2775 11.9227C15.4204 11.3614 15.4204 10.8887 15.2774 10.3274Z" fill="#47C819"/>
<path d="M19.4948 14.1684C19.6044 14.1684 19.7173 14.1621 19.8305 14.1496C20.5458 14.0706 20.424 12.9638 19.7083 13.043C18.5865 13.167 17.5677 12.2571 17.5677 11.1252C17.5677 10.0611 18.4322 9.19531 19.4948 9.19531C20.725 9.19531 21.6558 10.3891 21.3673 11.5814C21.1979 12.281 22.28 12.5429 22.4492 11.8434C22.9047 9.96333 21.4282 8.08203 19.4947 8.08203C15.4612 8.24925 15.4628 14.002 19.4948 14.1684Z" fill="#47C819"/>
<path d="M10.6582 25.4336C10.6582 25.741 10.9074 25.9902 11.2148 25.9902H27.7733C28.5103 25.9647 28.5097 24.9022 27.7733 24.877H11.2148C10.9074 24.877 10.6582 25.1262 10.6582 25.4336Z" fill="#47C819"/>
<path d="M28.3302 28.6941C28.3302 28.3867 28.0811 28.1375 27.7736 28.1375H11.2152C10.4781 28.163 10.4787 29.2255 11.2152 29.2507H27.7736C28.0811 29.2507 28.3302 29.0015 28.3302 28.6941Z" fill="#47C819"/>
<path d="M15.1663 31.3979C14.4293 31.4235 14.4299 32.486 15.1663 32.5112H23.8219C24.5589 32.4857 24.5583 31.4232 23.8219 31.3979H15.1663Z" fill="#47C819"/>
</svg>
