<svg width="40" height="40" viewBox="0 0 40 40" fill="none" xmlns="http://www.w3.org/2000/svg">
<path d="M14.908 28.0747C15.1685 28.3351 15.1685 28.757 14.908 29.0174L5.91116 38.0143C5.38682 38.5387 4.68962 38.8274 3.94804 38.8274C3.20646 38.8274 2.50933 38.5387 1.98492 38.0143C1.46058 37.4898 1.17178 36.7926 1.17178 36.0511C1.17178 35.3095 1.46058 34.6124 1.98499 34.088L4.87835 31.1946C5.10716 30.9658 5.10716 30.5949 4.87835 30.366C4.64954 30.1373 4.27856 30.1373 4.04982 30.366L1.15647 33.2594C0.410669 34.0051 0 34.9966 0 36.0511C0 37.1056 0.41067 38.097 1.15639 38.8428C1.90211 39.5885 2.89351 39.9992 3.94804 39.9992C5.00264 39.9992 5.99412 39.5885 6.73968 38.8428L15.7365 29.846C16.0838 29.4988 16.275 29.0371 16.275 28.546C16.275 28.21 16.1855 27.888 16.0177 27.6068L17.9003 25.7242C23.3447 29.4868 30.9372 29.0049 35.8663 24.0755C41.3776 18.5645 41.3779 9.64431 35.8664 4.13273C33.2092 1.47529 29.6434 0.00244141 25.8949 0.00244141C25.0383 0.00251952 24.1776 0.0808725 23.3363 0.235235C23.018 0.293668 22.8074 0.599033 22.8659 0.917288C22.9244 1.23554 23.2293 1.44615 23.5479 1.38772C24.3195 1.24609 25.1092 1.17422 25.895 1.17414C29.3153 1.17414 32.586 2.50911 35.0378 4.96125C40.0909 10.0142 40.0918 18.1934 35.0378 23.2469C30.4209 27.8639 23.2369 28.2362 18.2097 24.5054C18.2025 24.4995 18.1958 24.4932 18.1883 24.4875C17.1668 23.7274 16.2587 22.8148 15.5115 21.8107C15.5059 21.8032 15.4995 21.7964 15.4935 21.7891C10.5321 15.1037 13.1281 5.31615 21.0407 2.1161C21.3407 1.9947 21.4854 1.65324 21.3642 1.35319C21.2429 1.05337 20.9016 0.908461 20.6013 1.0297C12.1216 4.45997 9.24073 14.8144 14.2749 22.0988L12.3923 23.9814C12.1111 23.8138 11.789 23.7242 11.4532 23.7242C10.9621 23.7242 10.5005 23.9155 10.1532 24.2627L5.9831 28.4328C5.75429 28.6617 5.75429 29.0326 5.9831 29.2614C6.21191 29.4901 6.5829 29.4901 6.81163 29.2614L10.9818 25.0912C11.2423 24.8306 11.664 24.8306 11.9246 25.0912L14.908 28.0747ZM15.2291 26.7385L13.2607 24.7702L14.9871 23.0438C15.5568 23.7364 16.2141 24.4022 16.9555 25.0122L15.2291 26.7385Z" fill="#47C819"/>
<path d="M18.6365 21.3619C22.6425 25.3679 29.1477 25.3681 33.1539 21.3619C37.1562 17.3595 37.1562 10.847 33.1539 6.84452C29.1514 2.84219 22.6388 2.84219 18.6365 6.84452C14.6303 10.8506 14.6303 17.3557 18.6365 21.3619ZM25.8952 5.01397C28.2238 5.01397 30.5524 5.90038 32.3253 7.67312C35.8708 11.2187 35.8708 16.9877 32.3253 20.5332C28.7772 24.0815 23.0133 24.0815 19.4651 20.5332C17.7504 18.8187 16.8061 16.5351 16.8061 14.1031C16.8061 9.04207 20.8963 5.01397 25.8952 5.01397Z" fill="#47C819"/>
</svg>
