<svg width="36" height="36" viewBox="0 0 36 36" fill="none" xmlns="http://www.w3.org/2000/svg">
<path d="M23.625 25.0971C23.1461 24.6182 22.486 24.3886 21.813 24.4674C21.1405 24.5461 20.5508 24.9218 20.1954 25.4983L19.169 27.1631C18.8725 27.6439 18.2814 27.8378 17.7635 27.6242C15.7459 26.792 13.9308 25.6078 12.3686 24.1048C12.0753 23.8227 11.7889 23.5268 11.5174 23.2254C11.3225 23.0089 10.989 22.9916 10.7727 23.1865C10.5562 23.3814 10.5389 23.7149 10.7338 23.9313C11.022 24.2513 11.326 24.5654 11.6374 24.8649C13.2952 26.4599 15.2211 27.7163 17.3613 28.5992C18.3595 29.0109 19.4975 28.6398 20.0667 27.7166L20.52 26.9814L26.1346 32.596C24.3233 34.4891 21.6277 35.3483 19.0068 34.7644C15.1408 33.9032 11.1579 31.5752 7.79205 28.2092C4.42584 24.843 2.09772 20.8601 1.23646 16.9939C0.65259 14.3728 1.51174 11.6774 3.40476 9.86626L9.01971 15.4813L8.28522 15.9342C7.36111 16.504 6.99112 17.6446 7.4054 18.6466C7.91208 19.8722 8.55178 21.0444 9.30659 22.1307C9.4728 22.3699 9.8013 22.4291 10.0405 22.2629C10.2796 22.0968 10.3388 21.7681 10.1727 21.529C9.46099 20.5047 8.85785 19.3993 8.38001 18.2436C8.16457 17.7224 8.35744 17.1288 8.83873 16.832L10.5027 15.806C11.0792 15.4505 11.455 14.861 11.5337 14.1883C11.6124 13.5156 11.3828 12.8552 10.904 12.3763L6.83151 8.30377C6.10708 7.57934 4.99214 7.44891 4.12012 7.98659C3.76054 8.20829 3.42255 8.45431 3.1053 8.71974C3.09461 8.7279 3.08421 8.73655 3.07394 8.74562C0.642183 10.7994 -0.497934 14.0587 0.207019 17.2231C1.11124 21.2823 3.54011 25.4488 7.04625 28.9548C10.5521 32.4607 14.7183 34.8894 18.7775 35.7937C19.4007 35.9326 20.0273 35.9999 20.6481 35.9999C23.6058 36.0134 26.4604 34.4239 28.0143 31.8803C28.5519 31.0084 28.4215 29.8934 27.6972 29.169L23.625 25.0971ZM4.67376 8.88413C5.12791 8.60401 5.70855 8.67207 6.08571 9.0493L10.1582 13.1218C10.4077 13.3712 10.5271 13.7152 10.4861 14.0655C10.4452 14.4158 10.2495 14.7228 9.94924 14.9079L9.94235 14.9121L4.21884 9.18851C4.36622 9.08255 4.51746 8.98053 4.67376 8.88413ZM27.1177 31.3247C27.1172 31.3255 27.1167 31.3263 27.1163 31.327C27.0199 31.4833 26.9179 31.6344 26.8119 31.7818L21.0888 26.0587L21.093 26.0518C21.2781 25.7515 21.5852 25.5559 21.9354 25.5149C22.2856 25.4739 22.6298 25.5934 22.8792 25.8428L26.9511 29.9147C27.3279 30.2915 27.3962 30.8709 27.1177 31.3247ZM32.5089 3.37191C30.2576 1.15285 27.2751 -0.0458382 24.1121 0.00134152C21.0432 0.0454978 18.1535 1.27927 15.9756 3.47541C13.7979 5.67134 12.5879 8.57117 12.5685 11.6407C12.547 15.0352 13.9943 18.264 16.5417 20.5086L14.4826 21.7269C14.1226 21.9399 13.9549 22.3541 14.0653 22.7577C14.1758 23.1612 14.531 23.4321 14.9492 23.4321H14.9495L24.4964 23.4298C24.4996 23.4298 24.5029 23.4298 24.5061 23.4298C27.589 23.3725 30.4782 22.1286 32.6415 19.9274C34.8077 17.7233 36.0006 14.8072 36.0006 11.7163C36.0007 8.55486 34.7606 5.59147 32.5089 3.37191ZM31.8893 19.1881C29.9219 21.1901 27.2948 22.3218 24.4913 22.3751L15.4545 22.3773L17.1281 21.3871C17.4072 21.2219 17.5914 20.9307 17.621 20.608C17.6507 20.285 17.5224 19.9648 17.2778 19.7513C14.9356 17.7072 13.6036 14.7534 13.6232 11.6473C13.6409 8.8553 14.7422 6.2169 16.7245 4.21805C18.7069 2.21907 21.3359 1.09604 24.1273 1.05589C24.1802 1.05512 24.2329 1.05476 24.2856 1.05476C27.1055 1.05476 29.7575 2.14081 31.7685 4.12306C33.8176 6.14286 34.946 8.83948 34.946 11.7163C34.946 14.5288 33.8605 17.1824 31.8893 19.1881ZM24.2844 17.3716C23.4121 17.3716 22.7024 18.0812 22.7024 18.9536C22.7024 19.826 23.4121 20.5356 24.2844 20.5356C25.1567 20.5356 25.8664 19.826 25.8664 18.9536C25.8664 18.0812 25.1568 17.3716 24.2844 17.3716ZM24.2844 19.4809C23.9936 19.4809 23.7571 19.2444 23.7571 18.9536C23.7571 18.6628 23.9936 18.4262 24.2844 18.4262C24.5752 18.4262 24.8118 18.6628 24.8118 18.9536C24.8118 19.2444 24.5752 19.4809 24.2844 19.4809ZM24.2844 3.51999C23.7085 3.51999 23.1541 3.76278 22.7634 4.18613C22.3728 4.60948 22.1753 5.18162 22.2216 5.75579L22.4195 8.2123C22.4429 8.50255 22.6961 8.71925 22.9875 8.69555C23.2778 8.67214 23.4942 8.41789 23.4708 8.12757L23.2728 5.67106C23.2498 5.38538 23.3442 5.11201 23.5385 4.90135C23.733 4.69069 23.9978 4.57468 24.2843 4.57468C24.5709 4.57468 24.8359 4.69069 25.0302 4.90135C25.2246 5.11201 25.3189 5.38531 25.2959 5.67099L24.5423 15.0242C24.5315 15.1576 24.4182 15.2622 24.2843 15.2622C24.1504 15.2622 24.0371 15.1576 24.0263 15.0242L23.6337 10.1521C23.6103 9.86183 23.3573 9.64526 23.0658 9.66882C22.7754 9.69223 22.5591 9.94648 22.5825 10.2368L22.9751 15.109C23.0297 15.7863 23.6048 16.3169 24.2843 16.3169C24.9638 16.3169 25.539 15.7863 25.5935 15.1089L26.3472 5.75572C26.3934 5.18155 26.1959 4.60948 25.8053 4.18613C25.4148 3.76278 24.8605 3.51999 24.2844 3.51999Z" fill="#47C819"/>
</svg>
