<svg width="38" height="38" viewBox="0 0 38 38" fill="none" xmlns="http://www.w3.org/2000/svg">
<path d="M37.4062 12.787C37.4062 11.302 36.198 10.0938 34.713 10.0938C33.994 10.0938 33.3171 10.374 32.8088 10.8828L31.049 12.6427L29.0938 14.5979V8.85875C31.1048 8.569 32.6562 6.83941 32.6562 4.75C32.6562 2.45813 30.7919 0.59375 28.5 0.59375H4.75C2.45813 0.59375 0.59375 2.45813 0.59375 4.75V34.4375C0.59375 34.7653 0.85975 35.0312 1.1875 35.0312H4.15625V36.8125C4.15625 37.1403 4.42225 37.4062 4.75 37.4062H28.5C28.8277 37.4062 29.0938 37.1403 29.0938 36.8125V22.2146L34.8573 16.451L35.4671 15.8413C35.1595 17.3731 34.4096 18.7815 33.2803 19.9114L30.4558 22.7359L31.2954 23.5754L34.1198 20.751C35.8049 19.0659 36.7472 16.8405 36.8024 14.4661C37.1866 13.9899 37.4062 13.4081 37.4062 12.787ZM33.6484 11.7224C33.9328 11.438 34.311 11.2812 34.713 11.2812C35.5431 11.2812 36.2188 11.9569 36.2188 12.787C36.2188 13.189 36.062 13.5672 35.7776 13.8516L34.4375 15.1917L32.3083 13.0625L33.6484 11.7224ZM31.4688 13.9021L32.1136 14.5469L24.6406 22.0198L23.9958 21.375L31.4688 13.9021ZM17.3476 29.5705L18.5689 27.1273L20.3727 28.9311L17.9295 30.1524L17.3476 29.5705ZM19.2458 26.125L23.1562 22.2146L25.2854 24.3438L21.375 28.2542L19.2458 26.125ZM28.5 1.78125C30.137 1.78125 31.4688 3.11303 31.4688 4.75C31.4688 6.38697 30.137 7.71875 28.5 7.71875H7.65344C8.42531 6.9635 8.90625 5.91256 8.90625 4.75C8.90625 3.58744 8.42531 2.5365 7.65344 1.78125H28.5ZM5.34375 7.65878V5.9375C5.34375 5.61034 5.61034 5.34375 5.9375 5.34375H7.65878C7.42188 6.50513 6.50513 7.42188 5.34375 7.65878ZM1.78125 33.8438V4.75C1.78125 3.11303 3.11303 1.78125 4.75 1.78125C6.18331 1.78125 7.38269 2.80309 7.65878 4.15625H5.9375C4.95544 4.15625 4.15625 4.95544 4.15625 5.9375V33.8438H1.78125ZM27.9062 36.2188H5.34375V8.90625H27.9062V15.7854L25.2854 18.4062H7.71875V19.5938H24.0979L22.9104 20.7812H7.71875V21.9688H21.7229L17.9865 25.7052C17.9402 25.7515 17.9099 25.8067 17.882 25.8626L17.8754 25.859L16.0942 29.4215C15.9802 29.6501 16.0247 29.9262 16.2058 30.1067L16.3792 30.2812L15.0177 31.6427L15.8573 32.4823L17.2188 31.1208L17.3927 31.2948C17.5067 31.4088 17.6587 31.4688 17.8125 31.4688C17.9022 31.4688 17.9936 31.448 18.0779 31.4064L21.6404 29.6252L21.6368 29.6186C21.6927 29.5907 21.7479 29.5604 21.7942 29.5141L26.5442 24.7641L27.9062 23.4021V36.2188ZM26.125 23.5042L25.4802 22.8594L32.9531 15.3864L33.5979 16.0312L26.125 23.5042Z" fill="#47C819"/>
<path d="M7.71875 11.2812H25.5312V12.4688H7.71875V11.2812Z" fill="#47C819"/>
<path d="M7.71875 13.6562H25.5312V14.8438H7.71875V13.6562Z" fill="#47C819"/>
<path d="M7.71875 16.0312H25.5312V17.2188H7.71875V16.0312Z" fill="#47C819"/>
<path d="M7.71875 30.2812H14.25V31.4688H7.71875V30.2812Z" fill="#47C819"/>
<path d="M7.71875 32.6562H25.5312V33.8438H7.71875V32.6562Z" fill="#47C819"/>
</svg>
