<svg width="20" height="22" viewBox="0 0 20 22" fill="none" xmlns="http://www.w3.org/2000/svg">
<path d="M18.9647 11.1377C18.7373 10.15 17.9294 9.42143 16.957 9.31298C14.6548 9.0558 12.3235 9.05459 10.0035 9.0558C7.68263 9.05459 5.35179 9.0558 3.04884 9.31298C2.07691 9.42167 1.26947 10.1503 1.04238 11.1377C0.718726 12.5442 0.714844 14.0795 0.714844 15.5277C0.714844 16.9759 0.714844 18.5109 1.0385 19.9174C1.26559 20.9048 2.07303 21.6334 3.04545 21.7421C5.3479 21.9995 7.67875 22.0005 9.9994 21.9995C12.3203 22.0008 14.6507 21.9995 16.9538 21.7421C17.9258 21.6334 18.7337 20.9048 18.9608 19.9174C19.2842 18.5109 19.2859 16.9759 19.2859 15.5277C19.2857 14.0792 19.2881 12.5442 18.9647 11.1377ZM6.01195 12.2278H4.66784V19.37H3.41932V12.2278H2.09972V11.0579H6.01195V12.2278ZM9.40304 19.3703H8.27996V18.6946C7.83378 19.206 7.41017 19.4554 6.99747 19.4554C6.63573 19.4554 6.3868 19.3089 6.27447 18.9952C6.21333 18.8079 6.17548 18.5114 6.17548 18.0742V13.1767H7.29759V17.7367C7.29759 17.9997 7.29759 18.1363 7.30778 18.1732C7.33471 18.3474 7.41987 18.4357 7.5703 18.4357C7.79545 18.4357 8.03079 18.2622 8.27972 17.9102V13.1767H9.4028L9.40304 19.3703ZM13.6666 17.5113C13.6666 18.0842 13.628 18.4968 13.553 18.7594C13.4031 19.2201 13.103 19.4554 12.6566 19.4554C12.2572 19.4554 11.8719 19.2337 11.4966 18.7703V19.3705H10.3745V11.0579H11.4966V13.7726C11.8591 13.3264 12.2439 13.1008 12.6566 13.1008C13.103 13.1008 13.4034 13.3358 13.553 13.7995C13.6285 14.0487 13.6666 14.4582 13.6666 15.0446V17.5113ZM17.902 16.478H15.6575V17.5759C15.6575 18.1492 15.8451 18.4355 16.2308 18.4355C16.5072 18.4355 16.668 18.2853 16.7321 17.9854C16.7425 17.9245 16.7573 17.6751 16.7573 17.225H17.9022V17.3888C17.9022 17.7506 17.8884 17.9997 17.8782 18.1118C17.8406 18.3603 17.7523 18.5856 17.6162 18.7841C17.3054 19.2339 16.8449 19.4557 16.2587 19.4557C15.6716 19.4557 15.2247 19.2444 14.9003 18.8215C14.6623 18.5114 14.54 18.0233 14.54 17.365V15.1958C14.54 14.5337 14.6485 14.0494 14.887 13.7364C15.2111 13.3126 15.6578 13.1015 16.2311 13.1015C16.7942 13.1015 17.2406 13.3126 17.5551 13.7364C17.7902 14.0494 17.9025 14.5337 17.9025 15.1958V16.478H17.902Z" fill="#47C819"/>
<path d="M16.2208 14.1113C15.8457 14.1113 15.6577 14.3979 15.6577 14.9704V15.5435H16.7798V14.9704C16.7796 14.3979 16.592 14.1113 16.2208 14.1113Z" fill="#47C819"/>
<path d="M12.0558 14.1113C11.8709 14.1113 11.6836 14.1987 11.4961 14.3843V18.1592C11.6834 18.347 11.8709 18.4358 12.0558 18.4358C12.3795 18.4358 12.544 18.1592 12.544 17.6V14.9564C12.544 14.3979 12.3795 14.1113 12.0558 14.1113Z" fill="#47C819"/>
<path d="M12.6833 8.48487C13.0969 8.48487 13.5273 8.23352 13.9789 7.71625V8.39899H15.1131V2.13965H13.9789V6.92362C13.7275 7.27881 13.4892 7.45447 13.2624 7.45447C13.1105 7.45447 13.0212 7.3647 12.9965 7.1888C12.9827 7.15168 12.9827 7.01363 12.9827 6.74796V2.13965H11.8521V7.08908C11.8521 7.53114 11.8899 7.83029 11.9525 8.01977C12.0665 8.33687 12.3181 8.48487 12.6833 8.48487Z" fill="#47C819"/>
<path d="M4.787 4.99747V8.39924H6.04474V4.99747L7.55771 0H6.2859L5.42775 3.29841L4.53491 0H3.21143C3.47661 0.778566 3.75247 1.56101 4.01765 2.34031C4.42113 3.51167 4.67297 4.39481 4.787 4.99747Z" fill="#47C819"/>
<path d="M9.2434 8.48538C9.81162 8.48538 10.2532 8.27163 10.5664 7.84462C10.8044 7.5314 10.9184 7.03791 10.9184 6.37265V4.18082C10.9184 3.51168 10.8047 3.02256 10.5664 2.70642C10.2532 2.2782 9.81186 2.06445 9.2434 2.06445C8.6781 2.06445 8.23677 2.2782 7.92282 2.70642C7.6819 3.02256 7.56787 3.51168 7.56787 4.18082V6.37265C7.56787 7.03791 7.6819 7.5314 7.92282 7.84462C8.23653 8.27163 8.6781 8.48538 9.2434 8.48538ZM8.70212 3.95349C8.70212 3.37436 8.87777 3.08564 9.2434 3.08564C9.60903 3.08564 9.7842 3.37411 9.7842 3.95349V6.58639C9.7842 7.16553 9.60903 7.45521 9.2434 7.45521C8.87777 7.45521 8.70212 7.16553 8.70212 6.58639V3.95349Z" fill="#47C819"/>
</svg>
