<svg width="17" height="18" viewBox="0 0 17 18" fill="none" xmlns="http://www.w3.org/2000/svg">
<path d="M12.3982 0H4.60174C2.0643 0 0 2.18573 0 4.87243V13.1277C0 15.8142 2.0643 18 4.60174 18H12.3984C14.9357 18 17 15.8142 17 13.1277V4.87243C17 2.18573 14.9357 0 12.3982 0V0ZM8.49998 13.9217C5.93686 13.9217 3.85168 11.7139 3.85168 8.99998C3.85168 6.28609 5.93686 4.07825 8.49998 4.07825C11.0631 4.07825 13.1483 6.28609 13.1483 8.99998C13.1483 11.7139 11.0631 13.9217 8.49998 13.9217ZM13.2594 5.23896C12.502 5.23896 11.8859 4.58665 11.8859 3.78465C11.8859 2.98265 12.502 2.3302 13.2594 2.3302C14.0169 2.3302 14.6331 2.98265 14.6331 3.78465C14.6331 4.58665 14.0169 5.23896 13.2594 5.23896Z" fill="#47C819"/>
<path d="M8.49983 5.13281C6.48638 5.13281 4.84814 6.86728 4.84814 8.99931C4.84814 11.1312 6.48638 12.8658 8.49983 12.8658C10.5134 12.8658 12.1515 11.1312 12.1515 8.99931C12.1515 6.86728 10.5134 5.13281 8.49983 5.13281Z" fill="#47C819"/>
<path d="M13.2597 3.38574C13.0519 3.38574 12.8828 3.56482 12.8828 3.78482C12.8828 4.00482 13.0519 4.1839 13.2597 4.1839C13.4676 4.1839 13.6368 4.00496 13.6368 3.78482C13.6368 3.56468 13.4676 3.38574 13.2597 3.38574Z" fill="#47C819"/>
</svg>
