<svg width="70" height="70" viewBox="0 0 70 70" fill="none" xmlns="http://www.w3.org/2000/svg">
<path d="M26.089 49.1293C26.5449 49.5851 26.5449 50.3233 26.089 50.7791L10.3445 66.5237C9.42694 67.4413 8.20683 67.9466 6.90906 67.9466C5.6113 67.9466 4.39132 67.4413 3.4736 66.5237C2.55602 65.6059 2.05061 64.3857 2.05061 63.0881C2.05061 61.7904 2.55602 60.5704 3.47374 59.6527L8.53711 54.5893C8.93753 54.1887 8.93753 53.5396 8.53711 53.1392C8.1367 52.739 7.48747 52.739 7.08719 53.1392L2.02382 58.2026C0.718672 59.5076 0 61.2427 0 63.0881C0 64.9335 0.718672 66.6685 2.02368 67.9736C3.32869 69.2785 5.06365 69.9972 6.90906 69.9972C8.75461 69.9972 10.4897 69.2785 11.7944 67.9736L27.5389 52.2292C28.1466 51.6215 28.4812 50.8136 28.4812 49.9541C28.4812 49.3662 28.3246 48.8027 28.0311 48.3106L31.3256 45.0161C40.8531 51.6006 54.1401 50.7572 62.766 42.1309C72.4108 32.4866 72.4114 16.8762 62.7661 7.23093C58.1161 2.58041 51.876 0.00292969 45.3161 0.00292969C43.8171 0.0030664 42.3107 0.140184 40.8385 0.410318C40.2816 0.512575 39.9129 1.04697 40.0153 1.60391C40.1176 2.16086 40.6513 2.52942 41.2088 2.42716C42.5591 2.17931 43.9411 2.05354 45.3162 2.05341C51.3018 2.05341 57.0255 4.3896 61.3162 8.68085C70.1591 17.5235 70.1606 31.8371 61.3162 40.6807C53.2366 48.7605 40.6646 49.412 31.8669 42.883C31.8544 42.8728 31.8426 42.8617 31.8295 42.8519C30.0419 41.5216 28.4527 39.9245 27.1452 38.1674C27.1354 38.1542 27.1241 38.1423 27.1136 38.1296C18.4312 26.4301 22.9742 9.30191 36.8212 3.70183C37.3462 3.48938 37.5995 2.89183 37.3873 2.36674C37.175 1.84206 36.5779 1.58846 36.0522 1.80063C21.2128 7.8036 16.1713 25.9239 24.9811 38.6715L21.6865 41.9661C21.1945 41.6728 20.6308 41.5161 20.0431 41.5161C19.1838 41.5161 18.3758 41.8507 17.7682 42.4584L10.4704 49.756C10.07 50.1566 10.07 50.8056 10.4704 51.2061C10.8708 51.6063 11.5201 51.6063 11.9204 51.2061L19.2181 43.9083C19.674 43.4523 20.4121 43.4523 20.868 43.9083L26.089 49.1293ZM26.6509 46.7911L23.2062 43.3465L26.2275 40.3252C27.2243 41.5373 28.3746 42.7026 29.6721 43.77L26.6509 46.7911Z" fill="#47C819"/>
<path d="M32.6135 37.3836C39.624 44.3941 51.0082 44.3944 58.019 37.3836C65.0231 30.3794 65.0231 18.9825 58.019 11.9782C51.0147 4.97408 39.6176 4.97408 32.6135 11.9782C25.6028 18.9888 25.6028 30.3727 32.6135 37.3836ZM45.3163 8.77468C49.3914 8.77468 53.4665 10.3259 56.5689 13.4282C62.7737 19.633 62.7737 29.7288 56.5689 35.9334C50.3598 42.1428 40.273 42.1428 34.0636 35.9334C31.063 32.933 29.4105 28.9366 29.4105 24.6807C29.4105 15.8239 36.5682 8.77468 45.3163 8.77468Z" fill="#47C819"/>
<path d="M45 19V31" stroke="#47C819" stroke-width="2" stroke-linecap="round"/>
<path d="M51 25L39 25" stroke="#47C819" stroke-width="2" stroke-linecap="round"/>
</svg>
