<svg width="38" height="40" viewBox="0 0 38 40" fill="none" xmlns="http://www.w3.org/2000/svg">
<path d="M11.1732 36.2006V34.8621C11.1732 34.1943 10.63 33.6511 9.96227 33.6511H6.03516C5.36742 33.6511 4.82422 34.1943 4.82422 34.8621V36.2006C4.82422 36.8683 5.36742 37.4115 6.03516 37.4115H9.96227C10.63 37.4115 11.1732 36.8683 11.1732 36.2006ZM5.99609 36.2006V34.8621C5.99609 34.8405 6.01359 34.823 6.03516 34.823H9.96227C9.98383 34.823 10.0013 34.8405 10.0013 34.8621V36.2006C10.0013 36.2221 9.98383 36.2396 9.96227 36.2396H6.03516C6.01359 36.2396 5.99609 36.2221 5.99609 36.2006Z" fill="#47C819"/>
<path d="M27.4134 27.1797C26.3766 27.1797 25.5332 28.0231 25.5332 29.0599C25.5332 30.0967 26.3766 30.9401 27.4134 30.9401C28.4501 30.9401 29.2936 30.0966 29.2936 29.0599C29.2936 28.0232 28.4501 27.1797 27.4134 27.1797ZM27.4134 29.7682C27.0228 29.7682 26.7051 29.4505 26.7051 29.0599C26.7051 28.6693 27.0228 28.3516 27.4134 28.3516C27.804 28.3516 28.1217 28.6693 28.1217 29.0599C28.1216 29.4505 27.8039 29.7682 27.4134 29.7682Z" fill="#47C819"/>
<path d="M33.8841 22.0026H33.1759V18.7057V13.5286C33.1759 12.4919 32.3324 11.6484 31.2957 11.6484H30.5873V3.82164C30.5873 3.14172 30.0341 2.58859 29.3542 2.58859H17.7058C17.6852 2.58859 17.665 2.5907 17.6446 2.59172V1.83594C17.6446 0.823594 16.821 0 15.8087 0H5.36586C4.35352 0 3.52992 0.823594 3.52992 1.83594V3.94398C3.52992 4.26758 3.79227 4.52992 4.11586 4.52992C4.43945 4.52992 4.7018 4.26758 4.7018 3.94398V1.83594C4.7018 1.46977 4.99969 1.17188 5.36586 1.17188H6.11844V16.8255H4.7018V6.28773C4.7018 5.96414 4.43945 5.7018 4.11586 5.7018C3.79227 5.7018 3.52992 5.96414 3.52992 6.28773V11.7027C2.89055 11.8211 2.30453 12.1323 1.84047 12.6094C1.26289 13.203 0.946875 13.9788 0.942344 14.8039C0.942109 14.8102 0.941406 14.8165 0.941406 14.8229V36.8255C0.941406 38.5759 2.36547 40 4.11594 40H6.8268C7.15039 40 7.41273 39.7377 7.41273 39.4141C7.41273 39.0905 7.15039 38.8281 6.8268 38.8281H4.11594C3.01172 38.8281 2.11328 37.9298 2.11328 36.8255V17.2591C2.64898 17.6978 3.32789 17.9705 4.06336 17.9947C4.0807 17.9963 31.2955 17.9973 31.2955 17.9973C31.6861 17.9973 32.0038 18.3151 32.0038 18.7056V24.591H24.8241C23.7874 24.591 22.9439 25.4345 22.9439 26.4713V31.6484C22.9439 32.6852 23.7873 33.5286 24.8241 33.5286H32.0038V38.1198C32.0038 38.5103 31.6861 38.8281 31.2955 38.8281H9.17055C8.84695 38.8281 8.58461 39.0905 8.58461 39.4141C8.58461 39.7377 8.84695 40 9.17055 40H31.2956C32.3324 40 33.1758 39.1566 33.1758 38.1198V33.5286H33.8841C35.6344 33.5286 37.0585 32.1045 37.0585 30.3541V25.177C37.0586 23.4266 35.6345 22.0026 33.8841 22.0026ZM2.11406 14.8796C2.09906 14.3334 2.30023 13.8173 2.68039 13.4266C2.92 13.1803 3.21102 13.0039 3.52992 12.907V16.724C2.73023 16.4647 2.13758 15.7362 2.11406 14.8796ZM17.7057 3.76039H29.3541C29.3879 3.76039 29.4154 3.78789 29.4154 3.82156V16.8255H27.9987V7.42539C27.9987 6.99633 27.7064 6.63156 27.288 6.53844C26.9887 6.47172 26.703 6.18586 26.6375 5.88773C26.547 5.47586 26.174 5.17695 25.7505 5.17695H21.3095C20.8804 5.17695 20.5157 5.46922 20.4225 5.88758C20.3558 6.18695 20.0699 6.47266 19.7718 6.5382C19.36 6.62867 19.061 7.00172 19.061 7.42523V16.8255H17.6445V3.82164C17.6445 3.78789 17.672 3.76039 17.7057 3.76039ZM26.8268 16.8255H20.233V7.62352C20.8156 7.42109 21.3044 6.93234 21.5076 6.34898H25.5523C25.7547 6.93156 26.2434 7.42031 26.8268 7.62352V16.8255ZM16.4727 1.83594V3.82164V16.8255H9.87891V1.17188H15.8086C16.1748 1.17188 16.4727 1.46977 16.4727 1.83594ZM7.29039 16.8255V1.17188H8.70703V16.8255H7.29039ZM31.2956 16.8255H30.5873V12.8203H31.2956C31.6862 12.8203 32.0039 13.138 32.0039 13.5286V16.9645C31.7852 16.8752 31.5461 16.8255 31.2956 16.8255ZM35.8867 30.3541C35.8867 31.4584 34.9884 32.3567 33.8841 32.3567H24.8242C24.4337 32.3567 24.1159 32.039 24.1159 31.6484V26.4713C24.1159 26.0808 24.4336 25.763 24.8242 25.763H33.2369C33.5605 25.763 33.8229 25.5006 33.8229 25.177C33.8229 24.8534 33.5605 24.5911 33.2369 24.5911H33.1758V23.1745H33.8841C34.9883 23.1745 35.8866 24.0728 35.8866 25.177V30.3541H35.8867Z" fill="#47C819"/>
<path d="M23.5296 11.6484C22.4929 11.6484 21.6494 12.4919 21.6494 13.5286C21.6494 14.5653 22.4929 15.4088 23.5296 15.4088C24.5664 15.4088 25.4098 14.5654 25.4098 13.5286C25.4099 12.4919 24.5664 11.6484 23.5296 11.6484ZM23.5296 14.237C23.139 14.237 22.8213 13.9192 22.8213 13.5286C22.8213 13.138 23.139 12.8203 23.5296 12.8203C23.9202 12.8203 24.2379 13.138 24.2379 13.5286C24.238 13.9192 23.9202 14.237 23.5296 14.237Z" fill="#47C819"/>
<path d="M23.5303 10.2318C23.8539 10.2318 24.1162 9.96945 24.1162 9.64586V8.35156C24.1162 8.02797 23.8539 7.76562 23.5303 7.76562C23.2067 7.76562 22.9443 8.02797 22.9443 8.35156V9.64586C22.9443 9.96945 23.2067 10.2318 23.5303 10.2318Z" fill="#47C819"/>
<path d="M12.5059 7.64331H13.8444C14.5121 7.64331 15.0553 7.10011 15.0553 6.43237V3.79956C15.0553 3.13183 14.5121 2.58862 13.8444 2.58862H12.5059C11.8381 2.58862 11.2949 3.13183 11.2949 3.79956V6.43237C11.2949 7.10003 11.8381 7.64331 12.5059 7.64331ZM12.4668 3.79948C12.4668 3.77792 12.4843 3.76042 12.5059 3.76042H13.8444C13.8659 3.76042 13.8834 3.77792 13.8834 3.79948V6.4323C13.8834 6.45386 13.8659 6.47136 13.8444 6.47136H12.5059C12.4843 6.47136 12.4668 6.45386 12.4668 6.4323V3.79948Z" fill="#47C819"/>
</svg>
