<svg width="42" height="42" viewBox="0 0 42 42" fill="none" xmlns="http://www.w3.org/2000/svg">
<path d="M20.9995 5.3905C21.3401 5.3905 21.6161 5.11449 21.6161 4.77386V0.61664C21.6161 0.276008 21.3401 0 20.9995 0C20.6588 0 20.3828 0.276008 20.3828 0.61664V4.77386C20.3828 5.11449 20.6588 5.3905 20.9995 5.3905Z" fill="#47C819"/>
<path d="M9.49526 9.79486C9.73616 10.0356 10.1265 10.0356 10.3674 9.79486C10.6082 9.55396 10.6082 9.16359 10.3674 8.92277L7.42771 5.98304C7.18689 5.74239 6.79651 5.74222 6.55561 5.98304C6.3148 6.22394 6.3148 6.61432 6.55561 6.85513L9.49526 9.79486Z" fill="#47C819"/>
<path d="M5.34621 19.8108H1.18891C0.848274 19.8108 0.572266 20.0868 0.572266 20.4274C0.572266 20.7681 0.848274 21.0441 1.18891 21.0441H5.34613C5.68676 21.0441 5.96277 20.7681 5.96277 20.4274C5.96277 20.0868 5.68676 19.8108 5.34621 19.8108Z" fill="#47C819"/>
<path d="M9.49526 31.0601L6.55561 33.9998C6.3148 34.2407 6.3148 34.631 6.55561 34.8719C6.79651 35.1126 7.18681 35.1126 7.42771 34.8719L10.3674 31.9322C10.6082 31.6913 10.6082 31.3009 10.3674 31.0601C10.1265 30.8195 9.73616 30.8195 9.49526 31.0601Z" fill="#47C819"/>
<path d="M32.5049 31.0602C32.264 30.8195 31.8736 30.8195 31.6328 31.0602C31.3919 31.3011 31.3919 31.6915 31.6328 31.9323L34.5724 34.8719C34.8133 35.1127 35.2036 35.1127 35.4445 34.8719C35.6853 34.631 35.6853 34.2407 35.4445 33.9998L32.5049 31.0602Z" fill="#47C819"/>
<path d="M40.811 19.8108H36.6537C36.3131 19.8108 36.0371 20.0868 36.0371 20.4274C36.0371 20.7681 36.3131 21.0441 36.6537 21.0441H40.811C41.1516 21.0441 41.4276 20.7681 41.4276 20.4274C41.4276 20.0868 41.1515 19.8108 40.811 19.8108Z" fill="#47C819"/>
<path d="M34.5724 5.98304L31.6328 8.92277C31.3919 9.16367 31.3919 9.55404 31.6328 9.79486C31.8737 10.0356 32.264 10.0356 32.5049 9.79486L35.4445 6.85513C35.6853 6.61423 35.6853 6.22386 35.4445 5.98304C35.2036 5.74231 34.8132 5.74231 34.5724 5.98304Z" fill="#47C819"/>
<path d="M33.1817 19.1811C33.1817 12.3675 27.7171 6.82422 21 6.82422C18.6471 6.82422 16.3634 7.50606 14.3959 8.79599C12.4817 10.0511 10.9557 11.8167 9.98299 13.902C9.83902 14.2107 9.97255 14.5776 10.2811 14.7216C10.59 14.8657 10.9567 14.732 11.1007 14.4234C12.9045 10.5563 16.7902 8.0575 21 8.0575C27.037 8.0575 31.9484 13.0475 31.9484 19.1811C31.9484 22.0944 30.8475 24.8488 28.8486 26.9365C27.6965 28.1398 26.7158 29.2896 26.4635 30.9006H15.6978C15.3799 29.2281 14.2391 28.0548 13.214 27.0013C11.1747 24.9056 10.0516 22.1282 10.0516 19.1811C10.0516 18.4534 10.1213 17.7256 10.2585 17.0178C10.3234 16.6835 10.1049 16.3599 9.77053 16.295C9.43623 16.2306 9.11262 16.4487 9.04775 16.783C8.89548 17.568 8.81836 18.3748 8.81836 19.1811C8.81836 22.4514 10.0655 25.5341 12.3302 27.8614C13.6308 29.198 14.5515 30.2648 14.5515 31.8286C14.5515 31.834 14.5516 31.8396 14.5517 31.845L14.5871 35.4637C14.5871 36.6377 15.2133 37.6681 16.1492 38.2387V38.9169C16.1492 40.617 17.5323 42.0001 19.2324 42.0001H23.0145C24.7146 42.0001 26.0977 40.617 26.0977 38.9169V38.2387C27.0336 37.6681 27.6598 36.6377 27.6598 35.4637C27.6598 35.4637 27.6555 31.4328 27.6473 31.3926C27.7643 29.9635 28.6305 28.9477 29.7395 27.7894C31.9591 25.4709 33.1817 22.4137 33.1817 19.1811ZM24.8643 38.9169C24.8643 39.9369 24.0344 40.7668 23.0144 40.7668H19.2323C18.2123 40.7668 17.3824 39.9369 17.3824 38.9169V38.6792C17.5303 38.6999 17.6811 38.7113 17.8346 38.7113H24.4121C24.5656 38.7113 24.7164 38.6998 24.8643 38.6792V38.9169ZM24.4121 37.478H17.8346C16.7238 37.478 15.8203 36.5745 15.8203 35.4637V35.4226H22.0689C22.4095 35.4226 22.6855 35.1466 22.6855 34.8059C22.6855 34.4653 22.4095 34.1893 22.0689 34.1893H15.8203V32.1338H26.4074L26.4265 34.1893H24.9465C24.6059 34.1893 24.3299 34.4653 24.3299 34.8059C24.3299 35.1466 24.6059 35.4226 24.9465 35.4226H26.4265V35.4637C26.4265 36.5745 25.5228 37.478 24.4121 37.478Z" fill="#47C819"/>
<path d="M25.0086 19.2626C24.7998 19.5315 24.8485 19.919 25.1175 20.1278C25.3863 20.3367 25.7738 20.288 25.9827 20.0189L27.2035 18.4468C27.5267 18.0306 27.6685 17.5133 27.6027 16.9903C27.5368 16.4673 27.2714 16.0013 26.855 15.678C26.4387 15.3548 25.9212 15.2122 25.3985 15.2789C24.8755 15.3446 24.4095 15.6101 24.0863 16.0265L20.1037 21.1556L17.818 18.6267C17.0883 17.8196 15.838 17.7566 15.0311 18.486C14.64 18.8394 14.4101 19.3239 14.3834 19.8504C14.3569 20.3768 14.5368 20.882 14.8902 21.2731L18.7546 25.5485C19.5325 26.4507 21.0695 26.3954 21.777 25.4355L24.2177 22.2923C24.4265 22.0233 24.3778 21.6359 24.1088 21.4271C23.8399 21.2183 23.4526 21.2669 23.2436 21.536L20.803 24.6792C20.5381 25.0391 19.96 25.0601 19.6696 24.7215L15.8053 20.4461C15.5317 20.1434 15.5554 19.6746 15.8582 19.401C16.1607 19.1277 16.6296 19.151 16.9033 19.4539L19.6823 22.5285C19.9245 22.8094 20.4059 22.7932 20.6268 22.4931L25.0606 16.783C25.298 16.4638 25.7901 16.4019 26.0988 16.6523C26.4181 16.8898 26.4799 17.3815 26.2295 17.6907L25.0086 19.2626Z" fill="#47C819"/>
</svg>
