<svg width="32" height="40" viewBox="0 0 32 40" fill="none" xmlns="http://www.w3.org/2000/svg">
<path d="M18.5178 6.68634H19.4946C20.3185 6.68634 21.016 7.01188 21.5432 7.53899C22.088 8.08384 22.4423 8.84571 22.5531 9.67399C22.7657 11.242 22.9141 12.7924 23.0026 14.3293H29.2525C29.9833 14.3293 30.6456 14.6283 31.1261 15.1089C31.6068 15.5895 31.9058 16.2516 31.9058 16.9825V20.8206C31.9058 21.1439 31.6421 21.4052 31.3189 21.4052C30.9956 21.4052 30.732 21.1439 30.732 20.8206V16.9825C30.732 16.575 30.5659 16.2051 30.2979 15.9372C30.03 15.6691 29.66 15.5031 29.2526 15.5031H23.0603C23.171 18.2848 23.0978 21.0221 22.8897 23.7174C22.7568 25.4227 22.5708 27.1148 22.3404 28.7936H29.2526C29.66 28.7936 30.03 28.6253 30.2979 28.3573C30.5659 28.0892 30.732 27.7194 30.732 27.312V23.4738C30.732 23.1505 30.9956 22.8891 31.3189 22.8891C31.6422 22.8891 31.9058 23.1505 31.9058 23.4738V27.312C31.9058 28.0428 31.6068 28.705 31.1261 29.1856C30.6456 29.6661 29.9833 29.9652 29.2525 29.9652H22.1721C21.8155 32.3527 21.3792 34.7135 20.8941 37.0523C20.7258 37.8695 20.3671 38.6313 19.8245 39.1739C19.3151 39.6833 18.6529 40 17.8424 40H5.36245C4.55409 40 3.89191 39.6833 3.38027 39.1739C2.83988 38.6313 2.48105 37.8695 2.31058 37.0523C1.40917 32.6937 0.669485 28.2598 0.317375 23.7174C-0.037078 19.164 -0.00153124 14.4931 0.65175 9.67391C0.764641 8.84563 1.11902 8.08376 1.66386 7.53891C2.19097 7.0118 2.88636 6.68626 3.71027 6.68626H4.68691V1.86923C4.68691 1.66774 4.78652 1.49055 4.94159 1.38649L6.48738 0.130711C6.70667 -0.0486643 7.01894 -0.0398362 7.22933 0.135164L8.43863 1.11626L9.6523 0.130711C9.87152 -0.0486643 10.1838 -0.0398362 10.3942 0.135164L11.6034 1.11626L12.8171 0.130711C13.0385 -0.0486643 13.3485 -0.0398362 13.559 0.135164L14.7682 1.11626L15.9818 0.130711C16.2033 -0.0486643 16.5157 -0.0398362 16.7238 0.135164L18.3007 1.41532C18.4468 1.53266 18.5177 1.70766 18.5177 1.88923V3.18485C18.5177 3.5104 18.2564 3.77173 17.933 3.77173C17.6096 3.77173 17.3461 3.5104 17.3461 3.18485V2.1461L16.3496 1.33774L15.1425 2.31665C14.9321 2.49384 14.6199 2.50048 14.3983 2.3211L13.1846 1.33774L11.9777 2.31665C11.7673 2.49384 11.455 2.50048 11.2335 2.3211L10.0199 1.33774L8.81285 2.31665C8.60245 2.49384 8.29019 2.50048 8.0687 2.3211L6.85511 1.33774L5.85855 2.1461V11.1888H17.3463V5.84024C17.3463 5.51696 17.6099 5.25337 17.9332 5.25337C18.2565 5.25337 18.5178 5.51696 18.5178 5.84024V6.68634ZM26.2029 23.1992C26.2029 22.8759 26.4643 22.6124 26.7876 22.6124C27.111 22.6124 27.3745 22.8759 27.3745 23.1992V27.3341C27.3745 27.6574 27.1109 27.9188 26.7876 27.9188C26.4643 27.9188 26.2029 27.6574 26.2029 27.3341V23.1992ZM25.0823 17.1552H28.4951C28.8185 17.1552 29.0798 17.4166 29.0798 17.7399V21.1528C29.0798 21.4762 28.8185 21.7397 28.4951 21.7397H25.0823C24.7567 21.7397 24.4954 21.4761 24.4954 21.1528V17.7399C24.4953 17.4166 24.7567 17.1552 25.0823 17.1552ZM27.9082 18.3268H25.667V20.5681H27.9082V18.3268ZM7.31136 7.90438C6.988 7.90438 6.72449 7.64079 6.72449 7.31751C6.72449 6.99415 6.988 6.73282 7.31136 6.73282H15.8956C16.2189 6.73282 16.4803 6.99415 16.4803 7.31751C16.4803 7.64087 16.2189 7.90438 15.8956 7.90438H7.31136ZM7.31136 5.62766C6.988 5.62766 6.72449 5.36634 6.72449 5.04298C6.72449 4.71962 6.988 4.4561 7.31136 4.4561H11.6035C11.9268 4.4561 12.1882 4.7197 12.1882 5.04298C12.1882 5.36634 11.9268 5.62766 11.6035 5.62766H7.31136ZM3.75675 12.3626C3.43339 12.3626 3.16988 12.099 3.16988 11.7757C3.16988 11.4524 3.43339 11.1888 3.75675 11.1888H4.68699V7.8579H3.71034C3.22308 7.8579 2.80675 8.05274 2.49222 8.36727C2.12683 8.73266 1.88761 9.25313 1.81011 9.82891C1.17003 14.5552 1.13683 19.144 1.48456 23.631C1.83222 28.1269 2.56534 32.512 3.45566 36.8196C3.57964 37.4198 3.83433 37.9691 4.20863 38.3433C4.50761 38.6423 4.893 38.8283 5.36253 38.8283H17.8425C18.3119 38.8283 18.6973 38.6423 18.9964 38.3433C19.3728 37.9691 19.6253 37.4198 19.7493 36.8196C20.6507 32.4633 21.3771 28.067 21.7226 23.631C21.9707 20.4285 22.0171 17.2062 21.8113 13.9992C21.7226 12.6216 21.5853 11.2308 21.395 9.82891C21.3175 9.25305 21.0782 8.73259 20.715 8.36727C20.3982 8.05274 19.9841 7.8579 19.4947 7.8579H18.518V11.1888H19.4504C19.7738 11.1888 20.0351 11.4524 20.0351 11.7757C20.0351 12.0991 19.7738 12.3626 19.4504 12.3626C14.2191 12.3626 8.988 12.3626 3.75675 12.3626ZM5.27386 27.757C4.9505 27.757 4.68699 27.4957 4.68699 27.1724C4.68699 26.8491 4.95058 26.5855 5.27386 26.5855H7.66355C7.98683 26.5855 8.24816 26.8491 8.24816 27.1724C8.24816 27.4958 7.98675 27.757 7.66355 27.757H5.27386ZM15.5435 33.6726C15.2202 33.6726 14.9567 33.4112 14.9567 33.0879C14.9567 32.7646 15.2203 32.501 15.5435 32.501H17.9332C18.2566 32.501 18.5179 32.7646 18.5179 33.0879C18.5179 33.4112 18.2566 33.6726 17.9332 33.6726H15.5435ZM10.4076 33.6726C10.0843 33.6726 9.82292 33.4112 9.82292 33.0879C9.82292 32.7646 10.0843 32.501 10.4076 32.501H12.7973C13.1207 32.501 13.3842 32.7646 13.3842 33.0879C13.3842 33.4112 13.1207 33.6726 12.7973 33.6726H10.4076ZM5.27386 33.6726C4.9505 33.6726 4.68699 33.4112 4.68699 33.0879C4.68699 32.7646 4.95058 32.501 5.27386 32.501H7.66355C7.98683 32.501 8.24816 32.7646 8.24816 33.0879C8.24816 33.4112 7.98675 33.6726 7.66355 33.6726H5.27386ZM15.5435 30.7159C15.2202 30.7159 14.9567 30.4524 14.9567 30.1291C14.9567 29.8057 15.2203 29.5444 15.5435 29.5444H17.9332C18.2566 29.5444 18.5179 29.8057 18.5179 30.1291C18.5179 30.4524 18.2566 30.7159 17.9332 30.7159H15.5435ZM10.4076 30.7159C10.0843 30.7159 9.82292 30.4524 9.82292 30.1291C9.82292 29.8057 10.0843 29.5444 10.4076 29.5444H12.7973C13.1207 29.5444 13.3842 29.8057 13.3842 30.1291C13.3842 30.4524 13.1207 30.7159 12.7973 30.7159H10.4076ZM5.27386 30.7159C4.9505 30.7159 4.68699 30.4524 4.68699 30.1291C4.68699 29.8057 4.95058 29.5444 5.27386 29.5444H7.66355C7.98683 29.5444 8.24816 29.8057 8.24816 30.1291C8.24816 30.4524 7.98675 30.7159 7.66355 30.7159H5.27386ZM15.5435 27.757C15.2202 27.757 14.9567 27.4957 14.9567 27.1724C14.9567 26.8491 15.2203 26.5855 15.5435 26.5855H17.9332C18.2566 26.5855 18.5179 26.8491 18.5179 27.1724C18.5179 27.4958 18.2566 27.757 17.9332 27.757H15.5435ZM10.4076 27.757C10.0843 27.757 9.82292 27.4957 9.82292 27.1724C9.82292 26.8491 10.0843 26.5855 10.4076 26.5855H12.7973C13.1207 26.5855 13.3842 26.8491 13.3842 27.1724C13.3842 27.4958 13.1207 27.757 12.7973 27.757H10.4076ZM17.3463 19.8528C17.3463 19.5295 17.6099 19.2659 17.9332 19.2659C18.2565 19.2659 18.5178 19.5295 18.5178 19.8528V22.6212C18.5178 22.9445 18.2565 23.2081 17.9332 23.2081H5.27386C4.9505 23.2081 4.68699 22.9445 4.68699 22.6212V14.4311C4.68699 14.1056 4.95058 13.8442 5.27386 13.8442H17.9332C18.2565 13.8442 18.5178 14.1056 18.5178 14.4311V17.1995C18.5178 17.5229 18.2565 17.7842 17.9332 17.7842C17.6098 17.7842 17.3463 17.5229 17.3463 17.1995V15.0158H5.85855V22.0343H17.3463V19.8528Z" fill="#47C819"/>
</svg>
