<svg width="32" height="40" viewBox="0 0 32 40" fill="none" xmlns="http://www.w3.org/2000/svg">
<path d="M15.9994 3.69482C12.7211 3.69482 9.65004 4.98271 7.35082 7.3224L7.31637 7.35764C7.09074 7.58857 7.09496 7.95865 7.32582 8.18435C7.55668 8.40998 7.92684 8.40576 8.15254 8.1749L8.18582 8.14084C10.2624 6.02771 13.0373 4.86404 15.9994 4.86404C22.0396 4.86404 26.9536 9.77802 26.9536 15.8183C26.9536 21.8585 22.0396 26.7725 15.9994 26.7725C9.95926 26.7725 5.0452 21.8584 5.0452 15.8183C5.0452 13.845 5.57551 11.9108 6.57879 10.2249C6.74387 9.9474 6.65285 9.58865 6.37535 9.42357C6.09777 9.25849 5.7391 9.34959 5.57402 9.62701C4.46316 11.4937 3.87598 13.6347 3.87598 15.8183C3.87598 22.5032 9.31449 27.9418 15.9993 27.9418C22.6842 27.9418 28.1227 22.5032 28.1227 15.8183C28.1227 9.13349 22.6843 3.69482 15.9994 3.69482Z" fill="#47C819"/>
<path d="M30.8073 13.3853C30.4902 12.913 30.1906 12.467 30.0781 12.0459C29.958 11.5966 29.9938 11.0431 30.0319 10.4571C30.0886 9.58297 30.1473 8.67898 29.7007 7.90727C29.2473 7.12352 28.4281 6.72125 27.6359 6.33219C27.1151 6.07641 26.623 5.83477 26.3033 5.515C25.9835 5.19516 25.7419 4.7032 25.486 4.18227C25.097 3.39016 24.6948 2.57102 23.9109 2.11758C23.1392 1.67109 22.2353 1.72977 21.3611 1.78641C20.7751 1.82445 20.2216 1.86039 19.7722 1.74023C19.3512 1.62766 18.9051 1.32812 18.4328 1.01094C17.7274 0.537109 16.9277 0 16 0C15.0723 0 14.2726 0.537109 13.567 1.01102C13.0947 1.3282 12.6487 1.62773 12.2277 1.74023C11.7784 1.86039 11.2248 1.82445 10.6388 1.78641C9.76461 1.72977 8.86078 1.67109 8.08898 2.11758C7.30523 2.57102 6.90297 3.39016 6.51391 4.18227C6.25813 4.7032 6.01648 5.19523 5.69664 5.515C5.37687 5.83477 4.88492 6.07641 4.36398 6.33219C3.5718 6.72117 2.75273 7.12352 2.29922 7.90727C1.85266 8.67898 1.91133 9.58297 1.96805 10.4572C2.00609 11.0431 2.04195 11.5966 1.92188 12.0459C1.8093 12.467 1.50977 12.913 1.19258 13.3853C0.71875 14.0909 0.181641 14.8906 0.181641 15.8183C0.181641 16.7459 0.718672 17.5457 1.19258 18.2513C1.50969 18.7236 1.8093 19.1697 1.9218 19.5907C2.04188 20.04 2.00602 20.5935 1.96797 21.1795C1.91125 22.0537 1.85258 22.9576 2.29914 23.7294C2.75258 24.5131 3.57172 24.9155 4.36391 25.3045C4.88477 25.5602 5.3768 25.8019 5.69656 26.1216C5.99305 26.4181 6.22242 26.8631 6.45813 27.3414L2.21195 35.1531C2.02977 35.4883 2.035 35.8855 2.22602 36.2157C2.41703 36.5459 2.75867 36.7485 3.14 36.7577L6.39633 36.8366L8.23344 39.5263C8.43789 39.8257 8.76945 40 9.12883 40C9.14758 40 9.16648 39.9995 9.18539 39.9986C9.56633 39.9793 9.9025 39.7677 10.0847 39.4325L14.5433 31.2301C14.992 31.4649 15.4755 31.6366 15.9999 31.6366C16.5243 31.6366 17.0078 31.4649 17.4566 31.2301L21.9152 39.4326C22.0973 39.7677 22.4335 39.9794 22.8145 39.9987C22.8334 39.9996 22.8523 40.0001 22.871 40.0001C23.2304 40.0001 23.562 39.8258 23.7664 39.5264L25.6035 36.8366L28.8598 36.7578C29.2411 36.7486 29.5828 36.5459 29.7738 36.2158C29.9648 35.8855 29.97 35.4884 29.7878 35.1532L28.2351 32.2966C28.0809 32.0128 27.7259 31.9077 27.4423 32.0621C27.1586 32.2163 27.0537 32.5713 27.2078 32.8549L28.6957 35.5922L25.5326 35.6688C25.184 35.6772 24.8585 35.8541 24.662 36.142L22.8774 38.7548L18.4518 30.6129C18.917 30.3005 19.3569 30.0073 19.7722 29.8963C20.2215 29.7763 20.775 29.8121 21.361 29.8502C22.2353 29.9069 23.1391 29.9655 23.9109 29.519C24.3194 29.2827 24.6238 28.9466 24.8771 28.5671L25.9216 30.4887C26.0757 30.7723 26.4305 30.8773 26.7144 30.7231C26.9981 30.5689 27.103 30.214 26.9488 29.9303L25.5416 27.3413C25.7773 26.863 26.0066 26.4181 26.3031 26.1216C26.6229 25.8019 27.1148 25.5602 27.6358 25.3045C28.428 24.9155 29.247 24.5131 29.7006 23.7294C30.1471 22.9577 30.0884 22.0537 30.0317 21.1795C29.9937 20.5935 29.9578 20.04 30.0779 19.5906C30.1905 19.1696 30.49 18.7236 30.8071 18.2513C31.2809 17.5457 31.8181 16.7459 31.8181 15.8183C31.8183 14.8906 31.2812 14.0909 30.8073 13.3853ZM9.12242 38.7548L7.33797 36.1421C7.14133 35.8542 6.81586 35.6773 6.46727 35.6688L3.30422 35.5923L7.12274 28.5673C7.37609 28.9466 7.68047 29.2827 8.08898 29.5191C8.86078 29.9655 9.76484 29.907 10.6388 29.8502C11.2248 29.8122 11.7784 29.7763 12.2277 29.8964C12.643 30.0074 13.0829 30.3006 13.548 30.613L9.12242 38.7548ZM29.8366 17.5995C29.4801 18.1305 29.1113 18.6795 28.9485 19.2887C28.7788 19.9237 28.8227 20.6006 28.8652 21.2552C28.9127 21.9875 28.9575 22.6792 28.6887 23.1438C28.4131 23.6202 27.7852 23.9285 27.1205 24.255C26.537 24.5416 25.9335 24.8379 25.4766 25.2949C25.0195 25.7519 24.7232 26.3554 24.4366 26.939C24.1102 27.6037 23.8018 28.2314 23.3256 28.507C22.8609 28.7759 22.1693 28.7309 21.4369 28.6835C20.7823 28.641 20.1055 28.5972 19.4705 28.7669C18.8613 28.9298 18.3123 29.2984 17.7813 29.6551C17.1591 30.0729 16.5716 30.4675 16 30.4675C15.4285 30.4675 14.8409 30.0729 14.2188 29.6551C13.6878 29.2985 13.1388 28.9298 12.5295 28.7669C12.1809 28.6737 11.8198 28.6449 11.4566 28.6449C11.1582 28.6449 10.8584 28.6644 10.5631 28.6836C9.8307 28.731 9.13906 28.776 8.67445 28.5071C8.19813 28.2315 7.88977 27.6037 7.56336 26.939C7.2768 26.3554 6.98039 25.752 6.52336 25.2949C6.06641 24.838 5.46297 24.5416 4.87937 24.255C4.21469 23.9286 3.58688 23.6202 3.31125 23.1438C3.04242 22.6792 3.08727 21.9875 3.13477 21.2552C3.17727 20.6007 3.22117 19.9238 3.05141 19.2888C2.88859 18.6796 2.51984 18.1305 2.1632 17.5995C1.74547 16.9774 1.35086 16.3898 1.35086 15.8184C1.35086 15.2469 1.74547 14.6593 2.1632 14.0372C2.51984 13.5062 2.88852 12.9571 3.05141 12.3479C3.22117 11.7129 3.17727 11.036 3.13477 10.3815C3.08727 9.64914 3.04242 8.95742 3.31125 8.49281C3.58688 8.01648 4.21469 7.70813 4.87937 7.38164C5.46297 7.09508 6.06641 6.79867 6.52336 6.34172C6.98031 5.88477 7.27672 5.28125 7.56336 4.69766C7.88977 4.03305 8.19813 3.40523 8.67445 3.12961C9.13906 2.86086 9.8307 2.9057 10.5631 2.95312C11.2177 2.99563 11.8945 3.03953 12.5295 2.86977C13.1387 2.70688 13.6877 2.3382 14.2188 1.98156C14.8409 1.56375 15.4284 1.16914 16 1.16914C16.5715 1.16914 17.1591 1.56375 17.7812 1.98148C18.3122 2.33812 18.8613 2.70687 19.4705 2.86969C20.1055 3.03945 20.7824 2.99555 21.437 2.95305C22.1693 2.90562 22.861 2.8607 23.3256 3.12953C23.8019 3.40516 24.1102 4.03297 24.4366 4.69758C24.7232 5.28117 25.0196 5.88461 25.4766 6.34164C25.9336 6.79859 26.5371 7.095 27.1206 7.38156C27.7853 7.70797 28.4131 8.01633 28.6887 8.49266C28.9575 8.95727 28.9127 9.64898 28.8652 10.3813C28.8227 11.0358 28.7788 11.7127 28.9485 12.3477C29.1113 12.9569 29.4801 13.506 29.8367 14.037C30.2545 14.6591 30.6491 15.2466 30.6491 15.8181C30.6491 16.3898 30.2545 16.9773 29.8366 17.5995Z" fill="#47C819"/>
<path d="M24.0277 15.2706C24.4227 14.8855 24.5622 14.3204 24.3917 13.7958C24.2212 13.2712 23.7762 12.896 23.2304 12.8167L19.2657 12.2406C19.1779 12.2278 19.102 12.1727 19.0628 12.0931L17.2897 8.50056C17.0456 8.00587 16.5512 7.69861 15.9997 7.69861C15.4481 7.69861 14.9537 8.00587 14.7096 8.50056L12.9365 12.0931C12.8973 12.1727 12.8215 12.2278 12.7336 12.2406L8.76903 12.8167C8.22317 12.896 7.7781 13.2711 7.60763 13.7958C7.43716 14.3204 7.57661 14.8855 7.97169 15.2706L10.8405 18.067C10.9041 18.1289 10.933 18.2181 10.918 18.3055L10.2408 22.2542C10.1475 22.7979 10.3668 23.3371 10.8131 23.6613C11.0653 23.8445 11.3603 23.9375 11.6573 23.9375C11.8859 23.9375 12.1158 23.8824 12.3282 23.7707L15.8742 21.9064C15.9528 21.8652 16.0465 21.8652 16.125 21.9064L19.6711 23.7707C20.1593 24.0274 20.7398 23.9854 21.1861 23.6613C21.6325 23.3371 21.8518 22.7978 21.7585 22.2542L21.0812 18.3055C21.0662 18.2181 21.0952 18.1289 21.1586 18.067L24.0277 15.2706ZM19.929 18.5031L20.6062 22.4518C20.6318 22.6008 20.5397 22.6857 20.499 22.7153C20.4583 22.7449 20.3491 22.8061 20.2153 22.7358L16.6691 20.8715C16.2499 20.6511 15.7494 20.6512 15.3302 20.8715L11.7841 22.7359C11.6504 22.8062 11.5411 22.7449 11.5004 22.7153C11.4597 22.6857 11.3676 22.6008 11.3932 22.4518L12.0704 18.5032C12.1505 18.0365 11.9959 17.5605 11.6567 17.2298L8.78786 14.4334C8.67958 14.3278 8.70411 14.205 8.71966 14.1572C8.73521 14.1093 8.78755 13.9956 8.93716 13.9738L12.9018 13.3977C13.3705 13.3296 13.7754 13.0355 13.985 12.6108L15.7581 9.01822C15.825 8.88267 15.9493 8.86806 15.9997 8.86806C16.0501 8.86806 16.1744 8.88267 16.2414 9.01822L18.0144 12.6108C18.224 13.0355 18.629 13.3297 19.0976 13.3977L23.0623 13.9738C23.2119 13.9956 23.2642 14.1093 23.2798 14.1572C23.2954 14.2051 23.3199 14.3279 23.2117 14.4334L20.3427 17.2299C20.0035 17.5605 19.8489 18.0365 19.929 18.5031Z" fill="#47C819"/>
</svg>
