<svg width="38" height="38" viewBox="0 0 38 38" fill="none" xmlns="http://www.w3.org/2000/svg">
<path d="M5.61343 31.8203C4.56977 31.8203 3.7207 32.6694 3.7207 33.7131C3.7207 34.7568 4.56977 35.6058 5.61343 35.6058C6.65709 35.6058 7.50616 34.7568 7.50616 33.7131C7.50616 32.6694 6.65709 31.8203 5.61343 31.8203ZM5.61343 34.4925C5.18363 34.4925 4.83398 34.1428 4.83398 33.7131C4.83398 33.2833 5.18363 32.9336 5.61343 32.9336C6.04323 32.9336 6.39288 33.2833 6.39288 33.7131C6.39288 34.1428 6.04323 34.4925 5.61343 34.4925Z" fill="#47C819"/>
<path d="M16.5364 31.8203C15.4926 31.8203 14.6436 32.6694 14.6436 33.7131C14.6436 34.7568 15.4926 35.6058 16.5364 35.6058C17.58 35.6058 18.4291 34.7568 18.4291 33.7131C18.4291 32.6694 17.58 31.8203 16.5364 31.8203ZM16.5364 34.4925C16.1065 34.4925 15.7568 34.1428 15.7568 33.7131C15.7568 33.2833 16.1065 32.9336 16.5364 32.9336C16.9662 32.9336 17.3158 33.2833 17.3158 33.7131C17.3158 34.1428 16.9662 34.4925 16.5364 34.4925Z" fill="#47C819"/>
<path d="M35.9183 1.92446H31.2352C30.2801 1.92446 29.4738 2.5712 29.2297 3.44957H28.2636C27.1846 3.44957 26.2674 4.22115 26.0826 5.28403L25.4702 8.80584H22.5233V6.52266C22.5233 6.21517 22.2741 5.96602 21.9666 5.96602C21.6592 5.96602 21.41 6.21517 21.41 6.52266V8.80584H17.4439V6.00046C17.4439 5.0797 16.6948 4.33054 15.774 4.33054H10.3073V1.99267C10.3073 1.6857 10.557 1.43603 10.864 1.43603H20.8534C21.1603 1.43603 21.41 1.6857 21.41 1.99267V3.92501C21.41 4.2325 21.6592 4.48165 21.9666 4.48165C22.2741 4.48165 22.5233 4.2325 22.5233 3.92501V1.99267C22.5233 1.07191 21.7742 0.322754 20.8534 0.322754H10.864C9.94313 0.322754 9.19404 1.07191 9.19404 1.99267V4.33054H5.60403C4.6832 4.33054 3.93412 5.0797 3.93412 6.00046V8.80584H1.41945C0.575737 8.80584 -0.0858448 9.54126 0.00908046 10.3827C0.0674161 10.9047 0.550058 15.2214 0.660569 16.2096C0.694709 16.5152 0.969688 16.7358 1.27562 16.701C1.5811 16.6668 1.80108 16.3915 1.76694 16.086L1.66445 15.1691H4.91974V19.0733H2.10092L2.05558 18.6676C2.02144 18.362 1.74586 18.1418 1.44053 18.1763C1.13505 18.2104 0.915064 18.4858 0.949204 18.7912C1.07345 19.9021 1.42569 23.0527 1.55111 24.175C1.63149 24.8941 2.23786 25.4365 2.96149 25.4365H22.6017L22.2973 27.6462H2.65452C1.76783 27.6462 1.04643 28.3676 1.04643 29.2542C1.04643 30.1409 1.76783 30.8624 2.65452 30.8624H2.86329C2.11577 31.5838 1.64945 32.5948 1.64945 33.7132C1.64945 35.899 3.42773 37.6774 5.6136 37.6774C7.79948 37.6774 9.57775 35.899 9.57775 33.7132C9.57775 32.5947 9.11144 31.5838 8.36391 30.8624H13.7866C13.0391 31.5838 12.5728 32.5948 12.5728 33.7132C12.5728 35.899 14.351 37.6774 16.5369 37.6774C18.7228 37.6774 20.5011 35.899 20.5011 33.7132C20.5011 32.5947 20.0347 31.5838 19.2872 30.8624H21.7166C22.4358 30.8624 23.0522 30.3251 23.1503 29.6126L23.334 28.2787C23.334 28.2786 23.334 28.2786 23.334 28.2785C23.9255 23.9861 23.2786 27.9096 27.1795 5.47477C27.2714 4.94633 27.7273 4.56285 28.2637 4.56285H29.2298C29.4739 5.44115 30.2803 6.08789 31.2353 6.08789H35.9184C37.0663 6.08789 38.0001 5.154 38.0001 4.00614C38.0001 2.85827 37.0661 1.92446 35.9183 1.92446ZM4.91966 24.3231H2.96149C2.80548 24.3231 2.67478 24.2062 2.65749 24.0512L2.22539 20.1865H4.91974V24.3231H4.91966ZM8.4644 33.7132C8.4644 35.2852 7.18555 36.5641 5.61353 36.5641C4.04158 36.5641 2.76265 35.2852 2.76265 33.7132C2.76265 32.1413 4.04151 30.8624 5.61353 30.8624C7.18555 30.8623 8.4644 32.1413 8.4644 33.7132ZM19.3876 33.7132C19.3876 35.2852 18.1088 36.5641 16.5368 36.5641C14.9648 36.5641 13.6859 35.2852 13.6859 33.7132C13.6859 32.1413 14.9647 30.8624 16.5368 30.8624C18.1088 30.8623 19.3876 32.1413 19.3876 33.7132ZM22.0473 29.4607C22.0246 29.6251 21.8824 29.7491 21.7165 29.7491H2.65452C2.38169 29.7491 2.1597 29.5271 2.1597 29.2542C2.1597 28.9814 2.38169 28.7594 2.65452 28.7594H22.1439C22.109 29.013 22.0657 29.3269 22.0473 29.4607ZM4.91966 14.0557H1.53991L1.1153 10.2583C1.11397 10.2469 1.11337 10.2351 1.11337 10.2236C1.11337 10.0557 1.25068 9.91903 1.41945 9.91903H4.91974V14.0557H4.91966ZM5.04739 6.00046C5.04739 5.69349 5.29706 5.44382 5.60403 5.44382H9.75076H15.7741C16.0811 5.44382 16.3307 5.69349 16.3307 6.00046V8.80584H5.04739V6.00046ZM9.93816 24.3231H6.03294V20.1865H9.93816V24.3231ZM9.93816 19.0732H6.03294V15.169H9.93816V19.0732ZM9.93816 14.0557H6.03294V9.91911H9.93816V14.0557ZM14.9567 24.3231H11.0514V20.1865H14.9567V24.3231ZM14.9567 19.0732H11.0514V15.169H14.9567V19.0732ZM14.9567 14.0557H11.0514V9.91911H14.9567V14.0557ZM19.9751 24.3231H16.0699V20.1865H19.9751V24.3231ZM19.9751 19.0732H16.0699V15.169H19.9751V19.0732ZM19.9751 14.0557H16.0699V9.91911H19.9751V14.0557ZM22.771 24.3231H21.0883V20.1865H23.4802L22.771 24.3231ZM23.6711 19.0732H21.0883V15.169H24.3403L23.6711 19.0732ZM24.5312 14.0557H21.0883V9.91911H25.2403L24.5312 14.0557ZM35.9183 4.97461H31.2352C30.7012 4.97461 30.2668 4.54014 30.2668 4.00614C30.2668 3.47221 30.7013 3.03773 31.2352 3.03773H35.9183C36.4523 3.03773 36.8867 3.47221 36.8867 4.00621C36.8867 4.54014 36.4523 4.97461 35.9183 4.97461Z" fill="#47C819"/>
</svg>
