<svg width="38" height="38" viewBox="0 0 38 38" fill="none" xmlns="http://www.w3.org/2000/svg">
<path d="M19.0001 36.9731C15.4454 36.9731 11.9705 35.919 9.01483 33.9441C6.05919 31.9692 3.75555 29.1622 2.39522 25.878C1.03489 22.5939 0.678962 18.9801 1.37245 15.4937C2.06594 12.0073 3.7777 8.80484 6.29127 6.29127C8.80483 3.7777 12.0073 2.06594 15.4937 1.37245C18.9801 0.678962 22.5939 1.03489 25.878 2.39522C29.1622 3.75555 31.9692 6.05919 33.9441 9.01483C35.919 11.9705 36.9731 15.4454 36.9731 19.0001C36.9731 23.7668 35.0795 28.3383 31.7089 31.7089C28.3383 35.0795 23.7668 36.9731 19.0001 36.9731ZM19.0001 2.05413C15.6485 2.05413 12.3722 3.048 9.58542 4.91004C6.79867 6.77209 4.62667 9.41868 3.34407 12.5151C2.06147 15.6116 1.72588 19.0189 2.37975 22.3061C3.03361 25.5933 4.64755 28.6127 7.01749 30.9827C9.38742 33.3526 12.4069 34.9666 15.6941 35.6204C18.9813 36.2743 22.3885 35.9387 25.485 34.6561C28.5815 33.3735 31.2281 31.2015 33.0901 28.4147C34.9522 25.628 35.946 22.3517 35.946 19.0001C35.946 14.5057 34.1607 10.1955 30.9827 7.01749C27.8047 3.83951 23.4944 2.05413 19.0001 2.05413Z" fill="#47C819"/>
<path d="M12.1036 17.5005C12.056 17.508 12.0075 17.508 11.9598 17.5005C11.8951 17.4816 11.8347 17.4501 11.7821 17.4079C11.7295 17.3657 11.6858 17.3135 11.6533 17.2544C11.5879 17.135 11.5725 16.9945 11.6106 16.8637C11.9635 15.6528 12.6083 14.5471 13.4885 13.6436C14.3686 12.7402 15.4572 12.0667 16.6585 11.6824C16.7885 11.6408 16.9298 11.6527 17.0511 11.7153C17.1725 11.7778 17.264 11.8861 17.3055 12.0161C17.347 12.1462 17.3352 12.2874 17.2726 12.4088C17.21 12.5301 17.1018 12.6216 16.9717 12.6632C15.9308 12.996 14.9875 13.5793 14.2247 14.3618C13.4618 15.1444 12.9028 16.1022 12.5966 17.1513C12.5619 17.2541 12.4954 17.3433 12.4069 17.406C12.3183 17.4688 12.2121 17.5018 12.1036 17.5005Z" fill="#47C819"/>
<path d="M16.8173 26.3588C16.7646 26.3666 16.7109 26.3666 16.6581 26.3588C15.488 25.9843 14.4244 25.3355 13.5561 24.4663C12.6878 23.5971 12.04 22.5328 11.6668 21.3623C11.6409 21.2969 11.6286 21.2269 11.6309 21.1566C11.6331 21.0863 11.6498 21.0172 11.6798 20.9536C11.7098 20.89 11.7526 20.8333 11.8055 20.7869C11.8584 20.7405 11.9202 20.7055 11.9872 20.684C12.0541 20.6625 12.1248 20.655 12.1948 20.6619C12.2648 20.6689 12.3326 20.6901 12.394 20.7243C12.4555 20.7585 12.5092 20.805 12.5519 20.8609C12.5947 20.9167 12.6255 20.9808 12.6425 21.049C12.9664 22.0636 13.5284 22.9859 14.2814 23.739C15.0345 24.492 15.9568 25.054 16.9714 25.3779C17.0869 25.4159 17.1852 25.4936 17.2488 25.5972C17.3124 25.7009 17.3372 25.8237 17.3187 25.9439C17.3002 26.0641 17.2397 26.1738 17.1479 26.2535C17.056 26.3333 16.9389 26.3778 16.8173 26.3793V26.3588Z" fill="#47C819"/>
<path d="M25.8966 17.5004C25.782 17.505 25.6692 17.471 25.5761 17.404C25.483 17.337 25.4151 17.2408 25.3831 17.1307C25.0635 16.0576 24.4816 15.0811 23.6899 14.2894C22.8983 13.4978 21.9218 12.9159 20.8487 12.5963C20.784 12.5775 20.7236 12.546 20.671 12.5038C20.6184 12.4616 20.5747 12.4094 20.5423 12.3503C20.5098 12.2911 20.4894 12.2262 20.482 12.1592C20.4747 12.0921 20.4807 12.0243 20.4995 11.9596C20.5184 11.8948 20.5499 11.8345 20.5921 11.7819C20.6343 11.7293 20.6865 11.6855 20.7456 11.6531C20.8047 11.6207 20.8697 11.6002 20.9367 11.5929C21.0037 11.5856 21.0716 11.5915 21.1363 11.6104C22.3784 11.9761 23.5095 12.6463 24.4269 13.5601C25.3443 14.4739 26.0189 15.6024 26.3895 16.8431C26.4216 16.971 26.4032 17.1063 26.3382 17.221C26.2732 17.3358 26.1665 17.4211 26.0404 17.4593C25.995 17.4807 25.9464 17.4946 25.8966 17.5004Z" fill="#47C819"/>
<path d="M21.013 26.41C20.8768 26.4291 20.7386 26.3933 20.6289 26.3104C20.5191 26.2276 20.4467 26.1046 20.4276 25.9684C20.4086 25.8322 20.4444 25.694 20.5272 25.5842C20.61 25.4744 20.733 25.4021 20.8692 25.383C21.9132 25.0812 22.8676 24.5291 23.6498 23.7748C24.4319 23.0204 25.0181 22.0864 25.3573 21.0541C25.3986 20.925 25.4893 20.8175 25.6095 20.7549C25.7298 20.6924 25.8698 20.68 25.9992 20.7203C26.0637 20.7407 26.1236 20.7737 26.1753 20.8173C26.227 20.8609 26.2696 20.9143 26.3006 20.9744C26.3316 21.0345 26.3505 21.1002 26.356 21.1676C26.3616 21.2351 26.3538 21.3029 26.333 21.3673C25.9456 22.5633 25.2713 23.6462 24.369 24.5216C23.4667 25.397 22.3639 26.0383 21.1568 26.3895C21.1103 26.4039 21.0617 26.4108 21.013 26.41Z" fill="#47C819"/>
<path d="M21.7165 4.96566H16.2835C16.1473 4.96566 16.0167 4.91155 15.9204 4.81525C15.8241 4.71895 15.77 4.58834 15.77 4.45214V1.75106C15.77 1.61487 15.8241 1.48426 15.9204 1.38795C16.0167 1.29165 16.1473 1.23755 16.2835 1.23755C16.4197 1.23755 16.5503 1.29165 16.6466 1.38795C16.7429 1.48426 16.797 1.61487 16.797 1.75106V3.93863H21.203V1.75106C21.203 1.61487 21.2571 1.48426 21.3534 1.38795C21.4497 1.29165 21.5803 1.23755 21.7165 1.23755C21.8527 1.23755 21.9833 1.29165 22.0796 1.38795C22.1759 1.48426 22.23 1.61487 22.23 1.75106V4.45214C22.23 4.58834 22.1759 4.71895 22.0796 4.81525C21.9833 4.91155 21.8527 4.96566 21.7165 4.96566Z" fill="#47C819"/>
<path d="M21.7165 36.7623C21.5803 36.7623 21.4497 36.7082 21.3534 36.6119C21.2571 36.5156 21.203 36.385 21.203 36.2488V34.0612H16.797V36.2488C16.797 36.385 16.7429 36.5156 16.6466 36.6119C16.5503 36.7082 16.4197 36.7623 16.2835 36.7623C16.1473 36.7623 16.0167 36.7082 15.9204 36.6119C15.8241 36.5156 15.77 36.385 15.77 36.2488V33.5477C15.77 33.4115 15.8241 33.2809 15.9204 33.1846C16.0167 33.0883 16.1473 33.0342 16.2835 33.0342H21.7165C21.8527 33.0342 21.9833 33.0883 22.0796 33.1846C22.1759 33.2809 22.23 33.4115 22.23 33.5477V36.2488C22.23 36.385 22.1759 36.5156 22.0796 36.6119C21.9833 36.7082 21.8527 36.7623 21.7165 36.7623Z" fill="#47C819"/>
<path d="M36.249 22.23H33.5479C33.4117 22.23 33.2811 22.1759 33.1848 22.0796C33.0885 21.9833 33.0344 21.8527 33.0344 21.7165V16.2835C33.0344 16.1473 33.0885 16.0167 33.1848 15.9204C33.2811 15.8241 33.4117 15.77 33.5479 15.77H36.249C36.3852 15.77 36.5158 15.8241 36.6121 15.9204C36.7084 16.0167 36.7625 16.1473 36.7625 16.2835C36.7625 16.4197 36.7084 16.5503 36.6121 16.6466C36.5158 16.7429 36.3852 16.797 36.249 16.797H34.0615V21.203H36.249C36.3852 21.203 36.5158 21.2571 36.6121 21.3534C36.7084 21.4497 36.7625 21.5803 36.7625 21.7165C36.7625 21.8527 36.7084 21.9833 36.6121 22.0796C36.5158 22.1759 36.3852 22.23 36.249 22.23Z" fill="#47C819"/>
<path d="M4.45214 22.23H1.75106C1.61487 22.23 1.48426 22.1759 1.38795 22.0796C1.29165 21.9833 1.23755 21.8527 1.23755 21.7165C1.23755 21.5803 1.29165 21.4497 1.38795 21.3534C1.48426 21.2571 1.61487 21.203 1.75106 21.203H3.93863V16.797H1.75106C1.61487 16.797 1.48426 16.7429 1.38795 16.6466C1.29165 16.5503 1.23755 16.4197 1.23755 16.2835C1.23755 16.1473 1.29165 16.0167 1.38795 15.9204C1.48426 15.8241 1.61487 15.77 1.75106 15.77H4.45214C4.58834 15.77 4.71895 15.8241 4.81525 15.9204C4.91155 16.0167 4.96566 16.1473 4.96566 16.2835V21.7165C4.96566 21.8527 4.91155 21.9833 4.81525 22.0796C4.71895 22.1759 4.58834 22.23 4.45214 22.23Z" fill="#47C819"/>
<path d="M19.0001 34.0614C18.8639 34.0614 18.7333 34.0073 18.637 33.911C18.5407 33.8147 18.4866 33.6841 18.4866 33.5479V4.45223C18.4866 4.31604 18.5407 4.18543 18.637 4.08913C18.7333 3.99282 18.8639 3.93872 19.0001 3.93872C19.1363 3.93872 19.2669 3.99282 19.3632 4.08913C19.4595 4.18543 19.5136 4.31604 19.5136 4.45223V33.5479C19.5136 33.6841 19.4595 33.8147 19.3632 33.911C19.2669 34.0073 19.1363 34.0614 19.0001 34.0614Z" fill="#47C819"/>
<path d="M33.5477 19.5136H4.45199C4.3158 19.5136 4.18518 19.4595 4.08888 19.3632C3.99258 19.2669 3.93848 19.1363 3.93848 19.0001C3.93848 18.8639 3.99258 18.7333 4.08888 18.637C4.18518 18.5407 4.3158 18.4866 4.45199 18.4866H33.5477C33.6839 18.4866 33.8145 18.5407 33.9108 18.637C34.0071 18.7333 34.0612 18.8639 34.0612 19.0001C34.0612 19.1363 34.0071 19.2669 33.9108 19.3632C33.8145 19.4595 33.6839 19.5136 33.5477 19.5136Z" fill="#47C819"/>
</svg>
