<svg width="250" height="250" viewBox="0 0 250 250" fill="none" xmlns="http://www.w3.org/2000/svg">
<rect width="250" height="250" fill="#F4F4F4"/>
<rect width="250" height="250" fill="white"/>
<path d="M108.2 2.66643C104.893 4.35346 96.7757 8.81915 90.1617 12.5902L78.1363 19.4376L77.8357 13.6818C77.6353 10.6054 77.034 7.42982 76.4328 6.73516C75.13 5.14736 66.4116 5.04813 64.8082 6.63593C64.0065 7.42982 63.6057 11.3001 63.6057 17.4528C63.6057 28.5674 64.4074 27.3766 51.0792 34.8194C41.0581 40.2775 32.3396 45.0408 29.9346 46.2317C24.3227 49.1096 24.8238 55.957 30.7363 56.1555C32.5401 56.1555 38.1519 56.2547 43.0623 56.3539L52.0813 56.5524L52.382 87.4153C52.5824 113.912 52.7828 118.477 54.0856 118.973C54.9875 119.271 63.2048 117.087 72.4243 114.209C81.6438 111.232 97.0763 106.37 106.697 103.393C116.317 100.415 132.351 95.4535 142.272 92.2779C152.193 89.2015 163.517 85.7282 167.325 84.6366C171.233 83.4458 174.941 82.0564 175.642 81.5603C176.444 80.8656 176.845 77.0946 176.845 68.8579C176.845 60.125 177.145 57.0486 178.148 56.9494C178.749 56.8501 184.561 56.5524 190.874 56.1555L202.399 55.56L202.699 51.9875L203 48.4149L188.169 40.1782C180.052 35.7125 170.03 30.056 166.022 27.6743C162.013 25.2926 158.506 23.3078 158.205 23.3078C157.905 23.3078 152.694 20.4299 146.681 16.8574C140.668 13.2848 135.558 10.407 135.257 10.407C135.057 10.407 131.048 8.22372 126.539 5.54431C121.929 2.96414 117.319 0.4832 116.217 0.0862503C114.914 -0.310699 112.008 0.681679 108.2 2.66643ZM94.07 67.5678C94.9719 70.0487 94.7715 82.1557 93.6692 83.8427C92.9677 85.0336 90.5626 85.232 81.4433 85.0336C75.2302 84.8351 69.8188 84.4381 69.4179 84.2397C68.4158 83.6442 68.3156 67.5678 69.3177 66.6746C69.6184 66.2777 75.2302 65.98 81.744 65.98C91.4645 65.98 93.5689 66.2777 94.07 67.5678Z" fill="#082640"/>
<path d="M156.281 101.002C144.637 104.786 110.008 115.837 90.5355 122.009C65.3415 129.874 65.4419 129.874 63.4344 134.554C62.4306 137.042 62.9325 139.233 67.4494 152.872C72.7692 169.001 74.9775 172.485 79.7954 172.485C82.0037 172.485 91.6396 169.598 123.157 159.543C133.094 156.357 151.262 150.483 163.608 146.6C176.356 142.518 186.895 138.635 187.999 137.54C190.308 135.25 190.509 129.078 188.501 123.403C186.895 119.022 187.497 118.425 194.122 118.326L198.037 118.226L202.554 131.666C205.063 139.034 207.171 146.899 207.271 148.989L207.472 152.872L195.929 159.742C189.605 163.525 182.178 167.905 179.467 169.299C176.757 170.793 173.846 172.386 172.943 172.983C172.04 173.481 166.419 176.866 160.497 180.35C145.44 189.211 144.136 191.302 146.946 201.755C147.95 205.737 147.95 206.434 146.344 208.226C143.634 211.213 144.136 215.494 149.255 231.025C153.972 245.362 155.98 248.647 160.497 249.742C166.017 251.136 172.943 246.656 173.043 241.678C173.043 239.985 170.936 232.021 168.326 223.857C163.508 208.724 160.898 204.344 156.883 204.344C155.478 204.344 154.575 203.149 153.37 199.864C152.567 197.375 152.065 194.687 152.366 193.89C152.868 192.695 157.786 189.51 171.538 181.744C173.345 180.748 180.772 176.368 188.1 172.087C195.427 167.706 203.959 162.728 207.07 160.936C212.591 157.651 215 154.465 215 150.284C215 149.089 212.491 140.427 209.479 131.169C205.565 119.222 203.256 113.746 201.65 112.551C199.141 110.56 193.62 110.261 188.903 111.854C185.088 113.248 184.787 112.85 182.278 104.985C179.267 95.5267 175.151 94.8298 156.281 101.002Z" fill="#47C819"/>
</svg>
