<svg width="38" height="38" viewBox="0 0 38 38" fill="none" xmlns="http://www.w3.org/2000/svg">
<path d="M4.15625 36.8125H6.53125C6.85943 36.8125 7.125 36.5466 7.125 36.2188V32.0625H21.375V36.2188C21.375 36.5466 21.6406 36.8125 21.9688 36.8125H27.3125H30.875H36.2188C36.5469 36.8125 36.8125 36.5466 36.8125 36.2188V27.3125C36.8125 27.1551 36.7499 27.004 36.6385 26.8927L35.625 25.8792V20.7812V1.78125C35.625 1.45335 35.3594 1.1875 35.0312 1.1875H4.15625C2.51938 1.1875 1.1875 2.51938 1.1875 4.15625V33.8438C1.1875 35.4806 2.51938 36.8125 4.15625 36.8125ZM27.9062 35.625V29.6875H30.2812V35.625H27.9062ZM35.625 35.625H31.4688V29.0938C31.4688 28.7659 31.2032 28.5 30.875 28.5H27.3125C26.9843 28.5 26.7188 28.7659 26.7188 29.0938V35.625H22.5625V27.5583L29.0938 21.0271L31.6427 23.576C31.8132 23.7462 32.0683 23.797 32.2898 23.7048C32.5119 23.6129 32.6562 23.3963 32.6562 23.1562V21.375H34.4375V26.125C34.4375 26.2824 34.5001 26.4335 34.6115 26.5448L35.625 27.5583V35.625ZM4.15625 2.375H34.4375V20.1875H32.0625C31.7343 20.1875 31.4688 20.4534 31.4688 20.7812V21.7229L29.5135 19.7677C29.2816 19.5358 28.9059 19.5358 28.674 19.7677L21.549 26.8927C21.4376 27.004 21.375 27.1551 21.375 27.3125V30.875H7.125V6.53125C7.125 6.20335 6.85943 5.9375 6.53125 5.9375H4.15625C3.17401 5.9375 2.375 5.13849 2.375 4.15625C2.375 3.17401 3.17401 2.375 4.15625 2.375ZM2.375 6.5298C2.87134 6.90321 3.48828 7.125 4.15625 7.125H5.9375V35.625H4.15625C3.17401 35.625 2.375 34.826 2.375 33.8438V6.5298Z" fill="#47C819"/>
<path d="M9.5 25.5312H13.0625C13.3907 25.5312 13.6562 25.2654 13.6562 24.9375C13.6562 24.1634 14.1526 23.503 14.8438 23.258V24.9375C14.8438 25.2654 15.1093 25.5312 15.4375 25.5312H19.5938C19.9219 25.5312 20.1875 25.2654 20.1875 24.9375V17.2188H32.0625C32.3907 17.2188 32.6562 16.9529 32.6562 16.625V4.75C32.6562 4.4221 32.3907 4.15625 32.0625 4.15625H9.5C9.17182 4.15625 8.90625 4.4221 8.90625 4.75V24.9375C8.90625 25.2654 9.17182 25.5312 9.5 25.5312ZM31.4688 16.0312H24.3438V14.8438H26.125C26.4532 14.8438 26.7188 14.5779 26.7188 14.25C26.7188 12.8164 25.6971 11.6167 24.3438 11.341V5.34375H31.4688V16.0312ZM16.625 5.34375V11.2812H16.0312V12.4688H17.2188C17.5469 12.4688 17.8125 12.2029 17.8125 11.875V5.34375H23.1562V11.875C23.1562 12.2029 23.4218 12.4688 23.75 12.4688C24.5241 12.4688 25.1845 12.9651 25.4298 13.6562H23.75C23.4218 13.6562 23.1562 13.9221 23.1562 14.25V16.0312H19.5938C19.2656 16.0312 19 16.2971 19 16.625V24.3438H16.0312V22.5625C16.0312 22.2346 15.7657 21.9688 15.4375 21.9688C14.0036 21.9688 12.8045 22.9904 12.5285 24.3438H10.0938V12.4688H14.25V11.2812H10.0938V5.34375H16.625Z" fill="#47C819"/>
<path d="M8.3125 28.5H9.5V29.6875H8.3125V28.5Z" fill="#47C819"/>
<path d="M10.6875 28.5H11.875V29.6875H10.6875V28.5Z" fill="#47C819"/>
<path d="M13.0625 28.5H14.25V29.6875H13.0625V28.5Z" fill="#47C819"/>
</svg>
