<svg width="40" height="38" viewBox="0 0 40 38" fill="none" xmlns="http://www.w3.org/2000/svg">
<path d="M36.1734 0.140381H10.1185C9.38531 0.140381 9.35188 1.32015 10.1185 1.32015H36.1734C37.5999 1.32015 38.7668 2.45185 38.8253 3.8649C38.7669 5.19984 37.6633 6.268 36.3147 6.268C35.9911 6.268 35.7288 6.53211 35.7288 6.85788V24.3379C35.7288 25.076 36.9006 25.1097 36.9006 24.3379V7.40112C37.639 7.28244 38.3046 6.94314 38.8281 6.45298V33.4804C38.8281 34.6651 38.0049 35.6611 36.9006 35.9259V27.842C36.9006 27.1039 35.7288 27.0702 35.7288 27.842V30.8059H22.87V28.7777C23.6595 28.6335 24.0441 28.0535 24.3162 27.3605C24.4195 26.9818 24.6339 26.6848 24.9596 26.4694C25.7754 25.795 26.0008 25.1225 25.7399 24.0929C25.5999 23.7088 25.5999 23.3246 25.7399 22.9404C26.0007 21.9108 25.7753 21.2383 24.9595 20.5639C24.6339 20.3486 24.4194 20.0515 24.3162 19.6729C23.9281 18.6844 23.3588 18.2649 22.3052 18.1964C21.9171 18.2144 21.5716 18.102 21.2688 17.8589C20.3659 17.277 19.634 17.2768 18.7311 17.8589C18.4283 18.1019 18.0828 18.2144 17.6948 18.1963C16.6412 18.265 16.0719 18.6842 15.6838 19.6727C15.5805 20.0514 15.3661 20.3484 15.0404 20.5638C14.2246 21.2383 13.9993 21.9108 14.2601 22.9404C14.4001 23.3246 14.4001 23.7087 14.2601 24.0928C13.9993 25.1224 14.2245 25.7949 15.0404 26.4693C15.366 26.6847 15.5805 26.9817 15.6838 27.3604C15.9559 28.0534 16.3405 28.6333 17.13 28.7776V30.8058H4.27125V6.85796C4.27125 6.53219 4.00891 6.26808 3.68531 6.26808C2.33672 6.26808 1.2332 5.19992 1.17469 3.86497C1.23328 2.45193 2.40008 1.32022 3.82664 1.32022H6.57227C7.30547 1.32022 7.33891 0.140459 6.57227 0.140459H3.82664C1.97953 0.140381 0 1.71859 0 3.69564V33.4804C0 35.5173 1.6532 37.1746 3.68531 37.1746C4.00891 37.1746 4.27125 36.9105 4.27125 36.5847V31.9857H17.13V35.0614C17.13 35.5503 17.7124 35.8274 18.0877 35.5173L20 33.937L21.9123 35.5173C22.2928 35.8318 22.87 35.5475 22.87 35.0614V31.9857H35.7288V36.5847C35.7288 36.9105 35.9911 37.1746 36.3147 37.1746C38.3468 37.1746 40 35.5173 40 33.4804V3.7536C40 1.79999 38.1608 0.140381 36.1734 0.140381ZM3.09938 35.9259C1.99508 35.6611 1.17188 34.6651 1.17188 33.4804V6.45298C1.69539 6.94314 2.36102 7.28244 3.09938 7.40112V35.9259ZM16.7736 26.9268C16.5482 26.3528 16.2579 25.9495 15.7841 25.5577C15.3133 25.1685 15.2455 24.9769 15.3955 24.3845C15.5503 23.7736 15.5503 23.26 15.3955 22.6491C15.2455 22.0567 15.3133 21.865 15.7841 21.4758C16.2578 21.0841 16.5482 20.6806 16.7736 20.1066C16.9979 19.5354 17.1621 19.4134 17.7705 19.3738C18.3797 19.334 18.849 19.1841 19.363 18.8527C19.8881 18.5141 20.1117 18.514 20.6369 18.8527C21.151 19.184 21.6202 19.334 22.2295 19.3738C22.8379 19.4135 23.002 19.5354 23.2263 20.1066C23.4516 20.6806 23.742 21.0841 24.2159 21.4758C24.6866 21.865 24.7545 22.0566 24.6044 22.6491C24.4496 23.26 24.4496 23.7737 24.6044 24.3845C24.7545 24.9769 24.6866 25.1687 24.2159 25.5578C23.7421 25.9495 23.4516 26.353 23.2263 26.9271C23.002 27.4983 22.8378 27.6202 22.2294 27.66C21.6202 27.6997 21.1511 27.8497 20.637 28.181C20.1116 28.5196 19.8882 28.5196 19.3629 28.181C18.8488 27.8497 18.3796 27.6997 17.7705 27.66C17.1621 27.62 16.9979 27.4981 16.7736 26.9268ZM21.6981 33.814L20.3718 32.7178C20.1556 32.5392 19.8444 32.5392 19.6282 32.7178L18.3019 33.814V28.9285C18.4275 28.979 18.5753 29.074 18.7311 29.1744C19.634 29.7565 20.366 29.7565 21.2689 29.1744C21.4246 29.074 21.5724 28.9789 21.6981 28.9285V33.814Z" fill="#47C819"/>
<path d="M10.1188 7.68574H29.8818C30.6577 7.65869 30.6571 6.5328 29.8818 6.50598H10.1188C9.34294 6.53304 9.34349 7.65892 10.1188 7.68574Z" fill="#47C819"/>
<path d="M10.1188 11.4266H29.8818C30.6577 11.3995 30.6571 10.2736 29.8818 10.2468H10.1188C9.34294 10.2739 9.34349 11.3998 10.1188 11.4266Z" fill="#47C819"/>
<path d="M10.1188 15.1676H29.8818C30.6577 15.1405 30.6571 14.0146 29.8818 13.9878H10.1188C9.34294 14.0148 9.34349 15.1407 10.1188 15.1676Z" fill="#47C819"/>
<path d="M23.2872 23.5166C23.2872 21.6921 21.8127 20.2076 20.0004 20.2076C15.6399 20.3894 15.6411 26.6445 20.0004 26.8257C21.8127 26.8257 23.2872 25.3412 23.2872 23.5166ZM17.8854 23.5166C17.8854 22.3426 18.8342 21.3874 20.0004 21.3874C22.8061 21.5044 22.8054 25.5293 20.0004 25.6459C18.8342 25.6459 17.8854 24.6907 17.8854 23.5166Z" fill="#47C819"/>
</svg>
