<svg width="34" height="34" viewBox="0 0 34 34" fill="none" xmlns="http://www.w3.org/2000/svg">
<path d="M33.3125 4.0625H31.625V2.9375C31.625 2.78832 31.5657 2.64524 31.4602 2.53975C31.3548 2.43426 31.2117 2.375 31.0625 2.375H29.375V1.25506C29.375 1.10588 29.3157 0.962804 29.2102 0.857315C29.1048 0.751826 28.9617 0.692563 28.8125 0.692563L26.5625 0.6875C26.4133 0.6875 26.2702 0.746763 26.1648 0.852252C26.0593 0.957742 26 1.10082 26 1.25V2.375H2.9375C2.19185 2.37589 1.477 2.6725 0.949749 3.19975C0.422496 3.727 0.125893 4.44185 0.125 5.1875V31.0625C0.125893 31.8081 0.422496 32.523 0.949749 33.0503C1.477 33.5775 2.19185 33.8741 2.9375 33.875H6.875C7.02418 33.875 7.16726 33.8157 7.27275 33.7102C7.37824 33.6048 7.4375 33.4617 7.4375 33.3125V31.625H33.3125C33.4617 31.625 33.6048 31.5657 33.7102 31.4602C33.8157 31.3548 33.875 31.2117 33.875 31.0625V4.625C33.875 4.47582 33.8157 4.33274 33.7102 4.22725C33.6048 4.12176 33.4617 4.0625 33.3125 4.0625ZM28.25 5.75H27.125V4.625H28.25V5.75ZM28.25 6.875V19.25H27.125V6.875H28.25ZM28.2219 20.375L27.6875 21.9714L27.1554 20.3716L28.2219 20.375ZM28.25 1.81644V3.5H27.125V1.8125L28.25 1.81644ZM2.9375 3.5H26V20.375C26.0002 20.4352 26.0099 20.495 26.0287 20.5522L27.1537 23.9272C27.1907 24.0397 27.2623 24.1377 27.3582 24.2072C27.4542 24.2766 27.5696 24.314 27.6881 24.314C27.8065 24.314 27.922 24.2766 28.0179 24.2072C28.1139 24.1377 28.1854 24.0397 28.2224 23.9272L29.3474 20.5573C29.366 20.5 29.3753 20.4402 29.375 20.3801V3.5H30.5V28.25H2.9375C2.32692 28.2521 1.73397 28.4549 1.25 28.8271V5.1875C1.25 4.73995 1.42779 4.31072 1.74426 3.99426C2.06072 3.67779 2.48995 3.5 2.9375 3.5ZM32.75 30.5H2.375V31.625H6.3125V32.75H2.9375C2.48995 32.75 2.06072 32.5722 1.74426 32.2557C1.42779 31.9393 1.25 31.5101 1.25 31.0625C1.25 30.6149 1.42779 30.1857 1.74426 29.8693C2.06072 29.5528 2.48995 29.375 2.9375 29.375H31.0625C31.2117 29.375 31.3548 29.3157 31.4602 29.2102C31.5657 29.1048 31.625 28.9617 31.625 28.8125V5.1875H32.75V30.5Z" fill="#47C819"/>
<path d="M4.0625 25.4375H6.875V24.3125H4.625V15.3125H6.875V14.1875H4.625V7.4375H11.375V14.1875H9.125V15.3125H15.3125V18.6875H16.4375V15.3125H18.6875V14.1875H12.5V7.4375H22.625V14.1875H20.9375V15.3125H22.625V24.3125H16.4375V20.9375H15.3125V24.3125H9.125V25.4375H23.1875C23.3367 25.4375 23.4798 25.3782 23.5852 25.2727C23.6907 25.1673 23.75 25.0242 23.75 24.875V6.875C23.75 6.72582 23.6907 6.58274 23.5852 6.47725C23.4798 6.37176 23.3367 6.3125 23.1875 6.3125H4.0625C3.91332 6.3125 3.77024 6.37176 3.66475 6.47725C3.55926 6.58274 3.5 6.72582 3.5 6.875V24.875C3.5 25.0242 3.55926 25.1673 3.66475 25.2727C3.77024 25.3782 3.91332 25.4375 4.0625 25.4375Z" fill="#47C819"/>
<path d="M31.625 32.75H17V33.875H31.625V32.75Z" fill="#47C819"/>
<path d="M19.8125 0.125H5.1875V1.25H19.8125V0.125Z" fill="#47C819"/>
<path d="M15.875 32.75H14.75V33.875H15.875V32.75Z" fill="#47C819"/>
</svg>
