<svg width="23" height="23" viewBox="0 0 23 23" fill="none" xmlns="http://www.w3.org/2000/svg">
<path d="M19.8457 9.65107C19.8736 6.40849 17.0877 3.43591 13.6355 3.02485C13.5669 3.01678 13.4921 3.0045 13.4129 2.9915C13.242 2.96343 13.0653 2.93457 12.8869 2.93457C12.1794 2.93457 11.9903 3.42726 11.9405 3.72111C11.8921 4.00681 11.9383 4.24673 12.0775 4.43451C12.3118 4.75035 12.7241 4.80642 13.0552 4.85135C13.1523 4.86463 13.2439 4.87699 13.3205 4.89406C16.4222 5.5811 17.4665 6.66127 17.9769 9.70985C17.9894 9.78435 17.995 9.87613 18.001 9.97348C18.0233 10.3379 18.0697 11.0961 18.8919 11.0961H18.892C18.9604 11.0961 19.034 11.0902 19.1106 11.0787C19.8762 10.9633 19.8523 10.2703 19.8407 9.93727C19.8375 9.84349 19.8344 9.75478 19.8424 9.69578C19.8445 9.68093 19.8456 9.666 19.8457 9.65107Z" fill="#082640"/>
<path d="M12.6863 1.83478C12.7781 1.84135 12.8651 1.84764 12.9375 1.85864C18.0307 2.6351 20.373 5.02729 21.0221 10.1158C21.0331 10.2023 21.0348 10.3078 21.0366 10.4195C21.0431 10.817 21.0564 11.6441 21.9524 11.6612L21.9802 11.6615C22.2612 11.6615 22.4847 11.5775 22.6446 11.4117C22.9235 11.1225 22.904 10.6928 22.8883 10.3476C22.8845 10.2628 22.8808 10.1831 22.8817 10.1132C22.9465 4.90901 18.4023 0.189849 13.1573 0.0143565C13.1355 0.0136423 13.1148 0.0147851 13.0938 0.0177135C13.0835 0.0192135 13.0644 0.0210705 13.0317 0.0210705C12.9794 0.0210705 12.915 0.0165707 12.8468 0.0119995C12.7643 0.0064283 12.6708 0 12.576 0C11.7407 0 11.5819 0.588546 11.5616 0.939389C11.5147 1.75021 12.306 1.80728 12.6863 1.83478Z" fill="#082640"/>
<path d="M20.7762 16.6942C20.6679 16.6122 20.5559 16.5274 20.4511 16.4437C19.895 16 19.3034 15.5911 18.7312 15.1956C18.6125 15.1136 18.4937 15.0316 18.3754 14.9493C17.6425 14.439 16.9836 14.191 16.3611 14.191C15.5227 14.191 14.7917 14.6502 14.1883 15.5558C13.921 15.9573 13.5967 16.1525 13.197 16.1525C12.9607 16.1525 12.6922 16.0857 12.399 15.9538C10.0334 14.8903 8.34417 13.2598 7.37819 11.1075C6.91124 10.0673 7.06261 9.38732 7.88442 8.83392C8.35109 8.51993 9.21973 7.93538 9.1582 6.816C9.08852 5.54484 6.25925 1.72008 5.06718 1.28567C4.56247 1.10167 4.03218 1.09996 3.4882 1.28138C2.1178 1.73808 1.13439 2.54011 0.644014 3.60064C0.170139 4.62538 0.191538 5.82862 0.705905 7.08028C2.19288 10.6991 4.28349 13.8543 6.91988 16.4579C9.50043 19.0067 12.6722 21.0945 16.3469 22.663C16.6781 22.8043 17.0255 22.8814 17.2792 22.9376C17.3657 22.9569 17.4403 22.9733 17.4947 22.9881C17.5246 22.9962 17.5554 23.0005 17.5863 23.0008L17.6154 23.001C17.6155 23.001 17.6154 23.001 17.6155 23.001C19.3439 23.001 21.4191 21.4353 22.0565 19.6504C22.6149 18.0875 21.5954 17.3149 20.7762 16.6942Z" fill="#082640"/>
<path d="M13.4504 5.9684C13.1545 5.97583 12.5387 5.99097 12.3226 6.61273C12.2215 6.90329 12.2336 7.15556 12.3586 7.36255C12.5421 7.66625 12.8935 7.75932 13.2132 7.81039C14.3726 7.99481 14.968 8.63035 15.0871 9.8103C15.1424 10.3605 15.5162 10.7447 15.996 10.7447H15.9961C16.0315 10.7447 16.0678 10.7426 16.1039 10.7383C16.681 10.6702 16.9608 10.2499 16.9355 9.48903C16.9447 8.69499 16.5255 7.79353 15.8126 7.07549C15.0972 6.35524 14.2348 5.94961 13.4504 5.9684Z" fill="#082640"/>
</svg>
