<svg width="14" height="12" viewBox="0 0 14 12" fill="none" xmlns="http://www.w3.org/2000/svg">
<path d="M0.292169 1.60192C2.21361 3.22918 5.58515 6.09201 6.57609 6.98465C6.70912 7.10512 6.8518 7.16637 6.99992 7.16637C7.14774 7.16637 7.29017 7.1057 7.4229 6.9858C8.41468 6.09228 11.7862 3.22918 13.7077 1.60192C13.8273 1.5008 13.8456 1.32307 13.7487 1.19945C13.5248 0.913789 13.191 0.75 12.8332 0.75H1.16659C0.808856 0.75 0.475017 0.913789 0.251153 1.19948C0.154302 1.32307 0.17254 1.5008 0.292169 1.60192Z" fill="white"/>
<path d="M13.8308 2.48422C13.7274 2.4361 13.6058 2.45289 13.5198 2.52639C11.3889 4.33277 8.66939 6.64818 7.81375 7.4192C7.33351 7.8527 6.66701 7.8527 6.18565 7.41862C5.27362 6.59689 2.21966 4.00065 0.480211 2.52636C0.393613 2.45286 0.271715 2.43665 0.169176 2.4842C0.0660898 2.53207 0 2.63519 0 2.74883V10.0838C0 10.7272 0.523223 11.2505 1.16668 11.2505H12.8334C13.4768 11.2505 14 10.7272 14 10.0838V2.74883C14 2.63519 13.9339 2.5318 13.8308 2.48422Z" fill="white"/>
</svg>
