<svg width="45" height="45" viewBox="0 0 45 45" fill="none" xmlns="http://www.w3.org/2000/svg">
<path d="M37.1345 23.7843C36.7729 23.7843 36.4797 24.0775 36.4797 24.4392C36.4797 24.8977 36.1066 25.2707 35.6481 25.2707C35.1897 25.2707 34.8166 24.8977 34.8166 24.4392C34.8166 24.0774 34.5234 23.7843 34.1617 23.7843C33.8 23.7843 33.5068 24.0775 33.5068 24.4392C33.5068 25.6199 34.4675 26.5805 35.6481 26.5805C36.8288 26.5805 37.7894 25.6198 37.7894 24.4392C37.7894 24.0773 37.4962 23.7843 37.1345 23.7843Z" fill="#47C819"/>
<path d="M43.2812 23.8913L41.438 23.3009C41.2019 23.2252 41.0158 23.0368 40.9403 22.7967C40.5519 21.5616 39.9656 20.4021 39.1979 19.3502C38.848 18.8708 38.4589 18.4129 38.0339 17.9771C38.3058 16.7841 38.4536 15.4341 38.4345 14.2677C38.4071 12.5991 38.0736 11.6204 37.4151 11.2755C37.0605 11.0895 35.9812 10.5246 30.1394 13.1987C30.001 13.262 29.8718 13.34 29.7522 13.4293C29.3584 13.3235 28.9558 13.2255 28.5508 13.1377C28.5021 13.127 28.4518 13.1176 28.4026 13.1072C28.876 12.0731 29.1524 10.95 29.2044 9.79051C29.2206 9.42911 28.9408 9.12307 28.5794 9.10699C28.219 9.08906 27.912 9.37048 27.8959 9.73189C27.8105 11.6383 27.0197 13.4321 25.6692 14.7827C24.8622 15.5896 23.9174 16.1758 22.9104 16.5449C21.1642 16.2999 19.3854 16.2999 17.6391 16.5449C16.6321 16.1758 15.6873 15.5896 14.8804 14.7827C13.4395 13.3418 12.646 11.4261 12.646 9.38833C12.646 7.35049 13.4395 5.43483 14.8804 3.99395C16.3213 2.55298 18.2371 1.75942 20.2748 1.75942C22.3124 1.75942 24.2283 2.55298 25.6692 3.99395C26.2482 4.57297 26.7267 5.23374 27.0913 5.95769C27.254 6.28078 27.6478 6.41085 27.9708 6.24808C28.2939 6.08548 28.4239 5.69165 28.2612 5.36865C27.8338 4.51971 27.2733 3.74566 26.5954 3.06767C24.9071 1.37938 22.6624 0.449585 20.2749 0.449585C17.8873 0.449585 15.6426 1.37938 13.9543 3.06767C12.266 4.75605 11.3362 7.00069 11.3362 9.38824C11.3362 11.7758 12.266 14.0205 13.9543 15.7088C14.4413 16.1958 14.9711 16.6146 15.5315 16.9655C15.5317 16.9655 15.5319 16.9654 15.532 16.9654C15.1248 17.0712 14.7207 17.19 14.3211 17.3236C13.978 17.4383 13.7929 17.8093 13.9076 18.1524C14.0222 18.4955 14.3934 18.6806 14.7364 18.566C18.3079 17.372 22.2419 17.372 25.8134 18.566C25.8823 18.589 25.9523 18.5999 26.0211 18.5999C26.295 18.5999 26.5504 18.4266 26.6421 18.1524C26.7568 17.8094 26.5717 17.4383 26.2287 17.3236C25.829 17.19 25.4249 17.0711 25.0177 16.9654C25.0179 16.9654 25.0181 16.9655 25.0182 16.9655C25.5787 16.6146 26.1084 16.1958 26.5954 15.7088C27.0263 15.278 27.4066 14.8075 27.7368 14.3075C27.9173 14.3425 28.0965 14.3793 28.2731 14.4176C28.5083 14.4687 28.7424 14.5235 28.9745 14.5811C28.9672 14.6096 28.9597 14.6379 28.9536 14.6669C28.6342 16.1825 28.655 17.523 29.0152 18.6509C29.339 19.6648 29.9234 20.4861 30.752 21.0923C31.7285 21.8067 32.9075 22.1152 33.9754 22.1152C34.7792 22.1152 35.5202 21.9403 36.0644 21.6321C36.68 21.2834 37.1958 20.5488 37.604 19.4457C37.7927 19.666 37.9716 19.8916 38.1401 20.1226C38.8237 21.059 39.3455 22.091 39.6911 23.1898C39.894 23.8352 40.3978 24.343 41.0386 24.5484L42.8818 25.1389C43.3655 25.2938 43.6904 25.739 43.6904 26.2468V29.3032C43.6904 29.811 43.3655 30.2562 42.8818 30.4111L39.9121 31.3624C39.437 31.5147 39.0349 31.8412 38.7799 32.2819C37.6131 34.2983 35.7788 35.9669 33.3274 37.2414C33.0442 37.3888 32.8481 37.6524 32.789 37.9647L31.8379 43.0011C31.8116 43.1399 31.69 43.2405 31.5488 43.2405H28.4562C28.3149 43.2405 28.1934 43.1398 28.1671 43.0011L27.6403 40.2177C27.5366 39.6701 27.0229 39.3063 26.4701 39.3901C25.1379 39.5915 23.7653 39.6935 22.3904 39.6935C21.3675 39.6935 20.3578 39.6365 19.3889 39.5239C18.8532 39.4623 18.3542 39.8275 18.2541 40.3564L17.7535 43.0011C17.7272 43.1399 17.6056 43.2405 17.4644 43.2405H14.3718C14.2305 43.2405 14.109 43.1398 14.0824 42.999L13.1665 38.2422C13.1076 37.9357 12.9151 37.6751 12.6381 37.5272C8.45947 35.2965 6.25078 31.5695 6.25078 26.7496C6.25078 24.3144 6.78357 22.1609 7.83431 20.349C8.81481 18.6581 10.2469 17.26 12.0908 16.1934C12.4038 16.0123 12.5108 15.6117 12.3297 15.2985C12.1487 14.9855 11.7481 14.8787 11.4349 15.0596C7.85962 17.1278 5.70322 20.3186 5.10952 24.3712V24.3711C5.0465 24.3654 4.9834 24.36 4.92056 24.3535C4.93198 23.9162 4.85288 23.475 4.68062 23.0468C4.30066 22.1023 3.5202 21.4206 2.69218 21.3102C2.03968 21.2228 1.41873 21.4998 0.987803 22.0692C0.362988 22.8948 0.464854 23.5482 0.660234 23.9509C0.990088 24.6306 1.83797 25.1113 3.24501 25.4136C3.20634 25.4715 3.1638 25.5297 3.11722 25.5882C2.28586 26.6308 1.30641 26.8613 0.67043 26.883C0.298125 26.8956 0 27.1945 0 27.5671V27.5703C0 27.9377 0.289951 28.2374 0.65707 28.2542C0.704092 28.2564 0.753223 28.2576 0.804375 28.2576C1.6091 28.2576 2.90065 27.9608 4.14149 26.4048C4.3374 26.1593 4.49701 25.9002 4.61971 25.6324C4.74328 25.6464 4.86202 25.6584 4.97575 25.6689C4.97575 25.6687 4.97575 25.6685 4.97584 25.6682C4.95352 26.0231 4.94112 26.3832 4.94112 26.7496C4.94112 29.4767 5.59125 31.9082 6.87331 33.9769C8.05544 35.8841 9.74795 37.4457 11.9055 38.6201L12.7958 43.2446C12.939 44.0011 13.6018 44.5503 14.3718 44.5503H17.4644C18.2344 44.5503 18.8972 44.0011 19.0404 43.2446L19.493 40.8533C20.4331 40.9528 21.4064 41.0033 22.3903 41.0033C23.7403 41.0033 25.0887 40.9092 26.4029 40.7236L26.88 43.2448C27.0233 44.0013 27.6861 44.5504 28.456 44.5504H31.5486C32.3186 44.5504 32.9814 44.0012 33.1247 43.2444L34.0508 38.3409C36.6671 36.9574 38.6392 35.14 39.9134 32.9378C40.0053 32.7791 40.1467 32.6626 40.3116 32.6098L43.2812 31.6586C44.3093 31.3291 45 30.3826 45 29.303V26.2466C45 25.1672 44.3093 24.2207 43.2812 23.8913ZM37.0264 16.108C36.7743 18.2636 36.0982 20.1076 35.4188 20.4923C34.6466 20.9298 32.8637 21.0142 31.5251 20.035C30.185 19.0547 29.7389 17.2918 30.2351 14.9369C30.2351 14.9368 30.2351 14.9368 30.2351 14.9368C30.2849 14.7003 30.453 14.4956 30.6846 14.3897C33.9632 12.8888 35.8535 12.398 36.5557 12.398C36.6617 12.398 36.7407 12.4091 36.7932 12.4297C37.0042 12.6545 37.2808 13.9325 37.0264 16.108ZM1.83876 23.379C1.771 23.2393 1.93096 22.9936 2.03238 22.8595C2.19313 22.6472 2.34123 22.6037 2.45312 22.6037C2.47676 22.6037 2.49882 22.6057 2.51903 22.6084C2.82015 22.6486 3.24202 22.9799 3.46553 23.5355C3.51817 23.6662 3.58655 23.8829 3.60255 24.1531C2.69596 23.9653 1.9916 23.6945 1.83876 23.379Z" fill="#47C819"/>
<path d="M20.9107 8.63769V6.29418C21.7189 6.35192 22.0191 6.72132 22.2961 6.72132C22.6425 6.72132 22.8041 6.28266 22.8041 6.06329C22.8041 5.49753 21.6958 5.25513 20.9107 5.23202V4.92018C20.9107 4.78167 20.7375 4.65466 20.5643 4.65466C20.368 4.65466 20.2295 4.78167 20.2295 4.92018V5.25496C19.1327 5.37044 18.0359 5.94771 18.0359 7.40239C18.0359 8.88018 19.1904 9.29582 20.2295 9.66522V12.3783C19.0518 12.2859 18.7402 11.4778 18.3592 11.4778C18.0705 11.4778 17.8281 11.8588 17.8281 12.1359C17.8281 12.7016 18.7979 13.4751 20.2295 13.4982V13.8561C20.2295 13.9946 20.3681 14.1216 20.5643 14.1216C20.7376 14.1216 20.9107 13.9946 20.9107 13.8561V13.4636C22.1576 13.2904 23.0119 12.5053 23.0119 11.0853C23.0119 9.51519 21.9151 9.0071 20.9107 8.63769ZM20.2987 8.4184C19.6868 8.18752 19.1904 7.94511 19.1904 7.28708C19.1904 6.6867 19.6522 6.39806 20.2987 6.31729V8.4184ZM20.8414 12.3552V9.91923C21.407 10.1616 21.8573 10.4849 21.8573 11.2122C21.8573 11.8704 21.4648 12.2398 20.8414 12.3552Z" fill="#47C819"/>
</svg>
