<svg width="24" height="38" viewBox="0 0 24 38" fill="none" xmlns="http://www.w3.org/2000/svg">
<path d="M4.23877 32.2419V32.6058C4.23877 32.9133 4.488 33.1624 4.79541 33.1624H19.2042C19.5116 33.1624 19.7608 32.9133 19.7608 32.6058V32.2419C19.7608 30.2982 18.7641 28.4075 16.9543 26.9181C15.5761 25.7839 13.8166 25.1592 11.9997 25.1592C10.1829 25.1592 8.4233 25.7838 7.04521 26.918C5.23545 28.4074 4.23877 30.2981 4.23877 32.2419ZM7.75266 27.7776C8.932 26.807 10.4403 26.2725 11.9997 26.2725C13.5591 26.2725 15.0674 26.8071 16.2469 27.7777C17.7553 29.0191 18.5807 30.4922 18.6437 32.0492H5.35591C5.41892 30.4921 6.24431 29.0189 7.75266 27.7776Z" fill="#47C819"/>
<path d="M2.07751 3.75072V5.93127C2.07751 8.42991 2.75119 10.898 4.02568 13.0687C4.18131 13.3337 4.52242 13.4225 4.78753 13.2668C5.05264 13.1111 5.14141 12.7701 4.9857 12.5049C3.81148 10.5051 3.19079 8.2319 3.19079 5.93127V3.75205L20.8089 3.75213V5.93141C20.8089 9.3762 19.4544 12.6423 16.9951 15.1279C16.9951 15.128 16.995 15.128 16.995 15.1281C16.4961 15.6325 15.9511 16.1025 15.3751 16.5252C14.586 17.1045 14.115 18.0297 14.115 19.0006C14.115 19.9716 14.5845 20.8957 15.3708 21.4727C17.5897 23.1005 19.2267 25.3117 20.1049 27.8673C20.1843 28.0981 20.4002 28.2431 20.6313 28.2431C20.6913 28.2431 20.7524 28.2333 20.8123 28.2128C21.103 28.1129 21.2576 27.7962 21.1577 27.5055C20.2054 24.7342 18.432 22.3377 16.0293 20.5751C15.5277 20.207 15.2282 19.6184 15.2282 19.0005C15.2282 18.3828 15.5294 17.793 16.0337 17.4227C16.6567 16.9655 17.2463 16.4568 17.7864 15.911C17.7864 15.911 17.7864 15.9109 17.7864 15.9111C20.4533 13.2155 21.9221 9.67137 21.9221 5.93141V3.75072C22.9199 3.72252 23.7233 2.89268 23.7233 1.87603C23.7233 0.841566 22.8919 0 21.8699 0H2.12976C1.10376 0 0.276219 0.840676 0.276367 1.87618C0.276441 2.89282 1.07978 3.72252 2.07751 3.75072ZM2.12976 1.11328H21.8699C22.278 1.11328 22.6101 1.45543 22.6101 1.87595C22.6101 2.29655 22.278 2.6387 21.8699 2.6387H2.12976C1.72163 2.6387 1.38965 2.29655 1.38957 1.8761C1.38965 1.44786 1.72757 1.11328 2.12976 1.11328Z" fill="#47C819"/>
<path d="M21.922 34.2493C21.922 31.9554 21.9539 31.3241 21.7869 30.1311C21.7443 29.8266 21.4635 29.6148 21.1585 29.657C20.854 29.6996 20.6418 29.9809 20.6844 30.2855C20.837 31.376 20.8087 31.9154 20.8087 34.2479H11.9997L3.19064 34.2479C3.19064 31.8355 3.03909 29.856 4.18666 27.0968C4.1868 27.0964 4.18703 27.0959 4.18718 27.0955C5.11357 24.8687 6.64931 22.9244 8.62835 21.4726C9.41492 20.8955 9.88458 19.9713 9.88458 19.0003C9.88458 18.0294 9.41366 17.1041 8.62486 16.5252C7.82434 15.9376 7.08995 15.2641 6.44194 14.5232C6.23947 14.2918 5.8879 14.2682 5.65648 14.4706C5.42507 14.673 5.40154 15.0247 5.60394 15.2561C6.30538 16.0582 7.10019 16.7871 7.96617 17.4226C8.47034 17.7927 8.7713 18.3824 8.7713 19.0002C8.7713 19.618 8.47168 20.2067 7.96988 20.5748C5.82719 22.1467 4.16372 24.2535 3.15932 26.6677C3.15917 26.6683 3.15895 26.6687 3.15873 26.6692C1.92736 29.6299 2.07736 31.74 2.07736 34.2491C1.60013 34.2625 1.15386 34.4568 0.815789 34.8008C0.467926 35.1548 0.276293 35.6247 0.276367 36.124C0.276441 37.1585 1.10791 38 2.12976 38H21.8699C22.8919 38 23.7233 37.1584 23.7233 36.124C23.7233 35.1073 22.9199 34.2774 21.922 34.2493ZM21.8699 36.8867H2.12976C1.72163 36.8867 1.38965 36.5446 1.38957 36.1241C1.38957 35.6968 1.72653 35.3613 2.12976 35.3613H11.9997H21.8699C22.278 35.3613 22.6101 35.7034 22.6101 36.124C22.61 36.5446 22.278 36.8867 21.8699 36.8867Z" fill="#47C819"/>
<path d="M12.5561 17.2559C12.5561 16.9484 12.3069 16.6992 11.9995 16.6992C11.6921 16.6992 11.4429 16.9484 11.4429 17.2559V17.998C11.4429 18.3055 11.6921 18.5547 11.9995 18.5547C12.3069 18.5547 12.5561 18.3055 12.5561 17.998V17.2559Z" fill="#47C819"/>
<path d="M11.9995 24.3438C12.3069 24.3438 12.5561 24.0946 12.5561 23.7871V23.0449C12.5561 22.7374 12.3069 22.4883 11.9995 22.4883C11.6921 22.4883 11.4429 22.7374 11.4429 23.0449V23.7871C11.4429 24.0946 11.6921 24.3438 11.9995 24.3438Z" fill="#47C819"/>
<path d="M11.9995 19.5938C11.6921 19.5938 11.4429 19.8429 11.4429 20.1504V20.8926C11.4429 21.2001 11.6921 21.4492 11.9995 21.4492C12.3069 21.4492 12.5561 21.2001 12.5561 20.8926V20.1504C12.5561 19.8429 12.3069 19.5938 11.9995 19.5938Z" fill="#47C819"/>
<path d="M19.6294 7.69637C19.6799 7.36024 19.4193 7.05713 19.0789 7.05713H4.92102C4.58109 7.05713 4.31999 7.35979 4.37054 7.69637C4.74541 10.1929 5.8941 12.4798 7.69242 14.3102C8.82129 15.4591 10.3914 16.118 12.0001 16.118C13.6086 16.118 15.1787 15.4591 16.3076 14.3103C18.1059 12.48 19.2546 10.193 19.6294 7.69637ZM12 15.0048C10.688 15.0048 9.40739 14.4673 8.48649 13.53C7.00886 12.0261 6.01456 10.184 5.58713 8.17041H18.4127C17.9854 10.1842 16.9911 12.0262 15.5134 13.53C14.5925 14.4673 13.3119 15.0048 12 15.0048Z" fill="#47C819"/>
</svg>
