<svg width="39" height="39" viewBox="0 0 39 39" fill="none" xmlns="http://www.w3.org/2000/svg">
<path d="M5.80242 15.8847C5.66264 15.8847 5.52859 15.8292 5.42975 15.7303C5.33092 15.6315 5.27539 15.4974 5.27539 15.3577V13.8293C5.27539 13.6895 5.33092 13.5554 5.42975 13.4566C5.52859 13.3578 5.66264 13.3022 5.80242 13.3022C5.94219 13.3022 6.07625 13.3578 6.17508 13.4566C6.27392 13.5554 6.32944 13.6895 6.32944 13.8293V15.3577C6.32944 15.4974 6.27392 15.6315 6.17508 15.7303C6.07625 15.8292 5.94219 15.8847 5.80242 15.8847Z" fill="#47C819"/>
<path d="M31.6267 38.2991H7.3835C6.82439 38.2991 6.28819 38.077 5.89284 37.6817C5.49749 37.2863 5.27539 36.7501 5.27539 36.191V24.3013C5.27539 24.1615 5.33092 24.0275 5.42975 23.9286C5.52859 23.8298 5.66264 23.7743 5.80242 23.7743C5.94219 23.7743 6.07625 23.8298 6.17508 23.9286C6.27392 24.0275 6.32944 24.1615 6.32944 24.3013V36.191C6.32944 36.4706 6.4405 36.7387 6.63817 36.9363C6.83584 37.134 7.10395 37.2451 7.3835 37.2451H31.6267C31.9063 37.2451 32.1744 37.134 32.3721 36.9363C32.5697 36.7387 32.6808 36.4706 32.6808 36.191V3.51533C32.6808 3.23578 32.5697 2.96768 32.3721 2.77001C32.1744 2.57233 31.9063 2.46128 31.6267 2.46128H7.3835C7.10395 2.46128 6.83584 2.57233 6.63817 2.77001C6.4405 2.96768 6.32944 3.23578 6.32944 3.51533V10.1401C6.32944 10.2798 6.27392 10.4139 6.17508 10.5127C6.07625 10.6116 5.94219 10.6671 5.80242 10.6671C5.66264 10.6671 5.52859 10.6116 5.42975 10.5127C5.33092 10.4139 5.27539 10.2798 5.27539 10.1401V3.51533C5.27539 2.95623 5.49749 2.42002 5.89284 2.02468C6.28819 1.62933 6.82439 1.40723 7.3835 1.40723H31.6267C32.1859 1.40723 32.7221 1.62933 33.1174 2.02468C33.5128 2.42002 33.7349 2.95623 33.7349 3.51533V36.191C33.7342 36.7499 33.5118 37.2857 33.1166 37.6809C32.7214 38.0761 32.1856 38.2984 31.6267 38.2991Z" fill="#47C819"/>
<path d="M5.80242 21.1389C5.66264 21.1389 5.52859 21.0833 5.42975 20.9845C5.33092 20.8857 5.27539 20.7516 5.27539 20.6118V19.0466C5.27539 18.9068 5.33092 18.7727 5.42975 18.6739C5.52859 18.5751 5.66264 18.5195 5.80242 18.5195C5.94219 18.5195 6.07625 18.5751 6.17508 18.6739C6.27392 18.7727 6.32944 18.9068 6.32944 19.0466V20.6118C6.32944 20.7516 6.27392 20.8857 6.17508 20.9845C6.07625 21.0833 5.94219 21.1389 5.80242 21.1389Z" fill="#47C819"/>
<path d="M29.7832 13.1359H9.22918C9.0894 13.1359 8.95535 13.0803 8.85651 12.9815C8.75767 12.8827 8.70215 12.7486 8.70215 12.6088V5.7575C8.70215 5.61772 8.75767 5.48367 8.85651 5.38483C8.95535 5.28599 9.0894 5.23047 9.22918 5.23047H29.7832C29.923 5.23047 30.0571 5.28599 30.1559 5.38483C30.2547 5.48367 30.3103 5.61772 30.3103 5.7575V12.6088C30.3103 12.7486 30.2547 12.8827 30.1559 12.9815C30.0571 13.0803 29.923 13.1359 29.7832 13.1359ZM9.7562 12.0818H29.2562V6.28452H9.7562V12.0818Z" fill="#47C819"/>
<path d="M28.9923 23.9398H22.141C21.8614 23.9398 21.5933 23.8287 21.3956 23.631C21.198 23.4334 21.0869 23.1653 21.0869 22.8857V16.5614C21.0869 16.2818 21.198 16.0137 21.3956 15.816C21.5933 15.6184 21.8614 15.5073 22.141 15.5073H28.9923C29.2719 15.5073 29.54 15.6184 29.7376 15.816C29.9353 16.0137 30.0464 16.2818 30.0464 16.5614V22.8857C30.0464 23.1653 29.9353 23.4334 29.7376 23.631C29.54 23.8287 29.2719 23.9398 28.9923 23.9398ZM22.141 16.5614V22.8857H28.9923V16.5614H22.141Z" fill="#47C819"/>
<path d="M16.8702 23.9398H10.0189C9.73934 23.9398 9.47124 23.8287 9.27357 23.631C9.0759 23.4334 8.96484 23.1653 8.96484 22.8857V16.5614C8.96484 16.2818 9.0759 16.0137 9.27357 15.816C9.47124 15.6184 9.73934 15.5073 10.0189 15.5073H16.8702C17.1498 15.5073 17.4179 15.6184 17.6156 15.816C17.8132 16.0137 17.9243 16.2818 17.9243 16.5614V22.8857C17.9243 23.1653 17.8132 23.4334 17.6156 23.631C17.4179 23.8287 17.1498 23.9398 16.8702 23.9398ZM16.8702 16.5614H10.0189V22.8857H16.8702V16.5614Z" fill="#47C819"/>
<path d="M28.9923 34.4803H22.141C21.8614 34.4803 21.5933 34.3692 21.3956 34.1716C21.198 33.9739 21.0869 33.7058 21.0869 33.4262V27.1019C21.0869 26.8224 21.198 26.5542 21.3956 26.3566C21.5933 26.1589 21.8614 26.0479 22.141 26.0479H28.9923C29.2719 26.0479 29.54 26.1589 29.7376 26.3566C29.9353 26.5542 30.0464 26.8224 30.0464 27.1019V33.4262C30.0464 33.7058 29.9353 33.9739 29.7376 34.1716C29.54 34.3692 29.2719 34.4803 28.9923 34.4803ZM22.141 27.1019V33.4262H28.9923V27.1019H22.141Z" fill="#47C819"/>
<path d="M16.8702 34.4803H10.0189C9.73934 34.4803 9.47124 34.3692 9.27357 34.1716C9.0759 33.9739 8.96484 33.7058 8.96484 33.4262V27.1019C8.96484 26.8224 9.0759 26.5542 9.27357 26.3566C9.47124 26.1589 9.73934 26.0479 10.0189 26.0479H16.8702C17.1498 26.0479 17.4179 26.1589 17.6156 26.3566C17.8132 26.5542 17.9243 26.8224 17.9243 27.1019V33.4262C17.9243 33.7058 17.8132 33.9739 17.6156 34.1716C17.4179 34.3692 17.1498 34.4803 16.8702 34.4803ZM16.8702 27.1019H10.0189V33.4262H16.8702V27.1019Z" fill="#47C819"/>
<path d="M23.9654 21.8518C23.8612 21.8518 23.7593 21.8209 23.6726 21.7629C23.586 21.705 23.5185 21.6227 23.4786 21.5264C23.4387 21.4302 23.4283 21.3242 23.4486 21.222C23.4689 21.1198 23.5191 21.0259 23.5928 20.9522L26.7945 17.7505C26.8939 17.6545 27.027 17.6014 27.1652 17.6026C27.3034 17.6038 27.4355 17.6592 27.5333 17.7569C27.631 17.8546 27.6864 17.9868 27.6876 18.125C27.6888 18.2632 27.6357 18.3963 27.5397 18.4957L24.338 21.6974C24.2392 21.7962 24.1052 21.8518 23.9654 21.8518Z" fill="#47C819"/>
<path d="M27.1676 21.8518C27.0278 21.8518 26.8938 21.7962 26.7949 21.6974L23.5933 18.4957C23.4973 18.3963 23.4441 18.2632 23.4453 18.125C23.4465 17.9868 23.502 17.8546 23.5997 17.7569C23.6974 17.6592 23.8296 17.6038 23.9678 17.6026C24.1059 17.6014 24.2391 17.6545 24.3385 17.7505L27.5402 20.9522C27.6138 21.0259 27.664 21.1198 27.6843 21.222C27.7047 21.3242 27.6942 21.4302 27.6544 21.5264C27.6145 21.6227 27.5469 21.705 27.4603 21.7629C27.3736 21.8209 27.2718 21.8518 27.1676 21.8518Z" fill="#47C819"/>
<path d="M27.2737 29.6585H23.8591C23.7193 29.6585 23.5852 29.603 23.4864 29.5042C23.3876 29.4053 23.332 29.2713 23.332 29.1315C23.332 28.9917 23.3876 28.8577 23.4864 28.7589C23.5852 28.66 23.7193 28.6045 23.8591 28.6045H27.2737C27.4134 28.6045 27.5475 28.66 27.6463 28.7589C27.7452 28.8577 27.8007 28.9917 27.8007 29.1315C27.8007 29.2713 27.7452 29.4053 27.6463 29.5042C27.5475 29.603 27.4134 29.6585 27.2737 29.6585Z" fill="#47C819"/>
<path d="M27.2737 31.9242H23.8591C23.7193 31.9242 23.5852 31.8686 23.4864 31.7698C23.3876 31.671 23.332 31.5369 23.332 31.3971C23.332 31.2574 23.3876 31.1233 23.4864 31.0245C23.5852 30.9256 23.7193 30.8701 23.8591 30.8701H27.2737C27.4134 30.8701 27.5475 30.9256 27.6463 31.0245C27.7452 31.1233 27.8007 31.2574 27.8007 31.3971C27.8007 31.5369 27.7452 31.671 27.6463 31.7698C27.5475 31.8686 27.4134 31.9242 27.2737 31.9242Z" fill="#47C819"/>
<path d="M13.445 32.7125C13.3052 32.7125 13.1712 32.657 13.0723 32.5582C12.9735 32.4593 12.918 32.3253 12.918 32.1855V28.3429C12.918 28.2032 12.9735 28.0691 13.0723 27.9703C13.1712 27.8714 13.3052 27.8159 13.445 27.8159C13.5848 27.8159 13.7188 27.8714 13.8177 27.9703C13.9165 28.0691 13.972 28.2032 13.972 28.3429V32.1855C13.972 32.3253 13.9165 32.4593 13.8177 32.5582C13.7188 32.657 13.5848 32.7125 13.445 32.7125Z" fill="#47C819"/>
<path d="M15.3657 30.7909H11.5231C11.3833 30.7909 11.2493 30.7353 11.1505 30.6365C11.0516 30.5377 10.9961 30.4036 10.9961 30.2638C10.9961 30.1241 11.0516 29.99 11.1505 29.8912C11.2493 29.7923 11.3833 29.7368 11.5231 29.7368H15.3657C15.5054 29.7368 15.6395 29.7923 15.7383 29.8912C15.8372 29.99 15.8927 30.1241 15.8927 30.2638C15.8927 30.4036 15.8372 30.5377 15.7383 30.6365C15.6395 30.7353 15.5054 30.7909 15.3657 30.7909Z" fill="#47C819"/>
<path d="M15.1961 20.2503H11.694C11.5542 20.2503 11.4202 20.1948 11.3214 20.096C11.2225 19.9971 11.167 19.8631 11.167 19.7233C11.167 19.5835 11.2225 19.4495 11.3214 19.3507C11.4202 19.2518 11.5542 19.1963 11.694 19.1963H15.1961C15.3359 19.1963 15.4699 19.2518 15.5688 19.3507C15.6676 19.4495 15.7231 19.5835 15.7231 19.7233C15.7231 19.8631 15.6676 19.9971 15.5688 20.096C15.4699 20.1948 15.3359 20.2503 15.1961 20.2503Z" fill="#47C819"/>
</svg>
